SplineFontDB: 3.2
FontName: ZameroSans-ExtraBold
FullName: Zamero Sans ExtraBold
FamilyName: Zamero Sans
Weight: ExtraBold
Copyright: Copyright (c) 2024-2025, Zamero Type Foundry
UComments: "2024-1-17: Created with FontForge (http://fontforge.org)+AAoACgAK-Instead of Charlie and the Alphabet and Charlie and the Numbers, how about Charlie and the Fonts? :)"
Version: 001.100
ItalicAngle: 0
UnderlinePosition: -100
UnderlineWidth: 50
Ascent: 800
Descent: 200
InvalidEm: 0
LayerCount: 2
Layer: 0 0 "Back" 1
Layer: 1 0 "Fore" 0
XUID: [1021 474 1118879153 20760]
StyleMap: 0x0000
FSType: 0
OS2Version: 0
OS2_WeightWidthSlopeOnly: 0
OS2_UseTypoMetrics: 1
CreationTime: 1705525712
ModificationTime: 1743311050
PfmFamily: 33
TTFWeight: 800
TTFWidth: 5
LineGap: 90
VLineGap: 90
OS2TypoAscent: 0
OS2TypoAOffset: 1
OS2TypoDescent: 0
OS2TypoDOffset: 1
OS2TypoLinegap: 90
OS2WinAscent: 0
OS2WinAOffset: 1
OS2WinDescent: 0
OS2WinDOffset: 1
HheadAscent: 0
HheadAOffset: 1
HheadDescent: 0
HheadDOffset: 1
OS2Vendor: 'ZAM '
Lookup: 1 0 0 "Single Substitution lookup 5" { "Single Substitution lookup 5 subtable"  } []
Lookup: 1 0 0 "Single Substitution lookup 6" { "Single Substitution lookup 6 subtable"  } []
Lookup: 1 0 0 "'ss15' Style Set 15 lookup 20" { "'ss15' Style Set 15 lookup 20-1" ("ss15") } ['ss15' ('DFLT' <'dflt' > 'grek' <'dflt' > 'latn' <'dflt' > ) ]
Lookup: 1 0 0 "'ss14' Style Set 14 lookup 19" { "'ss14' Style Set 14 lookup 19-1" ("ss14") } ['ss14' ('DFLT' <'dflt' > 'grek' <'dflt' > 'latn' <'dflt' > ) ]
Lookup: 1 0 0 "'onum' Oldstyle Figures lookup 18" { "'onum' Oldstyle Figures lookup 18-1" ("osf") } ['onum' ('DFLT' <'dflt' > 'grek' <'dflt' > 'latn' <'dflt' > ) ]
Lookup: 1 0 0 "'tnum' Tabular Numbers lookup 17" { "'tnum' Tabular Numbers lookup 17-1" ("tf") } ['tnum' ('DFLT' <'dflt' > 'grek' <'dflt' > 'latn' <'dflt' > ) ]
Lookup: 1 0 0 "'dnom' Denominators lookup 0" { "'dnom' Denominators lookup 0 subtable" ("dnom") } ['dnom' ('DFLT' <'dflt' > 'latn' <'dflt' > ) ]

StartChar: I
Encoding: 73 73 0
Width: 434
Flags: W
HStem: 0 163.375<24.75 122 312 409.25> 30 133.375<122 312> 566.625 164.375<24.75 122 312 409.25> 566.625 134.375<122 312>
VStem: 24.75 384.5<0 163.375 566.625 731> 122 190<30 701>
LayerCount: 2
Fore
SplineSet
409.25 0 m 1x88
 24.75 0 l 1
 24.75 163.375 l 1
 409.25 163.375 l 1
 409.25 0 l 1x88
409.25 566.625 m 1x28
 24.75 566.625 l 1
 24.75 731 l 1
 409.25 731 l 1
 409.25 566.625 l 1x28
122 30 m 1x54
 122 701 l 1
 312 701 l 1
 312 30 l 1
 122 30 l 1x54
EndSplineSet
EndChar

StartChar: O
Encoding: 79 79 1
Width: 797
Flags: W
HStem: -9.99805 170.837<306.954 490.823> 568.284 170.837<306.954 490.823>
VStem: 29.75 191.374<252.757 476.366> 576.654 191.374<252.757 476.366>
LayerCount: 2
Fore
SplineSet
221.123535156 364.561523438 m 0
 221.123535156 242.398516182 274.363154401 160.838867188 398.888671875 160.838867188 c 0
 523.414189349 160.838867188 576.653808594 242.398516182 576.653808594 364.561523438 c 0
 576.653808594 486.724530693 523.414189349 568.284179688 398.888671875 568.284179688 c 0
 274.363154401 568.284179688 221.123535156 486.724530693 221.123535156 364.561523438 c 0
29.75 364.561523438 m 0
 29.75 591.206054688 169.424975615 739.12109375 398.888671875 739.12109375 c 0
 628.352368135 739.12109375 768.02734375 591.206054688 768.02734375 364.561523438 c 0
 768.02734375 137.916992188 628.352368135 -9.998046875 398.888671875 -9.998046875 c 0
 169.424975615 -9.998046875 29.75 137.916992188 29.75 364.561523438 c 0
EndSplineSet
EndChar

StartChar: H
Encoding: 72 72 2
Width: 719
Flags: W
HStem: 0 21G<49.75 244.75 474.25 669.25> 274.5 167<145.25 558.75> 711.008 20G<49.75 244.75 474.25 669.25>
VStem: 49.75 195<0 274.5 441.5 731.008> 145.25 99.5<274.5 441.5> 474.25 195<0 274.5 441.5 731.008> 474.25 84.5<274.5 441.5>
LayerCount: 2
Fore
SplineSet
558.75 274.5 m 1xea
 145.25 274.5 l 1
 145.25 441.5 l 1
 558.75 441.5 l 1
 558.75 274.5 l 1xea
474.25 0 m 1xe4
 474.25 731.0078125 l 1
 669.25 731.0078125 l 1
 669.25 0 l 1
 474.25 0 l 1xe4
49.75 0 m 1xf0
 49.75 731.0078125 l 1
 244.75 731.0078125 l 1
 244.75 0 l 1
 49.75 0 l 1xf0
EndSplineSet
EndChar

StartChar: V
Encoding: 86 86 4
Width: 699
Flags: W
HStem: 0 21G<222.971 485.755> 711.008 20G<-0.25 207.983 491.321 699.25>
LayerCount: 2
Fore
SplineSet
229.25 0 m 1
 -0.25 731.0078125 l 1
 202.375 731.0078125 l 1
 353.606445312 191.694335938 l 1
 496.625 731.0078125 l 1
 699.25 731.0078125 l 1
 479.75 0 l 1
 229.25 0 l 1
EndSplineSet
EndChar

StartChar: D
Encoding: 68 68 5
Width: 727
Flags: W
HStem: 0 168.727<244.75 413.934> 562.275 168.733<244.75 412.304>
VStem: 49.75 195<168.727 562.275> 502.179 195.849<257.138 472.265>
LayerCount: 2
Fore
SplineSet
49.75 0 m 1
 49.75 731.0078125 l 1
 324.138671875 731.0078125 l 2
 520.859624971 731.0078125 698.02734375 631.206054688 698.02734375 364.561523438 c 0
 698.02734375 97.9169921876 519.708235806 -2.2006008127e-14 324.138671875 0 c 2
 49.75 0 l 1
244.75 562.275099959 m 1
 244.75 168.727282591 l 1
 294.138671875 168.836914062 l 2
 413.241495255 168.956017884 502.178710938 204.030883862 502.178710938 364.561523438 c 0
 502.178710938 525.223677887 413.241492859 562.057504484 294.138671875 562.170898438 c 2
 244.75 562.275099959 l 1
EndSplineSet
EndChar

StartChar: U
Encoding: 85 85 6
Width: 719
Flags: W
HStem: -9.99805 170.837<284.57 431.208> 711.008 20G<49.75 244.75 471.027 666.027>
VStem: 49.75 195<198.431 731.008> 471.027 195<198.431 731.008>
LayerCount: 2
Fore
SplineSet
357.888671875 -9.998046875 m 0
 127.767725687 -9.998046875 49.75 102.375640235 49.75 274.561523438 c 2
 49.75 731.0078125 l 1
 244.75 731.0078125 l 1
 244.75 304.561523438 l 2
 244.75 218.377727186 260.349045342 160.838867188 357.888671875 160.838867188 c 0
 455.428298408 160.838867188 471.02734375 218.377727186 471.02734375 304.561523438 c 2
 471.02734375 731.0078125 l 1
 666.02734375 731.0078125 l 1
 666.02734375 274.561523438 l 2
 666.02734375 102.375640235 588.009618064 -9.998046875 357.888671875 -9.998046875 c 0
EndSplineSet
EndChar

StartChar: L
Encoding: 76 76 7
Width: 568
Flags: W
HStem: 0 164.375<244.75 544> 711.008 20G<49.75 244.75>
VStem: 49.75 195<164.375 731.008>
LayerCount: 2
Fore
SplineSet
244.75 164.375 m 1
 544 164.375 l 1
 544 0 l 1
 49.75 0 l 1
 49.75 731.0078125 l 1
 244.75 731.0078125 l 1
 244.75 164.375 l 1
EndSplineSet
EndChar

StartChar: F
Encoding: 70 70 8
Width: 574
Flags: W
HStem: 0 21G<49.75 244.75> 256.6 162.275<150.25 489.25> 566.633 164.375<244.75 549.25>
VStem: 49.75 195<0 256.6 418.875 566.633> 150.25 94.5<256.6 418.875>
LayerCount: 2
Fore
SplineSet
489.25 256.600097656 m 1xe8
 150.25 256.600097656 l 1
 150.25 418.875 l 1
 489.25 418.875 l 1
 489.25 256.600097656 l 1xe8
244.75 566.6328125 m 1xf0
 244.75 0 l 1
 49.75 0 l 1
 49.75 731.0078125 l 1
 549.25 731.0078125 l 1
 549.25 566.6328125 l 1
 244.75 566.6328125 l 1xf0
EndSplineSet
EndChar

StartChar: C
Encoding: 67 67 9
Width: 667
Flags: W
HStem: -9.99805 175.837<320.6 548.997> 563.284 175.837<322.71 533.834>
VStem: 31.275 200.224<258.458 470.606>
LayerCount: 2
Fore
SplineSet
31.275 360.561523438 m 0
 31.275 589.626439045 166.96134967 739.12109375 405.888671875 739.12109375 c 0
 571.571008916 739.12109375 639.681640625 675.891601562 639.681640625 675.891601562 c 1
 580.48046875 512.913574219 l 1
 580.48046875 512.913574219 529.088861271 563.284179688 424.888671875 563.284179688 c 0
 289.417750558 563.284179688 231.498535156 482.124877176 231.498535156 360.561523438 c 0
 231.498535156 243.795397832 289.417750558 165.838867188 424.888671875 165.838867188 c 0
 536.601116953 165.838867188 595.768554688 211.970703125 595.768554688 211.970703125 c 1
 642.827148438 44.595703125 l 1
 642.827148438 44.595703125 570.452460077 -9.998046875 405.888671875 -9.998046875 c 0
 166.96134967 -9.998046875 31.275 136.337376545 31.275 360.561523438 c 0
EndSplineSet
Substitution2: "'ss12' Style Set 12 lookup 13-1" C.ss12
EndChar

StartChar: E
Encoding: 69 69 10
Width: 579
Flags: W
HStem: 0 164.375<244.75 554.25> 284.125 161.75<150.25 494.25> 566.633 164.375<244.75 554.25>
VStem: 150.25 94.5<284.125 445.875>
LayerCount: 2
Fore
SplineSet
494.25 284.125 m 1
 150.25 284.125 l 1
 150.25 445.875 l 1
 494.25 445.875 l 1
 494.25 284.125 l 1
244.75 566.6328125 m 1
 244.75 164.375 l 1
 554.25 164.375 l 1
 554.25 0 l 1
 49.75 0 l 1
 49.75 731.0078125 l 1
 554.25 731.0078125 l 1
 554.25 566.6328125 l 1
 244.75 566.6328125 l 1
EndSplineSet
EndChar

StartChar: N
Encoding: 78 78 11
Width: 719
Flags: W
HStem: 0 21G<49.75 225.55 468.819 669.25> 711.008 20G<49.75 250.58 493.45 669.25>
VStem: 49.75 175.8<0 408.255> 493.45 175.8<335.35 731.008>
LayerCount: 2
Fore
SplineSet
49.75 0 m 1
 49.75 731.0078125 l 1
 237.65 731.0078125 l 1
 493.45 335.349609375 l 1
 493.45 731.0078125 l 1
 669.25 731.0078125 l 1
 669.25 0 l 1
 481.35 0 l 1
 225.55 408.254882812 l 1
 225.55 0 l 1
 49.75 0 l 1
EndSplineSet
EndChar

StartChar: M
Encoding: 77 77 12
Width: 830
Flags: W
HStem: 0 21G<49.75 244.75 585.25 780.25> 711.008 20G<49.75 269.753 560.247 780.25>
VStem: 49.75 195<0 384.505> 585.25 195<0 384.505>
LayerCount: 2
Fore
SplineSet
49.75 0 m 1
 49.75 731.0078125 l 1
 259.75 731.0078125 l 1
 415 420.599609375 l 1
 570.25 731.0078125 l 1
 780.25 731.0078125 l 1
 780.25 0 l 1
 585.25 0 l 1
 585.25 384.504882812 l 1
 465 159.75 l 1
 365 159.75 l 1
 244.75 384.504882812 l 1
 244.75 0 l 1
 49.75 0 l 1
EndSplineSet
EndChar

StartChar: G
Encoding: 71 71 13
Width: 789
Flags: W
HStem: -9.99805 170.837<313.02 493.327> 278.125 148.75<406 517.969 698.077 769.25> 278.125 15.9707<517.969 698.077> 568.284 170.837<321.922 546.621>
VStem: 29.75 195.224<252.757 474.291> 527.856 182.826<192.567 277.573>
LayerCount: 2
Fore
SplineSet
769.25 278.125 m 1xdc
 406 278.125 l 1
 406 426.875 l 1
 769.25 426.875 l 1
 769.25 278.125 l 1xdc
29.75 364.561523438 m 0
 29.75 591.206054688 173.208783335 739.12109375 408.888671875 739.12109375 c 0
 581.214801148 739.12109375 652.056640625 677.616699219 652.056640625 677.616699219 c 1
 595.48046875 521.488769531 l 1
 595.48046875 521.488769531 537.813205602 568.284179688 420.888671875 568.284179688 c 0
 283.649041706 568.284179688 224.973632812 486.724530693 224.973632812 364.561523438 c 0
 224.973632812 242.398516182 273.763163176 160.838867188 407.038671875 160.838867188 c 0
 493.324633627 160.838867188 527.856445312 196.440091762 527.856445312 249.875 c 0
 527.856445312 280.803092444 517.96875 294.095703125 517.96875 294.095703125 c 1
 698.077148438 294.095703125 l 1xbc
 698.077148438 294.095703125 710.682617188 276.037960351 710.682617188 217 c 0
 710.682617188 90.8642486282 610.658194179 -9.998046875 399.888671875 -9.998046875 c 0
 164.128666216 -9.998046875 29.75 137.916992188 29.75 364.561523438 c 0
EndSplineSet
Substitution2: "'ss12' Style Set 12 lookup 13-1" G.ss12
Substitution2: "'ss08' Style Set 8 lookup 9-1" G.ss08
EndChar

StartChar: A
Encoding: 65 65 14
Width: 719
Flags: W
HStem: 0 21G<-0.25 208.328 510.352 719.25> 127 154.375<162 556> 711.008 20G<247.53 461.743>
LayerCount: 2
Fore
SplineSet
556 127 m 1
 162 127 l 1
 162 281.375 l 1
 556 281.375 l 1
 556 127 l 1
454.5 731.0078125 m 1
 719.25 0 l 1
 516.625 0 l 1
 355.393554688 514.063476562 l 1
 202.375 0 l 1
 -0.25 0 l 1
 254.5 731.0078125 l 1
 454.5 731.0078125 l 1
EndSplineSet
EndChar

StartChar: P
Encoding: 80 80 15
Width: 655
Flags: W
HStem: 0 21G<49.75 244.75> 234 160.727<174.25 407.619> 566.274 164.733<244.75 407.864>
VStem: 49.75 195<0 234 394.727 566.274> 174.25 70.5<234 394.727> 435.179 195.849<421.895 538.303>
LayerCount: 2
Fore
SplineSet
174.25 234 m 1xec
 174.25 394.7265625 l 1xec
 327.138671875 394.836914062 l 2
 388.991482463 394.93027505 435.178710938 410.071561116 435.178710938 479.561523438 c 0
 435.178710938 549.977457818 388.99148931 566.082491181 327.138671875 566.170898438 c 2
 244.75 566.274414062 l 1
 244.75 0 l 1
 49.75 0 l 1
 49.75 731.0078125 l 1xf4
 354.138671875 731.0078125 l 2
 499.823223267 731.0078125 631.02734375 662.526339517 631.02734375 479.561523438 c 0
 631.02734375 299.954973924 498.970545343 234 354.138671875 234 c 2
 174.25 234 l 1xec
EndSplineSet
EndChar

StartChar: R
Encoding: 82 82 16
Width: 660
Flags: W
HStem: 0 21G<49.75 244.75 445.545 650> 247.6 155.577<174.25 377.305> 566.799 164.208<244.75 379.352>
VStem: 49.75 195<0 247.6 403.177 566.799> 174.25 70.5<247.6 403.177> 409.679 201.099<428.118 542.066>
LayerCount: 2
Back
SplineSet
124 383.3515625 m 1xec
 300.888671875 383.461914062 l 2
 383.403259307 383.509014034 462.928710938 404.697396723 462.928710938 501.561523438 c 0
 462.928710938 596.672668425 383.403268044 618.487535435 300.888671875 618.545898438 c 2
 184 618.649414062 l 1
 184 0 l 1
 55 0 l 1
 55 731.0078125 l 1xf4
 308.888671875 731.0078125 l 2
 457.204101562 731.0078125 590.77734375 670.696715458 590.77734375 509.561523438 c 4
 590.77734375 364.195131811 466.688476562 330.276367188 466.688476562 330.276367188 c 1
 466.688476562 330.276367188 540.174524344 311.767586577 573.702148438 195.399414062 c 2
 630 0 l 1
 492 0 l 1
 447 165 l 2
 420.732434887 256.417062766 391.813913829 266 270 266 c 2
 124 266 l 1
 124 383.3515625 l 1xec
EndSplineSet
Fore
SplineSet
174.25 403.176757812 m 1xec
 297.388671875 403.287109375 l 2
 361.674560091 403.315941343 409.678710938 417.856103709 409.678710938 484.311523438 c 0
 409.678710938 551.291946654 361.67456006 566.650112982 297.388671875 566.695800781 c 2
 244.75 566.799316406 l 1
 244.75 0 l 1
 49.75 0 l 1
 49.75 731.0078125 l 1xf4
 323.638671875 731.0078125 l 2
 474.716383567 731.0078125 610.77734375 669.334960938 610.77734375 504.561523438 c 0
 610.77734375 360.600992167 495.938476562 325.776367188 495.938476562 325.776367188 c 1
 495.938476562 325.776367188 561.593216975 306.844320607 596.901367188 184.295971679 c 2
 650 0 l 1
 451 0 l 1
 406 165 l 2
 382.921736532 241.19944411 366.325479536 247.600097656 278.75 247.600097656 c 2
 174.25 247.600097656 l 1
 174.25 403.176757812 l 1xec
EndSplineSet
Substitution2: "'ss01' Style Set 1 lookup 2-1" R.ss01
EndChar

StartChar: T
Encoding: 84 84 17
Width: 614
Flags: W
HStem: 0 21G<209.5 404.5> 566.625 164.375<24.75 209.5 404.5 589.25> 566.625 134.375<209.5 404.5>
VStem: 209.5 195<0 701>
LayerCount: 2
Fore
SplineSet
589.25 566.625 m 1xd0
 24.75 566.625 l 1
 24.75 731 l 1
 589.25 731 l 1
 589.25 566.625 l 1xd0
209.5 0 m 1
 209.5 701 l 1
 404.5 701 l 1xb0
 404.5 0 l 1
 209.5 0 l 1
EndSplineSet
EndChar

StartChar: Q
Encoding: 81 81 18
Width: 856
Flags: W
HStem: -9.99805 170.837<313.101 647.092 693.688 801.86> 568.284 170.837<310.823 493.405>
VStem: 29.75 191.374<254.832 474.291> 576.654 193.374<254.579 477.359>
LayerCount: 2
Fore
SplineSet
29.75 364.561523438 m 0
 29.75 591.206054687 171.316879475 739.12109375 403.888671875 739.12109375 c 0
 631.48751045 739.12109375 770.02734375 589.104132899 770.02734375 384.561523438 c 0
 770.02734375 228.401134076 693.688476562 162.473632812 693.688476562 162.473632812 c 1
 750.930555144 163.65625078 822.138671875 176.876953125 822.138671875 176.876953125 c 1
 837.138671875 19.001953125 l 1
 837.138671875 19.001953125 734.425125144 -9.998046875 469.5 -9.998046875 c 0
 165.058943111 -9.998046875 29.75 137.916992188 29.75 364.561523438 c 0
221.123535156 364.561523438 m 0
 221.123535156 242.398516182 279.443552084 160.838867188 403.888671875 160.838867188 c 0
 521.524773161 160.838867188 576.653808594 242.398516182 576.653808594 364.561523438 c 0
 576.653808594 486.724530693 521.524773161 568.284179688 403.888671875 568.284179688 c 0
 279.443552084 568.284179688 221.123535156 486.724530693 221.123535156 364.561523438 c 0
EndSplineSet
Substitution2: "'ss10' Style Set 10 lookup 11-1" Q.ss10
Substitution2: "'ss09' Style Set 9 lookup 10-1" Q.ss09
EndChar

StartChar: B
Encoding: 66 66 19
Width: 640
Flags: W
HStem: 0 159.835<244.875 396.177> 292.556 145.896<171.75 377.455> 571.274 159.733<244.875 374.716>
VStem: 171.75 73.125<292.556 438.452> 394.054 197.974<455.31 553.576> 417.054 197.974<178.532 275.6>
LayerCount: 2
Fore
SplineSet
491.412109375 376.4375 m 1xf8
 491.412109375 376.4375 615.02734375 352.692977952 615.02734375 204.946289062 c 0xf4
 615.02734375 55.8171838987 490.447709119 -1.53349555277e-14 351.138671875 0 c 2
 49.75 0 l 1
 49.75 731.0078125 l 1
 330.138671875 731.0078125 l 2
 467.9309962 731.0078125 592.02734375 676.282164855 592.02734375 526.061523438 c 0
 592.02734375 405.193390876 491.412109375 376.4375 491.412109375 376.4375 c 1xf8
244.875 159.834980469 m 1
 310.513671875 159.836914062 l 2
 371.442155799 159.837859968 417.053710938 171.243460438 417.053710938 227.946289062 c 0xf4
 417.053710938 279.496600383 375.996339048 292.366403369 321.013671875 292.445800781 c 2
 171.75 292.556152344 l 1
 171.75 438.451660156 l 1
 299.013671875 438.562011719 l 2
 353.423895694 438.68019983 394.053710938 450.362006005 394.053710938 504.186523438 c 0xf8
 394.053710938 558.646633514 353.424034839 571.123547483 299.013671875 571.170898438 c 2
 244.875 571.274414062 l 1
 244.875 159.834980469 l 1
EndSplineSet
EndChar

StartChar: J
Encoding: 74 74 20
Width: 432
Flags: W
HStem: -10 160.5<23.0285 252.104> 566.633 164.375<50 192.5>
VStem: 192.5 195<165.504 566.633>
LayerCount: 2
Fore
SplineSet
118 150.5 m 0
 170.45192871 150.5 192.5 172.097982752 192.5 222.75 c 2
 192.5 566.6328125 l 1
 50 566.6328125 l 1
 50 731.0078125 l 1
 387.5 731.0078125 l 1
 387.5 206.5 l 2
 387.5 76.6664643162 325.068965517 -10 174.5 -10 c 0
 77.258142983 -10 10 10 10 10 c 1
 24 165.5 l 1
 24 165.5 63.1716684195 150.5 118 150.5 c 0
EndSplineSet
EndChar

StartChar: K
Encoding: 75 75 21
Width: 669
Flags: W
HStem: 0 21G<49.75 244.75 418.006 669.25> 338 33<146 308> 711.008 20G<49.75 244.75 416.008 659.25>
VStem: 49.75 195<0 311 401 731.008> 210.75 34<311 401>
LayerCount: 2
Fore
SplineSet
146 371 m 1xe0
 308 371 l 1
 308 338 l 1
 146 338 l 1
 146 371 l 1xe0
432.25 0 m 1
 210.75 311 l 1
 210.75 401 l 1xe8
 429.25 731.0078125 l 1
 659.25 731.0078125 l 1
 391.75 372 l 1
 669.25 0 l 1
 432.25 0 l 1
49.75 0 m 1xf0
 49.75 731.0078125 l 1
 244.75 731.0078125 l 1
 244.75 0 l 1
 49.75 0 l 1xf0
EndSplineSet
EndChar

StartChar: S
Encoding: 83 83 22
Width: 591
Flags: W
HStem: -10 165.837<127.763 342.723> 572.284 166.837<251.917 452.07>
VStem: 39.627 197.937<476.916 557.262> 359.463 202.307<172.515 249.386>
LayerCount: 2
Fore
SplineSet
272.8828125 273.515625 m 0
 93.7014165359 321.926345554 39.626953125 396.382499597 39.626953125 513.85 c 0
 39.626953125 650.881364812 143.627347074 739.12109375 314.483398438 739.12109375 c 0
 465.703242556 739.12109375 539.245117188 688.891601562 539.245117188 688.891601562 c 1
 496.87109375 529.763671875 l 1
 496.87109375 529.763671875 432.533228159 572.284179688 331.61328125 572.284179688 c 0
 266.737599675 572.284179688 237.563476562 553.400333652 237.563476562 517.75 c 0
 237.563476562 487.338420349 254.046489476 470.361382936 317.422070312 454.581054688 c 0
 514.546340894 405.479001146 561.76953125 335.482308429 561.76953125 216.2 c 0
 561.76953125 76.7961702913 464.994447463 -10 283.8046875 -10 c 0
 126.975238464 -10 27.56640625 42.2294921875 27.56640625 42.2294921875 c 1
 64.72265625 204.357421875 l 1
 64.72265625 204.357421875 148.592945471 155.836914062 256.196289062 155.836914062 c 0
 326.156031193 155.836914062 359.462890625 174.771965281 359.462890625 211.5 c 0
 359.462890625 242.951909628 345.504451669 253.889640802 272.8828125 273.515625 c 0
EndSplineSet
EndChar

StartChar: W
Encoding: 87 87 23
Width: 949
Flags: W
HStem: 0 21G<144.187 402.474 541.05 798.977> 711.008 20G<-0.25 209.558 744.424 949.25>
LayerCount: 2
Fore
SplineSet
148.25 0 m 1
 -0.25 731.0078125 l 1
 206.575 731.0078125 l 1
 284.806445312 206.444335938 l 1
 391.325 671.0078125 l 1
 560.825 671.0078125 l 1
 662.406445312 206.444335938 l 1
 747.675 731.0078125 l 1
 949.25 731.0078125 l 1
 794.75 0 l 1
 545 0 l 1
 476.075 349.021484375 l 1
 398 0 l 1
 148.25 0 l 1
EndSplineSet
EndChar

StartChar: X
Encoding: 88 88 24
Width: 689
Flags: W
HStem: 0 21G<4.75 239.959 449.041 684.25> 711.008 20G<14.75 242.138 446.862 674.25>
VStem: 287.4 114.2<311 401>
LayerCount: 2
Fore
SplineSet
228.85 0 m 1
 4.75 0 l 1
 225.5 372 l 1
 14.75 731.0078125 l 1
 231.85 731.0078125 l 1
 401.6 401 l 1
 401.6 311 l 1
 228.85 0 l 1
460.15 0 m 1
 287.4 311 l 1
 287.4 401 l 1
 457.15 731.0078125 l 1
 674.25 731.0078125 l 1
 463.5 372 l 1
 684.25 0 l 1
 460.15 0 l 1
EndSplineSet
EndChar

StartChar: Y
Encoding: 89 89 25
Width: 689
Flags: W
HStem: 0 21G<244.5 444.5> 271.5 120<255.5 433.5> 711.008 20G<14.75 236.373 452.627 674.25>
VStem: 244.5 200<0 391.5>
LayerCount: 2
Fore
SplineSet
255.5 271.5 m 1
 14.75 731.0078125 l 1
 227.375 731.0078125 l 1
 344.5 470.666015625 l 1
 461.625 731.0078125 l 1
 674.25 731.0078125 l 1
 433.5 271.5 l 1
 255.5 271.5 l 1
244.5 0 m 1
 244.5 391.5 l 1
 444.5 391.5 l 1
 444.5 0 l 1
 244.5 0 l 1
EndSplineSet
EndChar

StartChar: Z
Encoding: 90 90 26
Width: 594
Flags: W
HStem: 0 164.375<281.25 569.25> 566.625 164.375<34.75 312.75>
LayerCount: 2
Fore
SplineSet
569.25 0 m 1
 24.75 0 l 1
 24.75 96 l 1
 312.75 566.625 l 1
 34.75 566.625 l 1
 34.75 731 l 1
 559.25 731 l 1
 559.25 625 l 1
 281.25 164.375 l 1
 569.25 164.375 l 1
 569.25 0 l 1
EndSplineSet
EndChar

StartChar: ampersand
Encoding: 38 38 27
Width: 754
Flags: W
HStem: -10 163.205<549.437 732.372> -10 148.743<224.825 346.513> 581.862 157.13<351.815 497.99>
VStem: 29.75 173.137<160.486 264.012> 141.051 184.376<455.716 558.384>
LayerCount: 2
Fore
SplineSet
296.517578125 454.071289062 m 1x70
 346.541796875 345.463867188 l 0
 346.541796875 345.463867188 202.886718752 298.303365708 202.88671875 209.25 c 0
 202.88671875 167.651651386 235.107701358 138.742675781 286.600585938 138.742675781 c 0
 361.48223997 138.742675781 472.49510177 223.080727947 521.774902344 461.754882812 c 1
 689.437988281 414.5546875 l 1
 598.586850937 112.286432595 436.484160919 -10 265.928710938 -10 c 0
 116.417116823 -10 29.75 70.9521484375 29.75 188.185546875 c 0
 29.75 382.843913681 296.517578125 454.071289062 296.517578125 454.071289062 c 1x70
742.451171875 4.5546875 m 1
 742.451171875 4.5546875 709.497368623 -10 620.75 -10 c 0
 472.154386073 -10 389.866177402 67.4552761253 314.45 156 c 0
 208.978710477 279.976751304 141.05078125 427.991299629 141.05078125 527 c 0
 141.05078125 667.136049587 234.57438694 738.9921875 389.672460938 738.9921875 c 0
 482.883068316 738.9921875 539.825390625 703.649414062 539.825390625 703.649414062 c 1
 501.520507812 557.998535156 l 1
 501.520507812 557.998535156 469.5212935 581.86171875 416.234252931 581.86171875 c 0
 354.650866188 581.86171875 325.426757812 552.973851969 325.426757812 490.5 c 0
 325.426757812 434.151292686 350.318564561 346.962318264 437.4375 248 c 0
 485.124002475 193.7782239 545.064800302 153.204589844 636.26171875 153.204589844 c 0xa8
 696.91885416 153.204589844 731.62890625 162.4546875 731.62890625 162.4546875 c 1
 742.451171875 4.5546875 l 1
EndSplineSet
EndChar

StartChar: i
Encoding: 105 105 28
Width: 269
Flags: W
HStem: 0 21G<44.5 224.5> 481.011 20G<44.5 224.5> 553.051 207.449<66.6174 202.382>
VStem: 31.3867 206.227<588.491 725.06> 44.5 180<0 501.011>
LayerCount: 2
Fore
SplineSet
44.5 0 m 1xe8
 44.5 501.010742188 l 1
 224.5 501.010742188 l 1
 224.5 0 l 1
 44.5 0 l 1xe8
31.38671875 656.775390625 m 0xf0
 31.38671875 719.613435997 72.0309599448 760.5 134.499023438 760.5 c 0
 196.968029672 760.5 237.61328125 719.613435997 237.61328125 656.775390625 c 0
 237.61328125 593.936209986 196.968029672 553.05078125 134.499023438 553.05078125 c 0
 72.0309599448 553.05078125 31.38671875 593.936209986 31.38671875 656.775390625 c 0xf0
EndSplineSet
EndChar

StartChar: o
Encoding: 111 111 29
Width: 589
Flags: W
HStem: -9.99805 156.112<235.567 353.112> 354.634 156.299<234.827 353.903>
VStem: 31.85 175.849<175.212 325.441> 382.079 175.849<176.081 324.622>
LayerCount: 2
Fore
SplineSet
207.698632812 253.561523438 m 0
 207.698632812 189.130158504 233.512045651 146.113867188 293.888671875 146.113867188 c 0
 355.666309791 146.113867188 382.078710938 189.130158504 382.078710938 253.561523438 c 0
 382.078710938 314.170097202 355.699651914 354.634179688 294 354.634179688 c 0
 233.545387774 354.634179688 207.698632812 314.170097202 207.698632812 253.561523438 c 0
31.85 253.561523438 m 0
 31.85 409.296356709 131.000394941 510.93359375 293.888671875 510.93359375 c 0
 458.020187265 510.93359375 557.92734375 409.296356709 557.92734375 253.561523438 c 0
 557.92734375 94.0826581126 458.020187265 -9.998046875 293.888671875 -9.998046875 c 0
 131.000394941 -9.998046875 31.85 94.0826581126 31.85 253.561523438 c 0
EndSplineSet
EndChar

StartChar: n
Encoding: 110 110 30
Width: 595
Flags: W
HStem: 0 21G<49.75 229.75 366.027 546.027> 366.909 144.024<269.107 426.281> 481.011 20G<49.75 229.75>
VStem: 49.75 180<0 501.011> 366.027 180<0 347.742>
LayerCount: 2
Fore
SplineSet
229.75 289 m 1xd8
 175 298.561523438 l 1
 195.71567301 445.539608875 244.837062777 510.93359375 367.25 510.93359375 c 0
 485.31226382 510.93359375 546.02734375 444.084682028 546.02734375 304.561523438 c 2
 546.02734375 0 l 1
 366.02734375 0 l 1
 366.02734375 292.561523438 l 2
 366.02734375 339.658291718 346.044424294 366.909179688 299 366.909179688 c 0
 250.489970169 366.909179688 229.75 335.718513585 229.75 289 c 1xd8
49.75 0 m 1
 49.75 501.010742188 l 1
 229.75 501.010742188 l 1xb8
 229.75 0 l 1
 49.75 0 l 1
EndSplineSet
EndChar

StartChar: m
Encoding: 109 109 31
Width: 882
Flags: W
HStem: 0 21G<49.75 229.75 351.277 531.277 652.805 832.805> 366.909 144.024<265.174 416.471 555.959 717.998> 481.011 20G<49.75 229.75>
VStem: 49.75 180<0 501.011> 351.277 180<0 343.324> 652.805 180<0 355.65>
CounterMasks: 1 1c
LayerCount: 2
Fore
SplineSet
531.27734375 289 m 1xdc
 455.52734375 298.561523438 l 1
 477.711162637 445.539608875 530.313847257 510.93359375 661.40234375 510.93359375 c 0
 774.594252203 510.93359375 832.8046875 447.323924219 832.8046875 314.561523438 c 2
 832.8046875 0 l 1
 652.8046875 0 l 1
 652.8046875 302.561523438 l 2
 652.8046875 343.323624204 634.237889616 366.909179688 590.52734375 366.909179688 c 0
 549.022372378 366.909179688 531.27734375 335.718513584 531.27734375 289 c 1xdc
229.75 289 m 1
 175 298.561523438 l 1
 194.920988545 445.539608875 242.158007703 510.93359375 359.875 510.93359375 c 0
 473.066908453 510.93359375 531.27734375 448.943545314 531.27734375 319.561523438 c 2
 531.27734375 0 l 1
 351.27734375 0 l 1
 351.27734375 302.561523438 l 2
 351.27734375 343.323624204 332.710545866 366.909179688 289 366.909179688 c 0
 247.495028628 366.909179688 229.75 335.718513585 229.75 289 c 1
49.75 0 m 1
 49.75 501.010742188 l 1
 229.75 501.010742188 l 1xbc
 229.75 0 l 1
 49.75 0 l 1
EndSplineSet
EndChar

StartChar: p
Encoding: 112 112 32
Width: 602
Flags: W
HStem: -9.99805 148.537<251.51 362.595> 363.209 147.725<262.907 364.451> 481.011 20G<49.75 229.75>
VStem: 49.75 180<-180 501.011> 141.901 87.8486<66.4394 183.562> 166.901 62.8486<283.562 425.747> 393.08 181.099<169.171 331.822>
LayerCount: 2
Fore
SplineSet
49.75 -180 m 1xb2
 49.75 501.010742188 l 1
 229.75 501.010742188 l 1
 229.75 -180 l 1
 49.75 -180 l 1xb2
229.75 213.561523438 m 1
 229.75 177.011022918 252.808125117 138.5390625 306.740234375 138.5390625 c 0
 367.221799658 138.5390625 393.080078125 184.587900235 393.080078125 253.561523438 c 0
 393.080078125 319.312008988 367.255141781 363.208984375 306.8515625 363.208984375 c 0
 252.841467239 363.208984375 229.75 331.322403486 229.75 283.561523438 c 1xd2
 166.901367188 283.561523438 l 1xc6
 166.901367188 425.746590474 239.082025237 510.93359375 350.25 510.93359375 c 0
 492.490588621 510.93359375 574.178710938 409.296356709 574.178710938 253.561523438 c 0
 574.178710938 94.082658113 488.706780902 -9.998046875 348.290039062 -9.998046875 c 0
 219.99487217 -9.998046875 141.901367188 66.4393843717 141.901367188 183.561523438 c 1xca
 229.75 213.561523438 l 1
EndSplineSet
EndChar

StartChar: j
Encoding: 106 106 33
Width: 269
Flags: W
HStem: -190 148.975<-89.9413 27.2734> 481.011 20G<44.5 224.5> 553.051 207.449<66.6174 202.382>
VStem: 31.3867 206.227<588.491 725.06> 44.5 180<-23.6724 501.011>
LayerCount: 2
Fore
SplineSet
44.5 41.45 m 2xe8
 44.5 501.010742188 l 1
 224.5 501.010742188 l 1
 224.5 36.75 l 2
 224.5 -99.7298578199 162.14224138 -190 11.75 -190 c 0
 -53.7183019126 -190 -99 -175.049804688 -99 -175.049804688 c 1
 -89 -30.55 l 1
 -89 -30.55 -62.6737217829 -41.025 -25.825 -41.025 c 0
 23.6875085449 -41.025 44.5 -16.1831325302 44.5 41.45 c 2xe8
31.38671875 656.775390625 m 0xf0
 31.38671875 719.613435997 72.0309599448 760.5 134.499023438 760.5 c 0
 196.968029672 760.5 237.61328125 719.613435997 237.61328125 656.775390625 c 0
 237.61328125 593.936209986 196.968029672 553.05078125 134.499023438 553.05078125 c 0
 72.0309599448 553.05078125 31.38671875 593.936209986 31.38671875 656.775390625 c 0xf0
EndSplineSet
EndChar

StartChar: k
Encoding: 107 107 34
Width: 555
Flags: W
HStem: 0 21G<49.75 229.75 332.403 565.75> 205.75 100.5<139.5 224> 481.011 20G<328.604 555.75> 731.002 20G<49.75 229.75>
VStem: 49.75 180<0 205.75 306.25 751.002> 139.5 90.25<205.75 306.25>
LayerCount: 2
Fore
SplineSet
224 306.25 m 1xf4
 224 205.75 l 1
 139.5 205.75 l 1
 139.5 306.25 l 1
 224 306.25 l 1xf4
344.075195312 0 m 1
 224 205.75 l 1
 224 306.25 l 1
 340.575195312 501.010742188 l 1
 555.75 501.010742188 l 1
 376.5 265.674804688 l 1
 565.75 0 l 1
 344.075195312 0 l 1
49.75 0 m 1xf8
 49.75 751.001953125 l 1
 229.75 751.001953125 l 1
 229.75 0 l 1
 49.75 0 l 1xf8
EndSplineSet
EndChar

StartChar: l
Encoding: 108 108 35
Width: 371
Flags: W
HStem: -10.0088 146.875<167.665 333.217> 731.002 20G<44.5 224.5>
VStem: 44.5 180<146.581 751.002>
LayerCount: 2
Fore
SplineSet
224.5 202.491210938 m 2
 224.5 156.632777202 241.073046875 136.866210938 280.5 136.866210938 c 0
 310.349360305 136.866210938 331.675 146.341210938 331.675 146.341210938 c 1
 345.675 4.4662109375 l 1
 345.675 4.4662109375 302.059423084 -10.0087890625 239 -10.0087890625 c 0
 101.508620689 -10.0087890625 44.5 62.247135108 44.5 171.491210938 c 2
 44.5 751.001953125 l 1
 224.5 751.001953125 l 1
 224.5 202.491210938 l 2
EndSplineSet
EndChar

StartChar: h
Encoding: 104 104 36
Width: 595
Flags: W
HStem: 0 21G<49.75 229.75 366.027 546.027> 366.909 144.024<269.107 426.281> 731.002 20G<49.75 229.75>
VStem: 49.75 180<0 751.002> 366.027 180<0 347.742>
LayerCount: 2
Fore
SplineSet
49.75 0 m 1
 49.75 751.001953125 l 1
 229.75 751.001953125 l 1
 229.75 0 l 1
 49.75 0 l 1
229.75 289 m 9
 175 298.561523438 l 17
 195.71567301 445.539608875 244.837062777 510.93359375 367.25 510.93359375 c 0
 485.31226382 510.93359375 546.02734375 444.084682028 546.02734375 304.561523438 c 2
 546.02734375 0 l 1
 366.02734375 0 l 1
 366.02734375 292.561523438 l 2
 366.02734375 339.658291718 346.044424294 366.909179688 299 366.909179688 c 0
 250.489970169 366.909179688 229.75 335.718513585 229.75 289 c 9
EndSplineSet
EndChar

StartChar: q
Encoding: 113 113 37
Width: 602
Flags: W
HStem: -9.99805 148.537<244.363 348.09> 363.209 147.724<242.509 339.857> 481.011 20G<377.25 557.25>
VStem: 32.8213 181.099<169.171 334.98> 377.25 180<-180 501.011> 377.25 57.3486<66.4394 183.562 288.562 427.62>
LayerCount: 2
Fore
SplineSet
557.25 -180 m 1xb8
 377.25 -180 l 1
 377.25 501.010742188 l 1
 557.25 501.010742188 l 1
 557.25 -180 l 1xb8
377.25 205.561523438 m 1
 434.598632812 183.561523438 l 1xd4
 434.598632812 66.4393843718 368.045741374 -9.998046875 258.709960938 -9.998046875 c 0
 118.293219098 -9.998046875 32.8212890625 94.0826581128 32.8212890625 253.561523438 c 0
 32.8212890625 409.296356709 114.509411379 510.93359375 256.75 510.93359375 c 0
 361.551612946 510.93359375 429.598632812 427.619885711 429.598632812 288.561523438 c 1
 377.25 280.561523438 l 1
 377.25 330.121481156 354.083717718 363.209179688 299.898632812 363.209179688 c 0xd8
 239.670043176 363.209179688 213.919921875 319.312126107 213.919921875 253.561523438 c 0
 213.919921875 184.587783115 239.703385298 138.538867188 300.009960938 138.538867188 c 0
 354.117059841 138.538867188 377.25 172.908480582 377.25 205.561523438 c 1
EndSplineSet
EndChar

StartChar: g
Encoding: 103 103 38
Width: 602
Flags: W
HStem: -190 141.7<148.306 349.468> 20.002 140.687<235.699 343.27> 363.434 147.499<238.208 338.546> 481.011 20G<377.25 557.25>
VStem: 32.8213 175.849<189.465 335.567> 377.25 180<-22.326 39 223.562 501.011> 377.25 57.3486<100.388 223.562 314.562 437.361>
LayerCount: 2
Fore
SplineSet
377.25 39 m 2xdc
 377.25 501.010742188 l 1
 557.25 501.010742188 l 1
 557.25 31 l 2
 557.25 -102.018957346 476.183762123 -190 290.8 -190 c 0
 153.508660144 -190 61.7 -144 61.7 -144 c 1
 99.9 -5.35 l 1
 99.9 -5.35 169.892785175 -48.3 270.8 -48.3 c 0
 342.789545899 -48.3 377.25 -22.0048192772 377.25 39 c 2xdc
377.25 235.561523438 m 1
 434.598632812 223.561523438 l 1xea
 434.598632812 100.388423477 366.717366426 20.001953125 253.709960938 20.001953125 c 0
 121.651315239 20.001953125 32.8212890625 115.39477208 32.8212890625 261.561523438 c 0
 32.8212890625 412.455587994 115.929061619 510.93359375 246.25 510.93359375 c 0
 358.011939532 510.93359375 429.598632812 437.361020944 429.598632812 314.561523438 c 1
 377.25 285.561523438 l 1
 377.25 332.258135614 350.89220511 363.434179688 294.848632812 363.434179688 c 0xec
 234.479942006 363.434179688 208.669921875 322.019274303 208.669921875 259.986523438 c 0
 208.669921875 200.442334665 235.711260745 160.688867188 298.959960938 160.688867188 c 0
 353.802590979 160.688867188 377.25 199.084006879 377.25 235.561523438 c 1
EndSplineSet
Substitution2: "'ss14' Style Set 14 lookup 19-1" g.ss14
EndChar

StartChar: f
Encoding: 102 102 39
Width: 398
Flags: W
HStem: 0 21G<84.5 264.5> 354.625 146.386<8.75 387.25> 621.611 139.4<277.619 409.638>
VStem: 84.5 180<0 608.131>
LayerCount: 2
Fore
SplineSet
8.75 501.010742188 m 1
 387.25 501.010742188 l 1
 387.25 354.625 l 1
 8.75 354.625 l 1
 8.75 501.010742188 l 1
264.5 546.510742188 m 2
 264.5 0 l 1
 84.5 0 l 1
 84.5 559.510742188 l 2
 84.5 680.792552049 145.318788171 761.010742188 292 761.010742188 c 0
 368.84765625 761.010742188 422 745.010742188 422 745.010742188 c 1
 408 610.610742188 l 1
 408 610.610742188 374.662109375 621.610742188 328 621.610742188 c 0
 283.292902766 621.610742188 264.5 598.989921341 264.5 546.510742188 c 2
EndSplineSet
EndChar

StartChar: c
Encoding: 99 99 40
Width: 492
Flags: W
HStem: -9.99805 152.362<248.533 410.499> 360.384 150.549<248.356 400.752>
VStem: 29.75 184.424<176.596 324.907>
LayerCount: 2
Fore
SplineSet
29.75 253.561523438 m 0
 29.75 409.296356709 119.105833038 510.93359375 287.263671875 510.93359375 c 0
 406.935671522 510.93359375 456.131835938 469.304199219 456.131835938 469.304199219 c 1
 419.880371094 325.226074219 l 1
 419.880371094 325.226074219 386.254359067 360.384277344 318.075195312 360.384277344 c 0
 245.291543381 360.384277344 214.173632812 317.618163482 214.173632812 253.561523438 c 0
 214.173632812 186.881399256 245.198243932 142.363769531 317.763671875 142.363769531 c 0
 388.126532467 142.363769531 425.393554688 173.095703125 425.393554688 173.095703125 c 1
 458.202148438 28.595703125 l 1
 458.202148438 28.595703125 398.305581031 -9.998046875 294.263671875 -9.998046875 c 0
 121.756700607 -9.998046875 29.75 94.0826581132 29.75 253.561523438 c 0
EndSplineSet
Substitution2: "'ss12' Style Set 12 lookup 13-1" c.ss12
EndChar

StartChar: t
Encoding: 116 116 41
Width: 412
Flags: W
HStem: -10 145.875<273.665 371.3> 354.1 146.911<8.75 387.25>
VStem: 84.5 180<146.17 649.961>
LayerCount: 2
Fore
SplineSet
8.75 501.010742188 m 1
 387.25 501.010742188 l 1
 387.25 354.1 l 1
 8.75 354.1 l 1
 8.75 501.010742188 l 1
264.5 196.75 m 2
 264.5 154.211118097 281.724419078 135.875 322.700195312 135.875 c 0
 346.483508035 135.875 369.575195312 146.875 369.575195312 146.875 c 1
 384.625 6 l 1
 384.625 6 342.665313251 -10 282 -10 c 0
 121.264767582 -10 84.5 64.3461389991 84.5 176.75 c 2
 84.5 649.960742188 l 1
 264.5 672.060742188 l 1
 264.5 196.75 l 2
EndSplineSet
Substitution2: "'ss11' Style Set 11 lookup 12-1" t.ss11
EndChar

StartChar: r
Encoding: 114 114 42
Width: 420
Flags: W
HStem: 0 21G<49.75 229.75> 350.284 160.649<259.518 400.677> 481.011 20G<49.75 229.75>
VStem: 49.75 180<0 501.011>
LayerCount: 2
Fore
SplineSet
49.75 0 m 1xb0
 49.75 501.010742188 l 1
 229.75 501.010742188 l 1
 229.75 0 l 1
 49.75 0 l 1xb0
342.5 510.93359375 m 0xd0
 405.388923924 510.93359375 423.3 484.93359375 423.3 484.93359375 c 1
 397.3 328.93359375 l 1
 397.3 328.93359375 366.014645497 350.284179688 318.25 350.284179688 c 0
 262.638687459 350.284179688 229.75 322.768238923 229.75 269 c 1
 175 278.561523438 l 1
 192.96029148 439.381173374 235.548069228 510.93359375 342.5 510.93359375 c 0xd0
EndSplineSet
EndChar

StartChar: e
Encoding: 101 101 43
Width: 551
Flags: W
HStem: -9.99805 149.687<243.609 442.317> 201.75 104.025<138.575 349.725> 373.559 137.375<229.183 330.092>
VStem: 138.575 65.4484<201.75 305.775>
LayerCount: 2
Back
SplineSet
24.5 273.561523438 m 4
 24.5 441.398278497 131.728824423 550.93359375 307.888671875 550.93359375 c 4
 512.753073582 550.93359375 576.965820312 407.32523614 576.965820312 265.111328125 c 4
 576.965820312 236.334960938 572.5 218.5 572.5 218.5 c 5
 140.150390625 218.5 l 5
 140.150390625 320.549804688 l 5
 373.450195312 322.650390625 l 5
 373.450195312 322.650390625 373.01953125 334.297851562 369.318359375 343.135742188 c 4
 357.820099302 375.150046292 339.850524508 395.833984375 297 395.833984375 c 4
 240.474411618 395.833984375 218.198242188 350.906181121 218.198242188 283.611328125 c 4
 218.198242188 199.512909247 251.59161836 154.9140625 336.650390625 154.9140625 c 4
 436.6712232 154.9140625 493.668945312 183.045898438 493.668945312 183.045898438 c 5
 526.827148438 16.5458984375 l 5
 526.827148438 16.5458984375 459.98874038 -9.998046875 343.888671875 -9.998046875 c 4
 123.238992165 -9.998046875 24.5 101.980736325 24.5 273.561523438 c 4
EndSplineSet
Fore
SplineSet
29.75 253.561523438 m 0
 29.75 409.296356709 127.424709931 510.93359375 287.888671875 510.93359375 c 0
 473.528750101 510.93359375 531.715820312 375.323984492 531.715820312 259.911132812 c 0
 531.715820312 224.004619768 527.25 201.75 527.25 201.75 c 1
 138.575195312 201.75 l 1
 138.575195312 305.774902344 l 1
 349.725097656 306.825195312 l 1
 349.725097656 306.825195312 349.312163197 315.713397379 346.323175171 324.567870869 c 0
 339.182201603 346.117890244 323.245931246 373.559082031 278.5 373.559082031 c 0
 225.834704047 373.559082031 204.023632812 329.331843434 204.023632812 263.086523438 c 0
 204.023632812 182.451183335 236.8106726 139.688867188 320.325 139.688867188 c 0
 407.605830889 139.688867188 457.343554688 167.820703125 457.343554688 167.820703125 c 1
 486.827148438 17.070703125 l 1
 486.827148438 17.070703125 427.295941065 -9.998046875 323.888671875 -9.998046875 c 0
 120.682955909 -9.998046875 29.75 94.0826581132 29.75 253.561523438 c 0
EndSplineSet
Substitution2: "'ss03' Style Set 3 lookup 4-1" e.ss03
EndChar

StartChar: d
Encoding: 100 100 44
Width: 602
Flags: W
HStem: -9.99805 147.725<243.491 342.007> 0 21G<377.25 557.25> 362.396 148.537<243.595 358.74> 731.002 20G<377.25 557.25>
VStem: 32.8213 181.099<167.663 330.299> 377.25 180<217.374 751.002> 377.25 73.0986<317.374 434.496> 377.25 62.8486<75.1885 217.374>
LayerCount: 2
Fore
SplineSet
557.25 0 m 1x7c
 377.25 0 l 1x79
 377.25 751.001953125 l 1
 557.25 751.001953125 l 1
 557.25 0 l 1x7c
377.25 295.374023438 m 1xbc
 377.25 328.027158544 354.154749272 362.396484375 300.134765625 362.396484375 c 0
 239.741102827 362.396484375 213.919921875 316.347906567 213.919921875 247.374023438 c 0
 213.919921875 181.623725205 239.707079813 137.7265625 300.0234375 137.7265625 c 0
 354.120720227 137.7265625 377.25 172.816102807 377.25 225.374023438 c 1xbc
 440.098632812 217.374023438 l 1xb9
 440.098632812 75.1884765624 366.047843348 -9.998046875 252 -9.998046875 c 0
 112.776980838 -9.998046875 32.8212890625 93.6141768934 32.8212890625 252.374023438 c 0
 32.8212890625 408.827065249 120.279461984 510.93359375 263.959960938 510.93359375 c 0
 379.822614722 510.93359375 450.348632812 434.49609375 450.348632812 317.374023438 c 1xba
 377.25 295.374023438 l 1xbc
EndSplineSet
Substitution2: "'ss05' Style Set 5 lookup 6-1" d.ss05
EndChar

StartChar: b
Encoding: 98 98 45
Width: 602
Flags: W
HStem: -9.99805 147.724<256.747 363.351> 0 21G<49.75 229.75> 362.397 148.537<255.008 362.983> 731.002 20G<49.75 229.75>
VStem: 49.75 180<197.374 751.002> 166.901 62.8486<55.1885 197.374 297.374 424.496> 393.08 181.099<170.001 330.834>
LayerCount: 2
Fore
SplineSet
49.75 0 m 1x7a
 49.75 751.001953125 l 1
 229.75 751.001953125 l 1x7a
 229.75 0 l 1x76
 49.75 0 l 1x7a
229.75 295.374023438 m 1
 161.901367188 297.374023438 l 1
 161.901367188 424.49609375 230.440882605 510.93359375 343.040039062 510.93359375 c 0
 486.720538016 510.93359375 574.178710938 406.852539062 574.178710938 247.374023438 c 0
 574.178710938 91.6396484377 494.405417562 -9.998046875 355.5 -9.998046875 c 0
 241.148996971 -9.998046875 166.901367188 55.1884765624 166.901367188 197.374023438 c 1xb6
 229.75 225.374023438 l 1
 229.75 172.815985688 252.130473728 137.726367188 304.476367188 137.726367188 c 0xba
 366.544136227 137.726367188 393.080078125 181.623608086 393.080078125 247.374023438 c 0
 393.080078125 316.348023688 366.510093455 362.396679688 304.365039062 362.396679688 c 0
 252.096466936 362.396679688 229.75 328.027253699 229.75 295.374023438 c 1
EndSplineSet
EndChar

StartChar: a
Encoding: 97 97 46
Width: 566
Flags: W
HStem: -9.99805 140.798<406.575 552.949> -9.99805 127.487<137.655 285.756> 213.234 96.6994<218.064 331.177> 365.211 145.8<140.291 298.932>
VStem: 27.375 179.274<124.237 197.601> 315.329 182.1<158.579 213.234 289.011 345.54> 315.329 41.9736<51.3343 145.312> 315.329 15.8486<213.234 309.934>
LayerCount: 2
Back
SplineSet
347.928710938 177.561523438 m 1x7c
 397.77734375 180.561523438 l 1x7a
 397.77734375 65.2546726396 333.443566636 -9.998046875 197.888671875 -9.998046875 c 0
 93.5258452633 -9.998046875 30 50 30 141 c 0
 30 286.71747631 169.159368499 309.798279039 363.928710938 309.93359375 c 1
 363.77734375 224.284179688 l 1x79
 204.9215174 224.170106541 154.848632812 210.544945242 154.848632812 148.561523438 c 0
 154.848632812 111.324445486 179.419144912 86.4638671875 236.888671875 86.4638671875 c 0
 303.711369303 86.4638671875 347.928710938 123.027306191 347.928710938 177.561523438 c 1x7c
347.928710938 299.010742188 m 2xbc
 347.928710938 377.97408765 315.670027449 412.010742188 238.928710938 412.010742188 c 0
 160.769677734 412.010742188 104.928710938 368.010742188 104.928710938 368.010742188 c 5
 69.9287109375 467.010742188 l 5
 69.9287109375 467.010742188 149.657226562 511.010742188 264.928710938 511.010742188 c 0
 407.721987032 511.010742188 466.928710938 427.01055301 466.928710938 300.010742188 c 2
 466.928710938 118 l 2
 466.928710938 93.251950046 475.36431245 84 497.928710938 84 c 0
 515.694039812 84 526.928710938 91 526.928710938 91 c 1
 535.928710938 13 l 1
 535.928710938 13 510.8653569 -9.998046875 457.928710938 -9.998046875 c 0
 384.082557091 -9.998046875 347.928710938 33 347.928710938 125 c 2
 347.928710938 299.010742188 l 2xbc
EndSplineSet
Fore
SplineSet
315.328613281 172.561523438 m 1x7c
 357.30234375 145.311523438 l 1x7a
 357.30234375 51.3343097919 302.615961612 -9.998046875 187.388671875 -9.998046875 c 0
 87.9210966844 -9.998046875 27.375 50 27.375 141 c 0
 27.375 286.71747631 159.062314908 309.798279039 331.328710938 309.93359375 c 1
 331.17734375 213.234179688 l 1x79
 246.848592069 213.158935546 206.648632812 204.171600623 206.648632812 163.286523438 c 0
 206.648632812 135.82373925 222.870686871 117.488769531 259.944335938 117.488769531 c 0
 293.620097642 117.488769531 315.328613281 139.593062454 315.328613281 172.561523438 c 1x7c
315.328710938 289.010742188 m 2xb9
 315.328710938 342.258591075 291.068109296 365.210742188 233.353710938 365.210742188 c 0
 165.256195068 365.210742188 116.603710938 330.785742188 116.603710938 330.785742188 c 1
 67.3037109375 467.010742188 l 1
 67.3037109375 467.010742188 146.470038311 511.010742188 260.928710938 511.010742188 c 0
 428.109947552 511.010742188 497.428710938 427.01055301 497.428710938 300.010742188 c 2
 497.428710938 159.55 l 2xbc
 497.428710938 138.623340112 505.578590463 130.8 527.378710938 130.8 c 0
 542.571130113 130.8 552.178710938 136.225 552.178710938 136.225 c 1
 561.178710938 13.525 l 1
 561.178710938 13.525 526.314942822 -9.998046875 452.678710938 -9.998046875 c 0
 360.471717931 -9.998046875 315.328710938 33 315.328710938 125 c 2xba
 315.328710938 289.010742188 l 2xb9
EndSplineSet
Substitution2: "'ss15' Style Set 15 lookup 20-1" a.ss15
Substitution2: "'ss02' Style Set 2 lookup 3-1" a.ss02
EndChar

StartChar: plus
Encoding: 43 43 47
Width: 450
Flags: W
HStem: 287.125 141.75<25 425>
VStem: 154.125 141.75<158 558>
LayerCount: 2
Fore
SplineSet
295.875 558 m 1
 295.875 158 l 1
 154.125 158 l 1
 154.125 558 l 1
 295.875 558 l 1
425 287.125 m 1
 25 287.125 l 1
 25 428.875 l 1
 425 428.875 l 1
 425 287.125 l 1
EndSplineSet
EndChar

StartChar: s
Encoding: 115 115 48
Width: 476
Flags: W
HStem: -9.99805 135.479<90.486 260.796> 376.354 134.579<226.742 388.109>
LayerCount: 2
Fore
SplineSet
201.771484375 183.493164062 m 0
 74.1055608968 215.890024299 38.5291015625 268.146144205 38.5291015625 351.95 c 0
 38.5291015625 450.985914182 122.55385301 510.93359375 260.592578125 510.93359375 c 0
 380.059683973 510.93359375 438.159960938 471.125585938 438.159960938 471.125585938 c 1
 405.319824219 346.744140625 l 1
 405.319824219 346.744140625 352.549692161 376.354492188 274.768066406 376.354492188 c 0
 239.843228937 376.354492188 224.13671875 367.192736276 224.13671875 352.418457031 c 0
 224.13671875 337.78686753 233.560835118 328.749125959 265.586914062 320.486816406 c 0
 413.023195746 281.289944542 446.939453125 235.063836955 446.939453125 146.45234375 c 0
 446.939453125 50.0337563775 370.663795067 -9.998046875 227.856445312 -9.998046875 c 0
 104.77049658 -9.998046875 26.75 28.6625 26.75 28.6625 c 1
 54.814453125 162.511328125 l 1
 54.814453125 162.511328125 123.121925896 125.481445312 206.868164062 125.481445312 c 0
 244.011684298 125.481445312 261.6953125 133.749580419 261.6953125 149.787109375 c 0
 261.6953125 165.2368959 251.112166707 171.201936743 201.771484375 183.493164062 c 0
EndSplineSet
EndChar

StartChar: y
Encoding: 121 121 49
Width: 539
Flags: W
HStem: 481.011 20G<-0.25 198.85 341.1 539.25>
LayerCount: 2
Fore
SplineSet
178.975 45.15 m 1
 -0.25 501.010742188 l 1
 192.375 501.010742188 l 1
 275.606445312 243.944335938 l 1
 346.625 501.010742188 l 1
 539.25 501.010742188 l 1
 286.5 -179.994140625 l 1
 81.775 -179.994140625 l 1
 178.975 45.15 l 1
EndSplineSet
Substitution2: "'ss04' Style Set 4 lookup 5-1" y.ss04
EndChar

StartChar: u
Encoding: 117 117 50
Width: 595
Flags: W
HStem: -9.92285 144.024<169.496 326.67> 0 21G<366.027 546.027> 481.011 20G<49.75 229.75 366.027 546.027>
VStem: 49.75 180<153.269 501.011> 366.027 180<202.449 501.011>
LayerCount: 2
Fore
SplineSet
366.02734375 212.010742188 m 1xb8
 420.77734375 202.44921875 l 1
 400.06167074 55.4711333122 350.940280973 -9.9228515625 228.52734375 -9.9228515625 c 0
 110.46507993 -9.9228515625 49.75 56.9260601597 49.75 196.44921875 c 2
 49.75 501.010742188 l 1
 229.75 501.010742188 l 1
 229.75 208.44921875 l 2
 229.75 161.35245047 249.732919456 134.1015625 296.77734375 134.1015625 c 0
 345.287373581 134.1015625 366.02734375 165.292228604 366.02734375 212.010742188 c 1xb8
546.02734375 501.010742188 m 1
 546.02734375 0 l 1
 366.02734375 0 l 1x78
 366.02734375 501.010742188 l 1
 546.02734375 501.010742188 l 1
EndSplineSet
Substitution2: "'ss05' Style Set 5 lookup 6-1" u.ss05
EndChar

StartChar: backslash
Encoding: 92 92 51
Width: 434
Flags: W
LayerCount: 2
Fore
SplineSet
277.125 -171.469726562 m 1
 2.125 761.403320312 l 1
 156.875 761.403320312 l 1
 431.875 -171.469726562 l 1
 277.125 -171.469726562 l 1
EndSplineSet
EndChar

StartChar: equal
Encoding: 61 61 52
Width: 450
Flags: W
HStem: 207.125 131.75<25 425> 377.125 131.75<25 425>
LayerCount: 2
Back
SplineSet
420 285 m 5xea
 30 285 l 5
 30 431 l 5
 420 431 l 5
 420 285 l 5xea
EndSplineSet
Fore
SplineSet
425 207.125 m 1
 25 207.125 l 1
 25 338.875 l 1
 425 338.875 l 1
 425 207.125 l 1
425 377.125 m 1
 25 377.125 l 1
 25 508.875 l 1
 425 508.875 l 1
 425 377.125 l 1
EndSplineSet
EndChar

StartChar: v
Encoding: 118 118 53
Width: 539
Flags: W
HStem: 0 21G<152.883 395.718> 481.011 20G<-0.25 197.231 342.26 539.25>
LayerCount: 2
Fore
SplineSet
159.25 0 m 1
 -0.25 501.010742188 l 1
 192.375 501.010742188 l 1
 273.606445312 166.444335938 l 1
 346.625 501.010742188 l 1
 539.25 501.010742188 l 1
 389.75 0 l 1
 159.25 0 l 1
EndSplineSet
EndChar

StartChar: w
Encoding: 119 119 54
Width: 735
Flags: W
HStem: 0 21G<98.1583 319.658 414.427 635.882> 481.011 20G<-0.25 186.695 548.305 735.25>
LayerCount: 2
Fore
SplineSet
102.25 0 m 1
 -0.25 501.010742188 l 1
 183.375 501.010742188 l 1
 231.856445312 208.944335938 l 1
 283.75 451.010742188 l 1
 451.25 451.010742188 l 1
 503.143554688 208.944335938 l 1
 551.625 501.010742188 l 1
 735.25 501.010742188 l 1
 631.75 0 l 1
 418.75 0 l 1
 367.5 237.091796875 l 1
 315.25 0 l 1
 102.25 0 l 1
EndSplineSet
EndChar

StartChar: x
Encoding: 120 120 55
Width: 528
Flags: W
HStem: 0 21G<-5.25 210.583 317.417 533.25> 481.011 20G<5.55 217.443 310.557 522.45>
VStem: 236.25 55.5<196.3 296.8>
LayerCount: 2
Fore
SplineSet
201.375 0 m 1
 -5.25 0 l 1
 148.75 262.549804688 l 1
 148.75 262.549804688 5.55 501.010742188 5.55 501.010742188 c 1
 5.55 501.010742188 209.375 501.010742188 209.375 501.010742188 c 1
 291.75 296.799804688 l 1
 291.75 196.299804688 l 1
 201.375 0 l 1
326.625 0 m 1
 236.25 196.299804688 l 1
 236.25 296.799804688 l 1
 318.625 501.010742188 l 1
 522.45 501.010742188 l 1
 379.25 262.549804688 l 1
 533.25 0 l 1
 326.625 0 l 1
EndSplineSet
EndChar

StartChar: z
Encoding: 122 122 56
Width: 478
Flags: W
HStem: 0 21G<24.75 453.25> 481.011 20G<34.75 443.25>
LayerCount: 2
Fore
SplineSet
453.25 0 m 1
 24.75 0 l 1
 24.75 96 l 1
 208.075195312 346.110839844 l 1
 208.075195312 346.110839844 34.75 346.110839844 34.75 346.110742188 c 1
 34.75 501.010742188 l 1
 443.25 501.010742188 l 1
 443.25 405.010742188 l 1
 270.174804688 154.899902344 l 1
 270.174804688 154.899902344 453.25 154.899902344 453.25 154.9 c 1
 453.25 0 l 1
EndSplineSet
EndChar

StartChar: period
Encoding: 46 46 57
Width: 245
Flags: W
HStem: -10 207.449<54.7309 190.495>
VStem: 19.5 206.227<25.44 162.009>
LayerCount: 2
Fore
SplineSet
19.5 93.724609375 m 0
 19.5 156.56219511 60.1447426988 197.44921875 122.612304688 197.44921875 c 0
 185.080819806 197.44921875 225.7265625 156.56219511 225.7265625 93.724609375 c 0
 225.7265625 30.8859370867 185.080819806 -10 122.612304688 -10 c 0
 60.1447426987 -10 19.5 30.8859370867 19.5 93.724609375 c 0
EndSplineSet
EndChar

StartChar: two
Encoding: 50 50 58
Width: 608
Flags: W
HStem: 0 21G<48 583.799> 570.699 168.293<172.007 358.058>
VStem: 380.926 195.086<443.496 546.827>
LayerCount: 2
Fore
SplineSet
380.92578125 493.141601563 m 0
 380.92578125 541.054966924 354.082765251 570.698730469 275.328125 570.698730469 c 0
 181.049398371 570.698730469 113.538085938 516.854882812 113.538085938 516.854882812 c 1
 58.122265625 675.796875 l 1
 58.122265625 675.796875 151.209050989 738.9921875 286.69140625 738.9921875 c 0
 467.101504953 738.9921875 576.01171875 662.295898438 576.01171875 510.93359375 c 0
 576.01171875 371.172085026 500.601536083 309.356148561 354.374023438 239.5234375 c 0
 264.91225917 196.575150054 262.501478174 166.749464647 261.313476562 163.899902344 c 1
 261.313476562 163.899902344 583.798828125 163.899902344 583.798828125 163.9 c 1
 583.798828125 0 l 1
 48 0 l 1
 48 54 l 2
 48 216.584770185 140.389249484 309.117623874 306.821289062 402.276855469 c 0
 360.223355407 431.912249422 380.92578125 462.523572562 380.92578125 493.141601563 c 0
EndSplineSet
Substitution2: "'frac' Diagonal Fractions in Latin lookup 26 subtable" two.numr
Substitution2: "'onum' Oldstyle Figures lookup 18-1" two.osf
Substitution2: "'tnum' Tabular Numbers lookup 17-1" two.tf
Substitution2: "'numr' Numerators lookup 0 subtable" two.numr
Substitution2: "'dnom' Denominators lookup 0 subtable" two.dnom
Substitution2: "'sups' Superscript lookup 0 subtable" two.superior
Substitution2: "'sinf' Scientific Inferiors lookup 0 subtable" two.inferior
Substitution2: "'sups' Superscript lookup 0 subtable" two.superior
EndChar

StartChar: three
Encoding: 51 51 59
Width: 589
Flags: W
HStem: -9.99805 162.462<124.359 333.435> 297.75 149.981<159.139 326.144> 572.074 166.918<128.007 326.161>
VStem: 342.534 201.786<465.359 553.459> 358.027 202.134<176.658 272.169>
LayerCount: 2
Fore
SplineSet
233.963867188 447.731445312 m 2xe8
 315.84654673 447.731445313 342.534179688 468.797033218 342.534179688 510.708496094 c 0
 342.534179688 545.5921087 321.134690635 572.073730469 251.586914062 572.073730469 c 0
 146.864597809 572.073730469 83.1215820312 529.854980469 83.1215820312 529.854980469 c 1
 36.7060546875 685.846679688 l 1
 36.7060546875 685.846679688 119.128338834 738.9921875 262 738.9921875 c 0
 436.792464929 738.9921875 544.3203125 667.857421875 544.3203125 532.868164062 c 0xf0
 544.3203125 412 433.888085938 375.697265625 433.888085938 375.697265625 c 1
 433.888085938 375.697265625 560.161132812 341 560.161132812 205.670898438 c 0
 560.161132812 51.681640625 440.170084786 -9.998046875 260 -9.998046875 c 0
 106.664429 -9.998046875 15.451171875 40.9091796875 15.451171875 40.9091796875 c 1
 65.1245117188 203.262695312 l 1
 65.1245117188 203.262695312 135.913161293 152.464355469 246.950195312 152.464355469 c 0
 323.788913633 152.464355469 358.02734375 179.029571934 358.02734375 226.924804688 c 0
 358.02734375 274.385813407 315.367781175 297.255753062 233.963867188 297.487304688 c 2
 159 297.75 l 1
 159.138671875 447.731445312 l 1
 233.963867188 447.731445312 l 2xe8
EndSplineSet
Substitution2: "'frac' Diagonal Fractions in Latin lookup 26 subtable" three.numr
Substitution2: "'onum' Oldstyle Figures lookup 18-1" three.osf
Substitution2: "'tnum' Tabular Numbers lookup 17-1" three.tf
Substitution2: "'numr' Numerators lookup 0 subtable" three.numr
Substitution2: "'dnom' Denominators lookup 0 subtable" three.dnom
Substitution2: "'sups' Superscript lookup 0 subtable" three.superior
Substitution2: "'sinf' Scientific Inferiors lookup 0 subtable" three.inferior
Substitution2: "'sups' Superscript lookup 0 subtable" three.superior
EndChar

StartChar: comma
Encoding: 44 44 61
Width: 252
Flags: W
HStem: -116 313.449
VStem: 19.5 213.227<26.17 156.186>
LayerCount: 2
Fore
SplineSet
19.5 93.724609375 m 0
 19.5 156.56219511 60.1447426988 197.44921875 122.612304688 197.44921875 c 0
 189.321548636 197.44921875 232.7265625 155.829122488 232.7265625 80.5 c 0
 232.7265625 -29.538998902 138.5 -116 138.5 -116 c 1
 46.75 -73 l 1
 46.75 -73 87.4918925987 -41.2620953355 105.698766949 -9.44868332462 c 1
 53.042463129 -4.13398816879 19.5 35.3185517317 19.5 93.724609375 c 0
EndSplineSet
EndChar

StartChar: zero
Encoding: 48 48 63
Width: 683
Flags: W
HStem: -9.99805 170.462<276.733 407.044> 568.659 170.462<276.733 407.044>
VStem: 29.75 183.849<235.62 493.503> 470.179 183.849<235.62 493.503>
LayerCount: 2
Fore
SplineSet
213.598632812 364.561523438 m 0
 213.598632812 242.173646113 252.020749538 160.463867188 341.888671875 160.463867188 c 0
 431.756594212 160.463867188 470.178710938 242.173646113 470.178710938 364.561523438 c 0
 470.178710938 486.949400761 431.756594212 568.659179688 341.888671875 568.659179688 c 0
 252.020749538 568.659179688 213.598632812 486.949400761 213.598632812 364.561523438 c 0
29.75 364.561523438 m 0
 29.75 591.206054688 137.686199807 739.12109375 341.888671875 739.12109375 c 0
 546.091143944 739.12109375 654.02734375 591.206054688 654.02734375 364.561523438 c 0
 654.02734375 137.916992188 546.091143944 -9.998046875 341.888671875 -9.998046875 c 0
 137.686199807 -9.998046875 29.75 137.916992188 29.75 364.561523438 c 0
EndSplineSet
Substitution2: "'frac' Diagonal Fractions in Latin lookup 26 subtable" zero.numr
Substitution2: "'onum' Oldstyle Figures lookup 18-1" zero.osf
Substitution2: "'tnum' Tabular Numbers lookup 17-1" zero.tf
Substitution2: "'numr' Numerators lookup 0 subtable" zero.numr
Substitution2: "'dnom' Denominators lookup 0 subtable" zero.dnom
Substitution2: "'sups' Superscript lookup 0 subtable" zero.superior
Substitution2: "'sinf' Scientific Inferiors lookup 0 subtable" zero.inferior
Substitution2: "'sups' Superscript lookup 0 subtable" zero.superior
EndChar

StartChar: one
Encoding: 49 49 64
Width: 415
Flags: W
HStem: 0 21G<175.25 365.25> 711 20G<162.217 365.25>
VStem: 175.25 190<0 544.15>
LayerCount: 2
Fore
SplineSet
365.25 731 m 1
 365.25 0 l 1
 175.25 0 l 1
 175.25 544.149902344 l 1
 50.7998046875 474.450195312 l 1
 -0.25 618.25 l 1
 197.25 731 l 1
 365.25 731 l 1
EndSplineSet
Substitution2: "'frac' Diagonal Fractions in Latin lookup 26 subtable" one.numr
Substitution2: "'onum' Oldstyle Figures lookup 18-1" one.osf
Substitution2: "'tnum' Tabular Numbers lookup 17-1" one.tf
Substitution2: "'numr' Numerators lookup 0 subtable" one.numr
Substitution2: "'dnom' Denominators lookup 0 subtable" one.dnom
Substitution2: "'sups' Superscript lookup 0 subtable" one.superior
Substitution2: "'sinf' Scientific Inferiors lookup 0 subtable" one.inferior
Substitution2: "'sups' Superscript lookup 0 subtable" one.superior
EndChar

StartChar: four
Encoding: 52 52 65
Width: 660
Flags: W
HStem: 0 21G<349.675 535.2> 154.125 151.75<224.65 635.25> 711 20G<337.055 535.2>
VStem: 349.675 185.525<0 474.75>
LayerCount: 2
Fore
SplineSet
535.200195312 731 m 1
 535.200195312 0 l 1
 349.674804688 0 l 1
 349.674804688 474.75 l 1
 224.65 305.875 l 1
 635.25 305.875 l 1
 635.25 154.125 l 1
 56.85 154.125 l 1
 23.175 281.625 l 1
 351.674804688 731 l 1
 535.200195312 731 l 1
EndSplineSet
Substitution2: "'frac' Diagonal Fractions in Latin lookup 26 subtable" four.numr
Substitution2: "'onum' Oldstyle Figures lookup 18-1" four.osf
Substitution2: "'tnum' Tabular Numbers lookup 17-1" four.tf
Substitution2: "'numr' Numerators lookup 0 subtable" four.numr
Substitution2: "'dnom' Denominators lookup 0 subtable" four.dnom
Substitution2: "'sups' Superscript lookup 0 subtable" four.superior
Substitution2: "'sinf' Scientific Inferiors lookup 0 subtable" four.inferior
Substitution2: "'sups' Superscript lookup 0 subtable" four.superior
EndChar

StartChar: exclam
Encoding: 33 33 66
Width: 274
Flags: W
HStem: -10 207.449<69.1176 204.882> 711.008 20G<40.4 237.6>
VStem: 33.8867 206.227<25.44 162.009 611.009 731.008> 62.5 153<240.5 395.864>
LayerCount: 2
Fore
SplineSet
62.5 240.5 m 1xd0
 40.4 731.0078125 l 1
 237.6 731.0078125 l 1
 215.5 240.5 l 1
 62.5 240.5 l 1xd0
33.88671875 93.724609375 m 0xe0
 33.88671875 156.56219511 74.5314614488 197.44921875 136.999023438 197.44921875 c 0
 199.467538556 197.44921875 240.11328125 156.56219511 240.11328125 93.724609375 c 0
 240.11328125 30.8859370867 199.467538556 -10 136.999023438 -10 c 0
 74.5314614487 -10 33.88671875 30.8859370867 33.88671875 93.724609375 c 0xe0
EndSplineSet
EndChar

StartChar: five
Encoding: 53 53 67
Width: 594
Flags: W
HStem: -9.99805 167.268<124.707 339.45> 337.811 143.56<243.043 419.919> 570.516 160.492<236.605 519.922>
VStem: 374.095 190.982<191.289 310.309>
LayerCount: 2
Fore
SplineSet
267 -9.998046875 m 0
 105.983505893 -9.998046875 10.201171875 45.9091796875 10.201171875 45.9091796875 c 1
 57.7744140625 208.0625 l 1
 57.7744140625 208.0625 142.770332227 157.26953125 252 157.26953125 c 0
 340.199078309 157.26953125 374.094726562 192.593988647 374.094726562 249.776367188 c 0
 374.094726562 304.913345053 341.501813465 337.810546875 275.75 337.810546875 c 0
 204.716177944 337.810546875 180.25 289.3 180.25 289.3 c 1
 46.697265625 319.028515625 l 1
 87.15 731.0078125 l 1
 519.921875 731.0078125 l 1
 519.921875 570.515820312 l 1
 236.6046875 570.515820312 l 1
 224.220703125 446.322265625 l 1
 224.220703125 446.322265625 254.155207449 481.370117188 350.565429688 481.370117188 c 0
 489.273543975 481.370117188 565.077148438 395.424151177 565.077148438 252.072070312 c 0
 565.077148438 89.637616727 464.682399579 -9.998046875 267 -9.998046875 c 0
EndSplineSet
Substitution2: "'frac' Diagonal Fractions in Latin lookup 26 subtable" five.numr
Substitution2: "'onum' Oldstyle Figures lookup 18-1" five.osf
Substitution2: "'tnum' Tabular Numbers lookup 17-1" five.tf
Substitution2: "'numr' Numerators lookup 0 subtable" five.numr
Substitution2: "'dnom' Denominators lookup 0 subtable" five.dnom
Substitution2: "'sups' Superscript lookup 0 subtable" five.superior
Substitution2: "'sinf' Scientific Inferiors lookup 0 subtable" five.inferior
Substitution2: "'sups' Superscript lookup 0 subtable" five.superior
EndChar

StartChar: six
Encoding: 54 54 68
Width: 640
Flags: W
HStem: -9.99805 153.639<254.815 396.285> 330.141 142.559<254.273 398.29> 579.72 159.273<280.565 482.399>
VStem: 29.75 195.198<192.011 440.809> 428.448 181.967<174.516 300.55>
LayerCount: 2
Back
SplineSet
178.3984375 236.890625 m 0
 178.3984375 160.019065367 219.88147703 103.890625 320.3984375 103.890625 c 0
 421.623435844 103.890625 463.3984375 160.019065367 463.3984375 236.890625 c 0
 463.3984375 314.340166284 421.623435844 370.890625 320.3984375 370.890625 c 0
 219.88147703 370.890625 178.3984375 314.340166284 178.3984375 236.890625 c 0
163.303710938 405.747070312 m 1
 163.303710938 405.747070312 204.094697864 475.599609375 331.263671875 475.599609375 c 0
 505.711185917 475.599609375 585.165039062 379.238029036 585.165039062 239 c 0
 585.165039062 79.095703125 484.937095781 -9.998046875 321.297851562 -9.998046875 c 0
 141.540405276 -9.998046875 35 99.6728515625 35 365.331054688 c 0
 35 605.528320312 149.046377502 738.9921875 354.297851562 738.9921875 c 0
 495.428880973 738.9921875 566.923828125 678.860351562 566.923828125 678.860351562 c 1
 522.619140625 573.388671875 l 5
 522.619140625 573.388671875 463.487673927 622.51953125 354.778320312 622.51953125 c 4
 232.266224145 622.51953125 170.301516454 546.295339891 163.303710938 405.747070312 c 1
EndSplineSet
Fore
SplineSet
224.9484375 236.890625 m 0
 224.9484375 182.99383601 254.527013221 143.640625 326.1984375 143.640625 c 0
 398.577850652 143.640625 428.4484375 182.99383601 428.4484375 236.890625 c 0
 428.4484375 290.78741399 398.577850652 330.140625 326.1984375 330.140625 c 0
 254.527013221 330.140625 224.9484375 290.78741399 224.9484375 236.890625 c 0
205.903710938 419.747070312 m 1
 205.903710938 419.747070312 243.926078199 472.699609375 362.463671875 472.699609375 c 0
 514.243131314 472.699609375 610.415039062 377.519132351 610.415039062 239 c 0
 610.415039062 79.095703125 504.394499324 -9.998046875 331.297851562 -9.998046875 c 0
 141.965408324 -9.998046875 29.75 99.6728515626 29.75 365.331054688 c 0
 29.75 605.528320312 151.11853995 738.9921875 369.547851562 738.9921875 c 0
 517.31640625 738.9921875 592.173828125 678.860351562 592.173828125 678.860351562 c 1
 531.719140625 530.588671875 l 1
 531.719140625 530.588671875 475.74082002 579.71953125 372.828320312 579.71953125 c 0
 266.024165635 579.71953125 212.004289788 523.468052525 205.903710938 419.747070312 c 1
EndSplineSet
Substitution2: "'frac' Diagonal Fractions in Latin lookup 26 subtable" six.numr
Substitution2: "'onum' Oldstyle Figures lookup 18-1" six.osf
Substitution2: "'tnum' Tabular Numbers lookup 17-1" six.tf
Substitution2: "'numr' Numerators lookup 0 subtable" six.numr
Substitution2: "'dnom' Denominators lookup 0 subtable" six.dnom
Substitution2: "'ss07' Style Set 7 lookup 8-1" six.ss07
Substitution2: "'sups' Superscript lookup 0 subtable" six.superior
Substitution2: "'sinf' Scientific Inferiors lookup 0 subtable" six.inferior
Substitution2: "'sups' Superscript lookup 0 subtable" six.superior
EndChar

StartChar: parenright
Encoding: 41 41 69
Width: 402
Flags: W
HStem: -171.47 157.425<24.75 105.737> 602.044 157.425<24.75 105.737>
VStem: 199.698 177.679<110.272 477.728>
LayerCount: 2
Fore
SplineSet
24.75 -14.0443359375 m 1
 141.998534983 -14.0443359375 199.698242188 71.3031689622 199.698242188 294 c 0
 199.698242188 516.696831038 141.998534983 602.044335938 24.75 602.044335938 c 1
 24.75 759.469726562 l 1
 254.052464308 759.469726562 377.376953125 611.823242188 377.376953125 294 c 0
 377.376953125 -23.8232421873 254.052464308 -171.469726562 24.75 -171.469726562 c 1
 24.75 -171.469726562 24.75 -14.0443359375 24.75 -14.0443359375 c 1
EndSplineSet
EndChar

StartChar: seven
Encoding: 55 55 70
Width: 604
Flags: W
HStem: 0 21G<153.5 346.101> 566.1 164.9<34.75 346.325>
VStem: 153.5 191<0 159.809>
LayerCount: 2
Fore
SplineSet
344.5 0 m 1
 153.5 0 l 1
 163.310446248 311.596923076 346.325 566.1 346.325 566.1 c 1
 34.75 566.1 l 1
 34.75 731 l 1
 569.25 731 l 1
 569.25 625 l 1
 569.25 625 347.701428931 356 344.5 0 c 1
EndSplineSet
Substitution2: "'frac' Diagonal Fractions in Latin lookup 26 subtable" seven.numr
Substitution2: "'onum' Oldstyle Figures lookup 18-1" seven.osf
Substitution2: "'tnum' Tabular Numbers lookup 17-1" seven.tf
Substitution2: "'numr' Numerators lookup 0 subtable" seven.numr
Substitution2: "'dnom' Denominators lookup 0 subtable" seven.dnom
Substitution2: "'sups' Superscript lookup 0 subtable" seven.superior
Substitution2: "'sinf' Scientific Inferiors lookup 0 subtable" seven.inferior
Substitution2: "'sups' Superscript lookup 0 subtable" seven.superior
EndChar

StartChar: eight
Encoding: 56 56 71
Width: 647
Flags: W
HStem: -9.99805 150.464<249.963 397.037> 313.598 133.814<273.338 376.747> 358.573 59.5068<155.269 494.985> 591.448 147.437<264.216 388.652>
VStem: 29.75 187.917<171.3 283.976> 65.0098 177.188<469.579 570.544> 409.802 177.188<470.183 569.943> 429.333 187.917<171.3 283.976>
LayerCount: 2
Fore
SplineSet
323.5 447.411621094 m 0xd6
 376.747116349 447.411621094 409.801757812 477.270454587 409.801757812 519.269042969 c 0
 409.801757812 562.506440883 378.041237477 591.448242188 323.5 591.448242188 c 0
 272.118920486 591.448242188 242.198242188 562.506440883 242.198242188 519.269042969 c 0
 242.198242188 477.270454587 273.337844803 447.411621094 323.5 447.411621094 c 0xd6
323.5 738.884765625 m 0
 487.732972973 738.884765625 586.990234375 664.334849024 586.990234375 541.655273438 c 0
 586.990234375 422.719941147 494.984970868 358.573242188 323.5 358.573242188 c 0xb6
 155.268935189 358.573242188 65.009765625 422.719941147 65.009765625 541.655273438 c 0
 65.009765625 664.334849024 162.383237694 738.884765625 323.5 738.884765625 c 0
323.5 140.465820312 m 0
 389.054852396 140.465820312 429.332519531 173.05565075 429.332519531 228.470703125 c 0
 429.332519531 279.355295455 389.069843507 313.59765625 323.5 313.59765625 c 0
 257.930156493 313.59765625 217.667480469 279.355295455 217.667480469 228.470703125 c 0xd9
 217.667480469 173.05565075 257.945147604 140.465820312 323.5 140.465820312 c 0
323.5 418.080078125 m 0xb9
 512.994279539 418.080078125 617.25 343.785547345 617.25 209.381835938 c 0
 617.25 75.0799526991 501.691691566 -9.998046875 323.5 -9.998046875 c 0
 145.308308435 -9.998046875 29.75 75.0799526994 29.75 209.381835938 c 0
 29.75 343.785547345 134.005720461 418.080078125 323.5 418.080078125 c 0xb9
EndSplineSet
Substitution2: "'frac' Diagonal Fractions in Latin lookup 26 subtable" eight.numr
Substitution2: "'onum' Oldstyle Figures lookup 18-1" eight.osf
Substitution2: "'tnum' Tabular Numbers lookup 17-1" eight.tf
Substitution2: "'numr' Numerators lookup 0 subtable" eight.numr
Substitution2: "'dnom' Denominators lookup 0 subtable" eight.dnom
Substitution2: "'sups' Superscript lookup 0 subtable" eight.superior
Substitution2: "'sinf' Scientific Inferiors lookup 0 subtable" eight.inferior
Substitution2: "'sups' Superscript lookup 0 subtable" eight.superior
EndChar

StartChar: nine
Encoding: 57 57 72
Width: 640
Flags: W
HStem: -9.99805 156.772<150.354 354.112> 250.195 144.084<240.245 378.18> 580.779 158.214<239.919 385.013>
VStem: 29.75 181.292<425.354 548.891> 414.542 195.873<288.185 536.616>
LayerCount: 2
Fore
SplineSet
414.541601562 487.528515625 m 0
 414.541601562 541.425304615 384.963025841 580.778515625 313.291601562 580.778515625 c 0
 240.91218841 580.778515625 211.041601562 541.425304615 211.041601562 487.528515625 c 0
 211.041601562 433.631726635 240.91218841 394.278515625 313.291601562 394.278515625 c 0
 384.963025841 394.278515625 414.541601562 433.631726635 414.541601562 487.528515625 c 0
424.011230469 305.747070312 m 1
 424.011230469 305.747070312 385.928171581 250.19453125 267.201367188 250.19453125 c 0
 121.849314632 250.19453125 29.75 347.860186609 29.75 489.994140625 c 0
 29.75 649.8984375 135.770539738 738.9921875 308.8671875 738.9921875 c 0
 498.199630738 738.9921875 610.415039062 629.321289062 610.415039062 363.663085938 c 0
 610.415039062 123.465820312 490.832392391 -9.998046875 275.6171875 -9.998046875 c 0
 124.529870173 -9.998046875 47.9912109375 50.1337890625 47.9912109375 50.1337890625 c 1
 93.1958984375 198.40546875 l 1
 93.1958984375 198.40546875 154.546966951 146.774414062 267.336914062 146.774414062 c 0
 367.582575778 146.774414062 418.285268164 202.674329203 424.011230469 305.747070312 c 1
EndSplineSet
Substitution2: "'frac' Diagonal Fractions in Latin lookup 26 subtable" nine.numr
Substitution2: "'onum' Oldstyle Figures lookup 18-1" nine.osf
Substitution2: "'tnum' Tabular Numbers lookup 17-1" nine.tf
Substitution2: "'numr' Numerators lookup 0 subtable" nine.numr
Substitution2: "'dnom' Denominators lookup 0 subtable" nine.dnom
Substitution2: "'ss07' Style Set 7 lookup 8-1" nine.ss07
Substitution2: "'sups' Superscript lookup 0 subtable" nine.superior
Substitution2: "'sinf' Scientific Inferiors lookup 0 subtable" nine.inferior
Substitution2: "'sups' Superscript lookup 0 subtable" nine.superior
EndChar

StartChar: question
Encoding: 63 63 73
Width: 562
Flags: W
HStem: -10 207.449<157.118 292.882> 304.594 122.955<196.777 385.227> 574.854 164.139<123.491 311.657>
VStem: 121.887 206.227<25.44 162.009> 157.173 137.456<240.5 305.653> 338.846 195.274<448.702 551.041>
LayerCount: 2
Back
SplineSet
152.38671875 63.224609375 m 0xf4
 152.38671875 107.584937143 181.008990842 136.44921875 224.999023438 136.44921875 c 0
 268.990077228 136.44921875 297.61328125 107.584937143 297.61328125 63.224609375 c 0
 297.61328125 18.8635145521 268.990077228 -10 224.999023438 -10 c 0
 181.008990842 -10 152.38671875 18.8635145521 152.38671875 63.224609375 c 0xf4
280.88671875 300.653320312 m 1
 282.37890625 210 l 1
 169.422851562 210 l 1xec
 171.15625 399.46875 l 1
 171.15625 399.46875 208.949224154 395.048828125 256.3984375 395.048828125 c 0
 348.180522211 395.048828125 392.095703125 431.389934102 392.095703125 499.145507812 c 0
 392.095703125 585.201602829 327.571533338 623.228515625 232.89453125 623.228515625 c 0
 138.66274719 623.228515625 76.923828125 573.958007812 76.923828125 573.958007812 c 1
 30.2412109375 685.311523438 l 1
 30.2412109375 685.311523438 107.390463661 738.9921875 239.89453125 738.9921875 c 0
 405.150107971 738.9921875 521.870117188 670 521.870117188 501.010742188 c 0
 521.870117188 365.685958308 421.37343496 300.59375 309 300.59375 c 0
 290.63582236 300.59375 280.88671875 300.653320312 280.88671875 300.653320312 c 1
EndSplineSet
Fore
SplineSet
121.88671875 93.724609375 m 0xf4
 121.88671875 156.56219511 162.531461449 197.44921875 224.999023438 197.44921875 c 0
 287.467538556 197.44921875 328.11328125 156.56219511 328.11328125 93.724609375 c 0
 328.11328125 30.8859370867 287.467538556 -10 224.999023438 -10 c 0
 162.531461449 -10 121.88671875 30.8859370867 121.88671875 93.724609375 c 0xf4
293.13671875 305.653320312 m 1
 294.62890625 240.5 l 1
 157.172851562 240.5 l 1xec
 158.90625 431.96875 l 1
 158.90625 431.96875 192.476263684 427.548828125 234.623535156 427.548828125 c 0
 305.116686254 427.548828125 338.845703125 452.159831726 338.845703125 498.045410156 c 0
 338.845703125 551.314634836 297.5249349 574.853515625 236.89453125 574.853515625 c 0
 138.645119846 574.853515625 74.2739257812 528.208007812 74.2739257812 528.208007812 c 1
 20.2412109375 685.311523438 l 1
 20.2412109375 685.311523438 101.0703125 738.9921875 239.89453125 738.9921875 c 0
 412.329384887 738.9921875 534.120117188 664.386913544 534.120117188 499.910644531 c 0
 534.120117188 368.029528803 438.62831682 304.59375 331.825195312 304.59375 c 0
 306.553081045 304.59375 293.13671875 305.653320312 293.13671875 305.653320312 c 1
EndSplineSet
EndChar

StartChar: hyphen
Encoding: 45 45 74
Width: 354
Flags: W
HStem: 199.025 160.95<24.75 329.25>
VStem: 24.75 304.5<199.025 359.975>
LayerCount: 2
Fore
SplineSet
329.25 199.025 m 1
 24.75 199.025 l 1
 24.75 359.975 l 1
 329.25 359.975 l 1
 329.25 199.025 l 1
EndSplineSet
EndChar

StartChar: quotesingle
Encoding: 39 39 75
Width: 266
Flags: W
HStem: 456 275.008<71.6 198.4>
VStem: 71.6 126.8<456 543.107>
LayerCount: 2
Fore
SplineSet
71.6 456 m 1
 49.5 731.0078125 l 1
 220.5 731.0078125 l 1
 198.4 456 l 1
 71.6 456 l 1
EndSplineSet
EndChar

StartChar: parenleft
Encoding: 40 40 77
Width: 402
Flags: W
HStem: -171.47 157.425<296.39 377.377> 602.044 157.425<296.39 377.377>
VStem: 24.75 177.679<110.272 477.728>
LayerCount: 2
Fore
SplineSet
377.376953125 -14.0443359375 m 1
 377.376953125 -14.0443359375 377.376953125 -171.469726562 377.376953125 -171.469726562 c 1
 148.074488817 -171.469726562 24.75 -23.8232421873 24.75 294 c 0
 24.75 611.823242188 148.074488817 759.469726562 377.376953125 759.469726562 c 1
 377.376953125 602.044335938 l 1
 260.128418142 602.044335938 202.428710938 516.696831038 202.428710938 294 c 0
 202.428710938 71.3031689622 260.128418142 -14.0443359375 377.376953125 -14.0443359375 c 1
EndSplineSet
EndChar

StartChar: asterisk
Encoding: 42 42 78
Width: 400
Flags: W
HStem: 718.992 20G<132.284 268.155>
LayerCount: 2
Fore
SplineSet
268.155273438 738.9921875 m 1
 257.146484375 624.151367188 l 1
 358.440429688 669.799804688 l 1
 395.440429688 547.119140625 l 1
 293.396484375 522.267578125 l 1
 367.155273438 435.006835938 l 1
 252.50390625 366.916992188 l 1
 200.219726562 471.575195312 l 1
 147.935546875 366.916992188 l 1
 33.2841796875 435.006835938 l 1
 107.04296875 522.267578125 l 1
 5 547.119140625 l 1
 42 669.799804688 l 1
 143.29296875 624.151367188 l 1
 132.284179688 738.9921875 l 1
 268.155273438 738.9921875 l 1
EndSplineSet
Substitution2: "'ss13' Style Set 13 lookup 14-1" asterisk.ss13
EndChar

StartChar: less
Encoding: 60 60 79
Width: 450
Flags: W
LayerCount: 2
Fore
SplineSet
420 155 m 1
 30 274.5 l 1
 30 441.5 l 1
 420 561 l 1
 420 406.625 l 1
 213.454101562 358 l 1
 420 309.375 l 1
 420 155 l 1
EndSplineSet
EndChar

StartChar: greater
Encoding: 62 62 80
Width: 450
Flags: W
LayerCount: 2
Fore
SplineSet
30 561 m 1
 420 441.5 l 1
 420 274.5 l 1
 30 155 l 1
 30 309.375 l 1
 241.795898438 358 l 1
 30 406.625 l 1
 30 561 l 1
EndSplineSet
EndChar

StartChar: slash
Encoding: 47 47 81
Width: 434
Flags: W
LayerCount: 2
Fore
SplineSet
2.125 -171.469726562 m 1
 277.125 761.403320312 l 1
 431.875 761.403320312 l 1
 156.875 -171.469726562 l 1
 2.125 -171.469726562 l 1
EndSplineSet
Substitution2: "'frac' Diagonal Fractions in Latin lookup 25 subtable" fraction
EndChar

StartChar: bar
Encoding: 124 124 82
Width: 249
Flags: W
VStem: 47.125 154.75<-171.47 759.47>
LayerCount: 2
Fore
SplineSet
47.125 -171.469726562 m 1
 47.125 759.469726562 l 1
 201.875 759.469726562 l 1
 201.875 -171.469726562 l 1
 47.125 -171.469726562 l 1
EndSplineSet
EndChar

StartChar: bracketleft
Encoding: 91 91 83
Width: 375
Flags: W
HStem: -171.47 144.9<214.5 355.5> 614.045 145.425<214.5 355.5>
VStem: 44.5 311<-171.47 -26.5697 614.045 759.47> 44.5 170<-26.5697 614.045>
LayerCount: 2
Fore
SplineSet
44.5 759.469726562 m 1xe0
 355.5 759.469726562 l 1
 355.5 614.044726562 l 1xe0
 214.5 614.044726562 l 1
 214.5 614.044726562 214.5 -26.5697265625 214.5 -26.5697265625 c 1xd0
 214.5 -26.5697265625 355.5 -26.5697265625 355.5 -26.5697265625 c 1
 355.5 -26.5697265625 355.5 -171.469726562 355.5 -171.469726562 c 1
 44.5 -171.469726562 l 1
 44.5 759.469726562 l 1xe0
EndSplineSet
EndChar

StartChar: bracketright
Encoding: 93 93 84
Width: 375
Flags: W
HStem: -171.47 144.9<19.5 160.5> 614.57 144.9<19.5 160.5>
VStem: 19.5 311<-171.47 -26.5697 614.57 759.47> 160.5 170<-26.5697 614.57>
LayerCount: 2
Fore
SplineSet
330.5 -171.469726562 m 1xe0
 19.5 -171.469726562 l 1
 19.5 -171.469726562 19.5 -26.5697265625 19.5 -26.5697265625 c 1xe0
 19.5 -26.5697265625 160.5 -26.5697265625 160.5 -26.5697265625 c 1
 160.5 -26.5697265625 160.5 614.569726562 160.5 614.569726562 c 1xd0
 19.5 614.569726562 l 1
 19.5 759.469726562 l 1
 330.5 759.469726562 l 1
 330.5 -171.469726562 l 1xe0
EndSplineSet
EndChar

StartChar: asciicircum
Encoding: 94 94 85
Width: 449
Flags: W
HStem: 440 291.008<149.75 165.7 284.3 299.25>
LayerCount: 2
Fore
SplineSet
299.25 731.0078125 m 1
 449.25 440 l 1
 284.3 440 l 1
 225.393554688 605.088476562 l 1
 165.7 440 l 1
 -0.25 440 l 1
 149.75 731.0078125 l 1
 299.25 731.0078125 l 1
EndSplineSet
EndChar

StartChar: braceleft
Encoding: 123 123 86
Width: 433
Flags: W
HStem: -171.47 142.896<294.488 407.698> 246.282 136.5<19.5 101.722> 616.574 142.896<294.395 407.117>
VStem: 109.5 170<-14.6934 237.013 391.478 602.693> 406.5 7<-161.47 -23.5736>
LayerCount: 2
Fore
SplineSet
218.5 314.532226562 m 1
 218.5 314.532226562 279.5 289.532226562 279.5 209.532226562 c 2
 279.5 43.4263671875 l 2
 279.5 -11.855859375 306.1015625 -28.5736328125 353.5 -28.5736328125 c 0
 396.943359375 -28.5736328125 406.5 -23.5736328125 406.5 -23.5736328125 c 1
 406.5 -23.5736328125 413.5 -161.469726562 413.5 -161.469726562 c 1
 413.5 -161.469726562 376.5 -171.469726562 316.5 -171.469726562 c 0
 164.101814515 -171.469726562 109.5 -101.425458984 109.5 17.4302734375 c 2
 109.5 184.282226562 l 2
 109.5 231.610351562 91.001953125 246.282226562 54.5 246.282226562 c 2
 19.5 246.282226562 l 1
 19.5 382.782226562 l 1
 54.5 382.782226562 l 2
 91.001953125 382.782226562 109.5 397.455078125 109.5 444.782226562 c 2
 109.5 570.569726562 l 2
 109.5 689.422203584 164.101814515 759.469726562 316.5 759.469726562 c 0
 371.25 759.469726562 413.5 749.469726562 413.5 749.469726562 c 1
 406.5 611.573632812 l 1
 406.5 611.573632812 389.680664062 616.573632812 352.5 616.573632812 c 0
 305.7421875 616.573632812 279.5 599.854882812 279.5 544.573632812 c 2
 279.5 419.532226562 l 2
 279.5 337.53515625 218.5 314.532226562 218.5 314.532226562 c 1
EndSplineSet
EndChar

StartChar: grave
Encoding: 96 96 87
Width: 242
Flags: W
HStem: 505.5 235.508
VStem: -4.25 250.5
LayerCount: 2
Fore
SplineSet
135.75 505.5 m 1
 -4.25 711.0078125 l 1
 162.75 741.0078125 l 1
 246.25 525.5 l 1
 135.75 505.5 l 1
EndSplineSet
EndChar

StartChar: underscore
Encoding: 95 95 88
Width: 564
Flags: W
HStem: -121.5 121.5<24.75 539.25>
LayerCount: 2
Fore
SplineSet
539.25 -121.5 m 1
 24.75 -121.5 l 1
 24.75 0 l 1
 539.25 0 l 1
 539.25 -121.5 l 1
EndSplineSet
EndChar

StartChar: dollar
Encoding: 36 36 89
Width: 591
Flags: W
HStem: -105 174.47<214.5 374.5> -10 165.837<127.763 342.723> 572.284 166.837<251.917 452.07> 655 174.47<214.5 374.5>
VStem: 39.627 197.937<476.916 557.262> 214.5 160<-105 69.4697 655 829.47> 359.463 202.307<172.515 249.386>
LayerCount: 2
Fore
SplineSet
214.5 -105 m 1x84
 214.5 69.4697265625 l 1
 374.5 69.4697265625 l 1
 374.5 -105 l 1
 214.5 -105 l 1x84
214.5 655 m 1x14
 214.5 829.469726562 l 1
 374.5 829.469726562 l 1
 374.5 655 l 1
 214.5 655 l 1x14
EndSplineSet
Refer: 22 83 N 1 0 0 1 0 0 2
EndChar

StartChar: percent
Encoding: 37 37 90
Width: 953
Flags: W
HStem: -9.99805 129.905<675.491 769.759> 0 21G<190.75 342.151> 262.447 129.904<675.015 770.249> 336.643 129.904<184.876 278.759> 609.087 129.905<184.408 279.249> 711.008 20G<613.849 765.25>
VStem: 29.75 139.785<481.784 594.68> 295.535 137.675<482.277 594.202> 520.75 138.785<135.144 248.04> 786.535 137.675<135.637 247.562>
LayerCount: 2
Fore
SplineSet
659.53515625 191.731445312 m 0xa3c0
 659.53515625 140.204943602 687.860189597 119.907226562 722.48046875 119.907226562 c 0
 756.851451217 119.907226562 786.53515625 140.204943602 786.53515625 191.731445312 c 0
 786.53515625 243.590074203 756.851451217 262.447265625 722.48046875 262.447265625 c 0
 687.860189597 262.447265625 659.53515625 243.590074203 659.53515625 191.731445312 c 0xa3c0
520.75 191.731445312 m 0
 520.75 302.277073185 594.354217459 392.3515625 722.48046875 392.3515625 c 0
 850.60571434 392.3515625 924.209960938 302.277073185 924.209960938 191.731445312 c 0
 924.209960938 81.3256036272 850.60571434 -9.998046875 722.48046875 -9.998046875 c 0
 594.354217459 -9.998046875 520.75 81.3256036272 520.75 191.731445312 c 0
169.53515625 538.372070312 m 0
 169.53515625 486.845515631 197.410195273 466.546875 231.48046875 466.546875 c 0
 265.851451217 466.546875 295.53515625 486.845515631 295.53515625 538.372070312 c 0
 295.53515625 590.229742616 265.851451217 609.086914062 231.48046875 609.086914062 c 0x1bc0
 197.410195273 609.086914062 169.53515625 590.229742616 169.53515625 538.372070312 c 0
29.75 538.372070312 m 0
 29.75 648.917698185 103.35421746 738.9921875 231.48046875 738.9921875 c 0
 359.60571434 738.9921875 433.209960938 648.917698185 433.209960938 538.372070312 c 0
 433.209960938 427.966228627 359.60571434 336.642578125 231.48046875 336.642578125 c 0
 103.35421746 336.642578125 29.75 427.966228627 29.75 538.372070312 c 0
EndSplineSet
Refer: 138 8260 N 1 0 0 1 301 0 2
EndChar

StartChar: at
Encoding: 64 64 91
Width: 924
Flags: W
HStem: -159.727 129.883<354.284 651.642> 77.4697 125.529<408.48 509.343> 78.209 116.401<674.452 744.714> 350.028 123.548<413.69 513.248> 579.613 128.113<349.291 598.147>
VStem: 35 137.35<145.616 396.157> 241.092 152.492<217.262 331.703> 528.158 139.302<234.631 322.096> 539.408 70.9966<152.3 349.996> 765.592 123.695<211.694 427.692>
LayerCount: 2
Fore
SplineSet
393.583496094 270.204589844 m 0xdf40
 393.583496094 229.499577303 413.635033029 202.998535156 458.494140625 202.998535156 c 0
 504.962775128 202.998535156 528.157714844 234.630661116 528.157714844 280.279296875 c 0
 528.157714844 322.095867978 506.790551459 350.027832031 463.834960938 350.027832031 c 0
 417.58233114 350.027832031 393.583496094 317.508676739 393.583496094 270.204589844 c 0xdf40
426.592773438 77.4697265625 m 0
 310.541570414 77.4697265625 241.091796875 154.367211619 241.091796875 261.612304688 c 0
 241.091796875 384.267937222 326.755901506 473.576171875 441.153320312 473.576171875 c 0
 557.027470854 473.576171875 610.404785156 392.977469171 610.404785156 268.752441406 c 0xdec0
 610.404785156 152.300058875 531.89772413 77.4697265625 426.592773438 77.4697265625 c 0
487.713867188 -159.7265625 m 0
 207.397460938 -159.7265625 35 14.611328125 35 268.08984375 c 0
 35 524.041992188 213.584472656 707.7265625 465.170898438 707.7265625 c 0
 715.112792969 707.7265625 889.287109375 561.379882812 889.287109375 321.901367188 c 0
 889.287109375 177.53425585 820.098144531 78.208984375 699.827148438 78.208984375 c 0
 592.982421875 78.208984375 539.408203125 133.220214844 539.408203125 247.040527344 c 0xbec0
 539.408203125 349.995605469 574.23828125 470.96484375 574.23828125 470.96484375 c 1
 704.553710938 470.96484375 l 1
 704.553710938 470.96484375 667.459960938 341.628417969 667.459960938 252.052246094 c 0
 667.459960938 217.725097656 678.109481964 194.609863281 705.538574219 194.609863281 c 0xbf40
 743.848207028 194.609863281 765.591992188 224.042354598 765.591992188 315.972265625 c 0
 765.591992188 484.468062238 652.384401188 579.61328125 468.234375 579.61328125 c 0
 287.115573225 579.61328125 172.349609375 460.787597656 172.349609375 270.839355469 c 0
 172.349609375 87.1059570312 279.906946269 -29.84375 498.9296875 -29.84375 c 0
 660.53861085 -29.84375 765.56328125 39.0576171875 765.56328125 39.0576171875 c 1
 805.250976562 -82.7255859375 l 1
 805.250976562 -82.7255859375 701.004882812 -159.7265625 487.713867188 -159.7265625 c 0
EndSplineSet
EndChar

StartChar: numbersign
Encoding: 35 35 92
Width: 767
Flags: W
HStem: 0 21G<86 250.514 356 520.514> 168.75 136.75<24.5 707.5> 408.5 136.75<59.5 742.5> 711.008 20G<246.486 411 516.486 681>
LayerCount: 2
Fore
SplineSet
59.5 545.25 m 1
 742.5 545.25 l 1
 742.5 408.5 l 1
 59.5 408.5 l 1
 59.5 545.25 l 1
24.5 305.5 m 1
 707.5 305.5 l 1
 707.5 168.75 l 1
 24.5 168.75 l 1
 24.5 305.5 l 1
356 0 m 1
 521 731.0078125 l 1
 681 731.0078125 l 1
 516 0 l 1
 356 0 l 1
86 0 m 1
 251 731.0078125 l 1
 411 731.0078125 l 1
 246 0 l 1
 86 0 l 1
EndSplineSet
EndChar

StartChar: braceright
Encoding: 125 125 93
Width: 433
Flags: W
HStem: -171.47 142.896<35.8023 143.297> 246.282 136.5<331.278 413.5> 616.574 142.896<36.3831 143.354>
VStem: 30 7<-161.47 -23.5736> 153.5 170<-16.22 237.013 391.478 608.781>
LayerCount: 2
Fore
SplineSet
214.5 314.532226562 m 1
 214.5 314.532226562 153.5 337.53515625 153.5 419.532226562 c 2
 153.5 563.473632812 l 2
 153.5 604.243554687 131.032373715 616.573632812 91 616.573632812 c 0
 53.8193359375 616.573632812 37 611.573632812 37 611.573632812 c 1
 30 749.469726562 l 1
 30 749.469726562 72.25 759.469726562 127 759.469726562 c 0
 271.667842742 759.469726562 323.5 696.430664062 323.5 589.469726562 c 2
 323.5 444.782226562 l 2
 323.5 397.455078125 341.998046875 382.782226562 378.5 382.782226562 c 2
 413.5 382.782226562 l 1
 413.5 246.282226562 l 1
 378.5 246.282226562 l 2
 341.998046875 246.282226562 323.5 231.610351562 323.5 184.282226562 c 2
 323.5 -1.4697265625 l 2
 323.5 -108.43359375 271.667842742 -171.469726562 127 -171.469726562 c 0
 67 -171.469726562 30 -161.469726562 30 -161.469726562 c 1
 30 -161.469726562 37 -23.5736328125 37 -23.5736328125 c 1
 37 -23.5736328125 46.556640625 -28.5736328125 90 -28.5736328125 c 0
 130.67298353 -28.5736328125 153.5 -16.2442749024 153.5 24.5263671875 c 2
 153.5 209.532226562 l 2
 153.5 289.532226562 214.5 314.532226562 214.5 314.532226562 c 1
EndSplineSet
EndChar

StartChar: asciitilde
Encoding: 126 126 94
Width: 436
VWidth: 999
Flags: W
HStem: 266.5 151<231.151 353.126> 315.5 150<84.8199 204.877>
LayerCount: 2
Fore
SplineSet
436.25 355 m 1x80
 436.25 355 382.25 266.5 299 266.5 c 0x80
 221.461538462 266.5 195.615384615 315.5 139 315.5 c 0
 103.891304347 315.5 75.25 286.75 75.25 286.75 c 1
 -0.25 400.25 l 1
 -0.25 400.25 59.375 465.5 137 465.5 c 0x40
 213.307692308 465.5 245.307692308 417.5 297 417.5 c 0
 336.526923076 417.5 356.75 442.25 356.75 442.25 c 1
 436.25 355 l 1x80
EndSplineSet
EndChar

StartChar: cent
Encoding: 162 162 95
Width: 492
Flags: W
HStem: -5 189.47<217.5 369.5> 105.002 152.362<248.533 410.499> 475.384 150.549<248.356 400.752> 570 159.47<217.5 369.5>
VStem: 29.75 184.424<291.596 439.907> 217.5 152<-5 184.47 570 729.47>
LayerCount: 2
Fore
SplineSet
217.5 -5 m 1x8c
 217.5 184.469726562 l 1
 369.5 184.469726562 l 1
 369.5 -5 l 1
 217.5 -5 l 1x8c
217.5 570 m 1x1c
 217.5 729.469726562 l 1
 369.5 729.469726562 l 1
 369.5 570 l 1
 217.5 570 l 1x1c
EndSplineSet
Refer: 40 99 N 1 0 0 1 0 115 2
EndChar

StartChar: sterling
Encoding: 163 163 96
Width: 553
Flags: W
HStem: 0 163.9<230.819 523> 275.05 153.85<24.25 434> 579.246 160.216<266.154 455.846>
VStem: 43.6016 203.954<449.705 560.269> 116.074 176.032<230.748 413.897>
LayerCount: 2
Fore
SplineSet
434 275.049804688 m 1xe0
 24.25 275.049804688 l 1
 24.25 428.899902344 l 1
 434 428.899902344 l 1
 434 275.049804688 l 1xe0
523 0 m 1
 19.5 0 l 1
 19.5 135.5 l 1
 19.5 135.5 116.07421875 208.965897716 116.07421875 314.879882812 c 0xe8
 116.07421875 406.978675977 43.6015625 430.929208399 43.6015625 547.185546875 c 0
 43.6015625 671.3984375 147.320110231 739.461914062 302.80859375 739.461914062 c 0
 451.611175894 739.461914062 508.08203125 701.405273438 508.08203125 701.405273438 c 1
 480.4375 547.649414062 l 1
 480.4375 547.649414062 418.212428075 579.24609375 343.30859375 579.24609375 c 0
 280.680404694 579.24609375 247.555078125 561.339931094 247.555078125 510.774414062 c 0xf0
 247.555078125 456.410411217 292.106445312 420.815968034 292.106445312 335.908203125 c 0xe8
 292.106445312 229.323956163 230.819335938 163.9 230.819335938 163.9 c 1
 523 163.9 l 1
 523 0 l 1
EndSplineSet
EndChar

StartChar: yen
Encoding: 165 165 97
Width: 649
Flags: W
HStem: 0 21G<229.5 419.5> 175 86<69 580> 305 131.75<229.5 419.5> 305 86<69 235.5 413.5 580> 322 69<235.5 413.5> 711.008 20G<14.75 232.034 416.966 634.25>
VStem: 229.5 190<0 436.75>
LayerCount: 2
Fore
SplineSet
235.5 322 m 1xce
 14.75 731.0078125 l 1
 223.95 731.0078125 l 1
 324.5 482.241015625 l 1
 425.05 731.0078125 l 1
 634.25 731.0078125 l 1
 413.5 322 l 1
 235.5 322 l 1xce
229.5 0 m 1
 229.5 436.75 l 1
 419.5 436.75 l 1xe6
 419.5 0 l 1
 229.5 0 l 1
580 175 m 1
 69 175 l 1
 69 261 l 1
 580 261 l 1
 580 175 l 1
580 305 m 1xd6
 69 305 l 1
 69 391 l 1
 580 391 l 1
 580 305 l 1xd6
EndSplineSet
EndChar

StartChar: currency
Encoding: 164 164 98
Width: 513
Flags: W
HStem: 156.724 132.962<214.298 298.135> 424.506 133.149<214.316 298.152>
VStem: 47.6113 146.349<303.349 412.845> 319.04 146.349<303.817 412.406>
LayerCount: 2
Fore
SplineSet
299.989257812 213.436523438 m 1
 419.139648438 246.325195312 l 1
 513.509765625 124.765625 l 1
 359.080078125 66.1455078125 l 1
 299.989257812 213.436523438 l 1
213.270507812 213.436523438 m 1
 154.1796875 66.1455078125 l 1
 -0.25 124.765625 l 1
 94.1201171875 246.325195312 l 1
 213.270507812 213.436523438 l 1
299.989257812 497.74609375 m 1
 359.080078125 645.036132812 l 1
 513.509765625 586.416015625 l 1
 419.139648438 464.856445312 l 1
 299.989257812 497.74609375 l 1
213.270507812 497.74609375 m 1
 94.1201171875 464.856445312 l 1
 -0.25 586.416015625 l 1
 154.1796875 645.036132812 l 1
 213.270507812 497.74609375 l 1
193.959960938 359.283203125 m 0
 193.959960938 317.549217179 212.391146548 289.685546875 255.5 289.685546875 c 0
 300.010186731 289.685546875 319.040039062 317.549217179 319.040039062 359.283203125 c 0
 319.040039062 398.394085865 300.043402773 424.505859375 255.611328125 424.505859375 c 0
 212.424362984 424.505859375 193.959960938 398.394085865 193.959960938 359.283203125 c 0
47.611328125 359.283203125 m 0
 47.611328125 479.317382812 126.271771452 557.655273438 255.5 557.655273438 c 0
 385.971390647 557.655273438 465.388671875 479.317382812 465.388671875 359.283203125 c 0
 465.388671875 236.715820312 385.971390647 156.723632812 255.5 156.723632812 c 0
 126.271771452 156.723632812 47.611328125 236.715820312 47.611328125 359.283203125 c 0
EndSplineSet
EndChar

StartChar: brokenbar
Encoding: 166 166 99
Width: 249
Flags: W
VStem: 49.75 149.5<-171.47 239 339 759.47>
LayerCount: 2
Fore
SplineSet
49.75 -171.469726562 m 1
 49.75 239 l 1
 199.25 239 l 1
 199.25 -171.469726562 l 1
 49.75 -171.469726562 l 1
49.75 339 m 1
 49.75 759.469726562 l 1
 199.25 759.469726562 l 1
 199.25 339 l 1
 49.75 339 l 1
EndSplineSet
EndChar

StartChar: section
Encoding: 167 167 100
Width: 593
Flags: W
HStem: -19.6709 140.141<161.265 321.754> 614.462 140.141<272.365 430.298>
VStem: 24.9429 159.608<360.046 445.306> 409.568 159.608<290.278 376.176>
LayerCount: 2
Fore
SplineSet
167.6484375 535.653320312 m 1
 237.45690918 459.951171875 l 1
 237.45690918 459.951171875 184.551269531 445.087006156 184.551269531 403.393554688 c 0
 184.551269531 367.354642677 205.289879999 342.010420427 328.988769531 319.769042969 c 0
 471.586914062 294.11328125 500.900268555 237.104005661 500.900268555 145.370117188 c 0
 500.900268555 42.560546875 412.7703125 -19.6708984375 267.985742188 -19.6708984375 c 0
 155.270898437 -19.6708984375 100.45300293 19.734375 100.45300293 19.734375 c 1
 138.831542969 152.475097656 l 1
 138.831542969 152.475097656 194.32019043 120.469726562 268.738159181 120.469726562 c 0
 307.716015625 120.469726562 325.244335938 131.913594362 325.244335938 150.368359375 c 0
 325.244335938 164.958131038 316.46049956 178.413388404 283.295898438 183.719238281 c 0
 81.1875816464 218.00900075 24.9428710938 279.511063544 24.9428710938 377.809570312 c 0
 24.9428710938 501.981511611 167.6484375 535.653320312 167.6484375 535.653320312 c 1
431.970214844 194.778320312 m 1
 356.661523438 274.98046875 l 1
 356.661523438 274.98046875 409.567871094 290.031157907 409.567871094 335.49609375 c 0
 409.567871094 367.420747948 389.95703125 394.724398754 269.294433594 415.322265625 c 0
 123.404319945 440.204625842 93.2181640625 497.907211722 93.2181640625 589.561523438 c 0
 93.2181640625 692.37109375 181.348120117 754.602539062 326.132690431 754.602539062 c 0
 438.847534181 754.602539062 488.665527344 715.197265625 488.665527344 715.197265625 c 1
 450.287109375 582.456542969 l 1
 450.287109375 582.456542969 399.797729493 614.461914062 325.380273438 614.461914062 c 0
 286.402770648 614.461914062 268.874609375 603.018046266 268.874609375 584.56328125 c 0
 268.874609375 570.580562473 277.595582768 557.524376449 309.434082031 552.710449219 c 0
 514.505512953 520.670190525 569.176269531 458.580665677 569.176269531 361.847167969 c 0
 569.176269531 230.009804642 431.970214844 194.778320312 431.970214844 194.778320312 c 1
EndSplineSet
EndChar

StartChar: dieresis
Encoding: 168 168 101
Width: 459
Flags: W
HStem: 562.043 176.949<63.5554 185.444 273.555 395.444>
VStem: 36.6367 175.727<589.149 711.886> 246.637 175.727<589.149 711.886>
LayerCount: 2
Fore
SplineSet
246.63671875 650.517578125 m 0
 246.63671875 704.116926937 281.269798811 738.9921875 334.499023438 738.9921875 c 0
 387.729226374 738.9921875 422.36328125 704.116926937 422.36328125 650.517578125 c 0
 422.36328125 596.917260959 387.729226374 562.04296875 334.499023438 562.04296875 c 0
 281.269798812 562.04296875 246.63671875 596.917260959 246.63671875 650.517578125 c 0
36.63671875 650.517578125 m 0
 36.63671875 704.116926937 71.2697988119 738.9921875 124.499023438 738.9921875 c 0
 177.729226374 738.9921875 212.36328125 704.116926937 212.36328125 650.517578125 c 0
 212.36328125 596.917260959 177.729226374 562.04296875 124.499023438 562.04296875 c 0
 71.269798812 562.04296875 36.63671875 596.917260959 36.63671875 650.517578125 c 0
EndSplineSet
EndChar

StartChar: copyright
Encoding: 169 169 102
Width: 797
Flags: W
HStem: -9.99805 120.357<287.473 510.304> 177.281 119.356<375.92 519.909> 432.485 119.356<375.92 502.625> 618.764 120.357<287.473 510.304>
VStem: 35 123.396<241.946 487.177> 224.332 137.549<309.963 419.16> 639.381 123.396<241.946 487.177>
LayerCount: 2
Fore
SplineSet
224.33203125 364.561523438 m 0
 224.33203125 477.88408452 289.661705628 551.841796875 415.351367188 551.841796875 c 0
 498.1921875 551.841796875 538.247851562 518.7265625 538.247851562 518.7265625 c 1
 507.584765625 406.724609375 l 1
 507.584765625 406.724609375 486.25859375 432.485351562 430.851367188 432.485351562 c 0
 380.649858129 432.485351562 361.880859375 405.292577227 361.880859375 364.561523438 c 0
 361.880859375 323.830469649 380.649858129 296.637695312 430.851367188 296.637695312 c 0
 490.71171875 296.637695312 516.415820312 319.703125 516.415820312 319.703125 c 1
 539.820117188 204.578125 l 1
 539.820117188 204.578125 497.632617188 177.28125 415.351367188 177.28125 c 0
 289.661705628 177.28125 224.33203125 251.238962356 224.33203125 364.561523438 c 0
158.396484375 364.561523438 m 0
 158.396484375 212.128389922 230.422685595 110.359375 398.888671875 110.359375 c 0
 567.354658155 110.359375 639.380859375 212.128389922 639.380859375 364.561523438 c 0
 639.380859375 516.994656953 567.354658155 618.763671875 398.888671875 618.763671875 c 0
 230.422685595 618.763671875 158.396484375 516.994656953 158.396484375 364.561523438 c 0
35 364.561523438 m 0
 35 591.206054688 172.688476562 739.12109375 398.888671875 739.12109375 c 0
 625.088867188 739.12109375 762.77734375 591.206054688 762.77734375 364.561523438 c 0
 762.77734375 137.916992188 625.088867188 -9.998046875 398.888671875 -9.998046875 c 0
 172.688476562 -9.998046875 35 137.916992188 35 364.561523438 c 0
EndSplineSet
EndChar

StartChar: registered
Encoding: 174 174 103
Width: 797
Flags: W
HStem: -9.99805 120.357<287.473 510.304> 308.252 88.0508<313.875 411.188> 457.201 91.0547<366.5 427.974> 618.764 120.357<287.473 510.304>
VStem: 35 123.396<241.946 487.177> 238.875 127.625<182.752 308.252 396.303 457.201> 313.875 52.625<308.252 396.303> 430.115 124.549<399.025 454.044> 639.381 123.396<241.946 487.177>
LayerCount: 2
Fore
SplineSet
313.875 396.302734375 m 1xfb80
 391.744140625 396.357421875 l 2
 413.711256951 396.369827472 430.114746094 401.693422066 430.114746094 426.033203125 c 0
 430.114746094 451.332234145 413.711238204 457.126108588 391.744140625 457.150390625 c 2
 366.5 457.201171875 l 1
 366.5 182.751953125 l 1
 238.875 182.751953125 l 1
 238.875 548.255859375 l 1xfd80
 414.219335938 548.255859375 l 2
 488.113924923 548.255859375 554.663574219 517.167695185 554.663574219 434.108398438 c 0
 554.663574219 364.867169354 495.118652344 344.390625 495.118652344 344.390625 c 1
 495.118652344 344.390625 521.968077725 334.973058329 542.1265625 271.451171875 c 2
 570.275 182.751953125 l 1
 441.15 182.751953125 l 1
 416.155761719 271.895019531 l 2
 407.209758613 304.696298165 400.39813853 308.251953125 374.424804688 308.251953125 c 2
 313.875 308.251953125 l 1
 313.875 396.302734375 l 1xfb80
158.396484375 364.561523438 m 0
 158.396484375 212.128389922 230.422685595 110.359375 398.888671875 110.359375 c 0
 567.354658155 110.359375 639.380859375 212.128389922 639.380859375 364.561523438 c 0
 639.380859375 516.994656953 567.354658155 618.763671875 398.888671875 618.763671875 c 0
 230.422685595 618.763671875 158.396484375 516.994656953 158.396484375 364.561523438 c 0
35 364.561523438 m 0
 35 591.206054688 172.688476562 739.12109375 398.888671875 739.12109375 c 0
 625.088867188 739.12109375 762.77734375 591.206054688 762.77734375 364.561523438 c 0
 762.77734375 137.916992188 625.088867188 -9.998046875 398.888671875 -9.998046875 c 0
 172.688476562 -9.998046875 35 137.916992188 35 364.561523438 c 0
EndSplineSet
EndChar

StartChar: uni2117
Encoding: 8471 8471 104
Width: 797
Flags: W
HStem: -9.99805 120.357<287.473 510.304> 286.752 95.6758<314.094 446.186> 451.101 97.1548<372.494 444.674> 618.764 120.357<287.473 510.304>
VStem: 35 123.396<241.946 487.177> 244.869 127.625<182.752 286.752 382.428 451.101> 314.094 58.3999<286.752 382.428> 449.234 126.099<386.332 446.629> 639.381 123.396<241.946 487.177>
LayerCount: 2
Fore
SplineSet
314.094238281 286.751953125 m 1xfb80
 314.094238281 382.427734375 l 1xfb80
 401.738769531 382.482421875 l 2
 428.92996999 382.49551585 449.234375 388.515312608 449.234375 416.033203125 c 0
 449.234375 444.503113001 428.929960275 451.016622257 401.738769531 451.050292969 c 2
 372.494140625 451.101074219 l 1
 372.494140625 182.751953125 l 1
 244.869140625 182.751953125 l 1
 244.869140625 548.255859375 l 1xfd80
 430.488769531 548.255859375 l 2
 506.698344062 548.255859375 575.333007812 512.244978898 575.333007812 416.033203125 c 0
 575.333007812 321.475395761 503.247491427 286.751953125 424.188476562 286.751953125 c 2
 314.094238281 286.751953125 l 1xfb80
158.396484375 364.561523438 m 0
 158.396484375 212.128389922 230.422685595 110.359375 398.888671875 110.359375 c 0
 567.354658155 110.359375 639.380859375 212.128389922 639.380859375 364.561523438 c 0
 639.380859375 516.994656953 567.354658155 618.763671875 398.888671875 618.763671875 c 0
 230.422685595 618.763671875 158.396484375 516.994656953 158.396484375 364.561523438 c 0
35 364.561523438 m 0
 35 591.206054688 172.688476562 739.12109375 398.888671875 739.12109375 c 0
 625.088867188 739.12109375 762.77734375 591.206054688 762.77734375 364.561523438 c 0
 762.77734375 137.916992188 625.088867188 -9.998046875 398.888671875 -9.998046875 c 0
 172.688476562 -9.998046875 35 137.916992188 35 364.561523438 c 0
EndSplineSet
EndChar

StartChar: guillemotleft
Encoding: 171 171 105
Width: 590
Flags: W
LayerCount: 2
Fore
SplineSet
29.75 281 m 1
 169.75 441 l 1
 350.75 441 l 1
 197.5 254 l 1
 350.75 67 l 1
 169.75 67 l 1
 29.75 227 l 1
 29.75 281 l 1
279.75 281 m 1
 419.75 441 l 1
 600.75 441 l 1
 447.5 254 l 1
 600.75 67 l 1
 419.75 67 l 1
 279.75 227 l 1
 279.75 281 l 1
EndSplineSet
EndChar

StartChar: guillemotright
Encoding: 187 187 106
Width: 590
Flags: W
LayerCount: 2
Fore
SplineSet
560.25 227 m 1
 420.25 67 l 1
 239.25 67 l 1
 392.5 254 l 1
 239.25 441 l 1
 420.25 441 l 1
 560.25 281 l 1
 560.25 227 l 1
310.25 227 m 1
 170.25 67 l 1
 -10.75 67 l 1
 142.5 254 l 1
 -10.75 441 l 1
 170.25 441 l 1
 310.25 281 l 1
 310.25 227 l 1
EndSplineSet
EndChar

StartChar: mu
Encoding: 181 181 107
Width: 595
Flags: W
HStem: -9.92285 149.024<192.079 333.034> 0 21G<366.027 546.027> 481.011 20G<49.75 229.75 366.027 546.027>
VStem: 49.75 180<196.449 501.011> 119.75 110<56.9259 321.011> 366.027 180<207.449 501.011>
LayerCount: 2
Fore
SplineSet
49.75 -180 m 1x34
 49.75 501.010742188 l 1
 229.75 501.010742188 l 1x34
 229.75 -180 l 1x2c
 49.75 -180 l 1x34
366.02734375 217.010742188 m 9
 426.27734375 207.44921875 l 17
 403.837400743 57.0107421876 361.16506976 -9.9228515625 238.02734375 -9.9228515625 c 0
 146.13004671 -9.9228515625 119.75 56.9259207049 119.75 196.44921875 c 2
 119.75 321.010742188 l 1xac
 229.75 321.010742188 l 1
 229.75 213.44921875 l 2
 229.75 166.35245047 249.732919456 139.1015625 296.77734375 139.1015625 c 0xb4
 345.287373581 139.1015625 366.02734375 170.292228604 366.02734375 217.010742188 c 9
546.02734375 501.010742188 m 1
 546.02734375 0 l 1
 366.02734375 0 l 1x64
 366.02734375 501.010742188 l 1
 546.02734375 501.010742188 l 1
EndSplineSet
EndChar

StartChar: acute
Encoding: 180 180 108
Width: 242
Flags: W
HStem: 505.5 235.508
VStem: -4.25 250.5
LayerCount: 2
Fore
SplineSet
106.25 505.5 m 1
 -4.25 525.5 l 1
 79.25 741.0078125 l 1
 246.25 711.0078125 l 1
 106.25 505.5 l 1
EndSplineSet
EndChar

StartChar: macron
Encoding: 175 175 109
Width: 374
Flags: W
HStem: 599.508 131.5<19.5 354.5>
LayerCount: 2
Fore
SplineSet
354.5 599.5078125 m 1
 19.5 599.5078125 l 1
 19.5 731.0078125 l 1
 354.5 731.0078125 l 1
 354.5 599.5078125 l 1
EndSplineSet
EndChar

StartChar: uni00AD
Encoding: 173 173 110
Width: 354
Flags: W
HStem: 199.025 160.95<19.5 334.5>
VStem: 19.5 315<199.025 359.975>
LayerCount: 2
Fore
SplineSet
334.5 199.025 m 1
 19.5 199.025 l 1
 19.5 359.975 l 1
 334.5 359.975 l 1
 334.5 199.025 l 1
EndSplineSet
EndChar

StartChar: logicalnot
Encoding: 172 172 111
Width: 450
Flags: W
HStem: 287.125 141.75<30 282.125>
VStem: 282.125 145.75<165 287.125>
LayerCount: 2
Fore
SplineSet
427.875 165 m 1
 282.125 165 l 1
 282.125 287.125 l 1
 30 287.125 l 1
 30 428.875 l 1
 427.875 428.875 l 1
 427.875 165 l 1
EndSplineSet
EndChar

StartChar: minus
Encoding: 8722 8722 112
Width: 450
Flags: W
HStem: 287.125 141.75<25 425>
LayerCount: 2
Fore
SplineSet
425 287.125 m 1
 25 287.125 l 1
 25 428.875 l 1
 425 428.875 l 1
 425 287.125 l 1
EndSplineSet
EndChar

StartChar: notequal
Encoding: 8800 8800 113
Width: 450
Flags: W
HStem: 207.125 131.75<25 425> 377.125 131.75<25 425>
LayerCount: 2
Fore
SplineSet
39.5 108.530273438 m 1
 244.5 601.403320312 l 1
 404.5 601.403320312 l 1
 199.5 108.530273438 l 1
 39.5 108.530273438 l 1
EndSplineSet
Refer: 52 61 N 1 0 0 1 0 0 2
EndChar

StartChar: partialdiff
Encoding: 8706 8706 114
Width: 620
Flags: W
HStem: -9.99805 159.164<236.791 351.152> 329.616 140.984<246.485 363.814> 568.944 170.048<183.817 355.143>
VStem: 29.75 186.167<167.939 299.713>
LayerCount: 2
Fore
SplineSet
382.616699219 249.390625 m 0
 382.616699219 297.204330024 359.834426749 329.615722656 308.266601562 329.615722656 c 0
 241.833496094 329.615722656 215.916503906 286.263931695 215.916503906 229.390625 c 0
 215.916503906 181.576919976 238.990780588 149.165527344 291.266601562 149.165527344 c 0
 356.9921875 149.165527344 382.616699219 192.517318305 382.616699219 249.390625 c 0
406.411328125 428.172070312 m 1
 402.097893224 516.20255333 363.902922692 568.944335938 278.38671875 568.944335938 c 0
 199.904850733 568.944335938 159.49609375 531.388671875 159.49609375 531.388671875 c 1
 97.9912109382 688.860351562 l 1
 97.9912109382 688.860351562 164.526507874 738.9921875 295.8671875 738.9921875 c 0
 485.208833298 738.9921875 590.415039062 612.671898034 590.415039062 385.331054688 c 0
 590.415039062 105.516837439 478.199630738 -9.998046875 288.8671875 -9.998046875 c 0
 128.173691927 -9.998046875 29.75 75.5176128099 29.75 229 c 0
 29.75 372.20164401 122.356810525 470.599609375 276.401367188 470.599609375 c 0
 371.051220933 470.599609375 406.411328125 428.172070312 406.411328125 428.172070312 c 1
EndSplineSet
EndChar

StartChar: emptyset
Encoding: 8709 8709 115
Width: 797
Flags: W
HStem: -9.99805 132.962<337.183 510.082> 606.159 132.962<287.695 460.594>
VStem: 35 135.349<245.082 484.041> 627.429 135.349<245.082 484.041>
LayerCount: 2
Fore
SplineSet
170.348632812 364.561523438 m 0
 170.348632812 219.686639235 238.795038483 122.963867188 398.888671875 122.963867188 c 0
 558.982305267 122.963867188 627.428710938 219.686639235 627.428710938 364.561523438 c 0
 627.428710938 509.436407637 558.982305267 606.159179688 398.888671875 606.159179688 c 0
 238.795038483 606.159179688 170.348632812 509.436407637 170.348632812 364.561523438 c 0
35 364.561523438 m 0
 35 591.206054688 172.688476562 739.12109375 398.888671875 739.12109375 c 0
 625.088867188 739.12109375 762.77734375 591.206054688 762.77734375 364.561523438 c 0
 762.77734375 137.916992188 625.088867188 -9.998046875 398.888671875 -9.998046875 c 0
 172.688476562 -9.998046875 35 137.916992188 35 364.561523438 c 0
96.25 -90.873046875 m 1
 561.25 812 l 1
 700.75 812 l 1
 235.75 -90.873046875 l 1
 96.25 -90.873046875 l 1
EndSplineSet
EndChar

StartChar: Delta
Encoding: 8710 8710 116
Width: 719
Flags: W
HStem: 0 174.9<227.125 491.875> 711.008 20G<246.56 462.793>
LayerCount: 2
Fore
SplineSet
689.25 0 m 1
 29.75 0 l 1
 29.75 164.9 l 1
 254.5 731.0078125 l 1
 454.5 731.0078125 l 1
 689.25 164.9 l 1
 689.25 0 l 1
491.875 174.9 m 1
 355.393554688 514.063476562 l 1
 227.125 174.9 l 1
 491.875 174.9 l 1
EndSplineSet
EndChar

StartChar: plusminus
Encoding: 177 177 117
Width: 450
Flags: W
HStem: 135.925 131.75<30 154.125 295.875 420> 163.8 103.875<154.125 295.875> 331.325 141.75<30 420>
VStem: 30 390<135.925 267.675 331.325 473.075> 154.125 141.75<163.8 572.2>
LayerCount: 2
Fore
SplineSet
420 135.925 m 1xb0
 30 135.925 l 1
 30 267.675 l 1
 420 267.675 l 1
 420 135.925 l 1xb0
154.125 163.8 m 1x68
 154.125 572.2 l 1
 295.875 572.2 l 1
 295.875 163.8 l 1
 154.125 163.8 l 1x68
420 331.325 m 1x30
 30 331.325 l 1
 30 473.075 l 1
 420 473.075 l 1
 420 331.325 l 1x30
EndSplineSet
EndChar

StartChar: degree
Encoding: 176 176 118
Width: 431
Flags: W
HStem: 400.07 127.701<176.306 257.008> 633.113 127.889<176.044 257.299>
VStem: 27.375 140.162<535.277 625.818> 264.24 140.162<535.57 625.53>
LayerCount: 2
Fore
SplineSet
167.537109375 580.854492188 m 0
 167.537109375 549.023425294 181.688200683 527.771679688 214.786132812 527.771679688 c 0
 249.428931224 527.771679688 264.240234375 549.023425294 264.240234375 580.854492188 c 0
 264.240234375 612.191538859 249.465986522 633.113085938 214.909179688 633.113085938 c 0
 181.725254342 633.113085938 167.537109375 612.191538859 167.537109375 580.854492188 c 0
27.375 580.629882812 m 0
 27.375 689.772696384 98.3261732098 761.001953125 214.888671875 761.001953125 c 0
 332.694332637 761.001953125 404.40234375 689.772696384 404.40234375 580.629882812 c 0
 404.40234375 471.374251811 332.694332637 400.0703125 214.888671875 400.0703125 c 0
 98.3261732098 400.0703125 27.375 471.374251811 27.375 580.629882812 c 0
EndSplineSet
EndChar

StartChar: cedilla
Encoding: 184 184 120
Width: 317
VWidth: 999
Flags: W
HStem: -255 98<47.9355 166.777>
VStem: 167.5 119.5<-153.713 -100.836>
LayerCount: 2
Fore
SplineSet
287 -131 m 0
 287 -209.970703125 237.749023438 -255 146 -255 c 0
 83.2592756601 -255 26.85 -232 26.85 -232 c 1
 54 -135.5 l 1
 54 -135.5 85.5291041324 -157 128.5 -157 c 0
 156.510375976 -157 167.5 -146.862585936 167.5 -127.9 c 0
 167.5 -109.14621114 155.394147635 -99.75 135.725097656 -99.75 c 0
 112.939317226 -99.75 105 -111 105 -111 c 1
 47 -92 l 1
 69 39 l 1
 160.825195312 39 l 1
 149.860351562 -26.9287109375 l 1
 149.860351562 -26.9287109375 157.430273445 -21 187.075195312 -21 c 0
 253.908637269 -21 287 -62.5234375 287 -131 c 0
EndSplineSet
EndChar

StartChar: paragraph
Encoding: 182 182 121
Width: 682
Flags: W
HStem: 580.092 150.9<405.889 480.639>
VStem: 24.75 381.139<388.968 576.868> 248.139 157.75<-179.994 284.637> 480.639 157.75<-179.994 580.092>
LayerCount: 2
Fore
SplineSet
405.888671875 -179.994140625 m 1xb0
 248.138671875 -179.994140625 l 1
 248.138671875 282.9921875 l 1xb0
 123.402090784 292.9921875 24.75 337.833007812 24.75 499.432617188 c 0xd0
 24.75 667.032226562 136.75 730.9921875 278.638671875 730.9921875 c 2
 638.388671875 730.9921875 l 1
 638.388671875 -179.994140625 l 1
 480.638671875 -179.994140625 l 1
 480.638671875 580.0921875 l 1
 405.888671875 580.0921875 l 1
 405.888671875 -179.994140625 l 1xb0
EndSplineSet
EndChar

StartChar: ordfeminine
Encoding: 170 170 122
Width: 402
Flags: W
HStem: 369.992 104.5<287.887 395.31> 369.992 95.4<97.75 214.885> 522.042 70.375<154.955 232.5> 629.392 109.6<67.341 209.929>
VStem: 220.5 37<417.042 487.617> 220.5 12<522.042 592.417>
LayerCount: 2
Fore
SplineSet
220.5 502.6171875 m 1x74
 220.5 480.109047965 204.916666667 465.3921875 182.25 465.3921875 c 0
 159.191463414 465.3921875 149.65 474.953477822 149.65 490.0921875 c 0
 149.65 516.233096591 169.781775701 522.0421875 232.5 522.0421875 c 1
 232.5 592.4171875 l 1x74
 105.560538116 592.4171875 14.75 576.630746822 14.75 475.9921875 c 0
 14.75 411.9921875 60.75 369.9921875 134.75 369.9921875 c 0
 218.181640625 369.9921875 257.5 417.0421875 257.5 487.6171875 c 1x78
 220.5 502.6171875 l 1x74
220.5 571.1671875 m 2
 220.5 459.9921875 l 2
 220.5 398.9921875 253.92393617 369.9921875 321.85 369.9921875 c 0
 375.173943662 369.9921875 400.725 386.9921875 400.725 386.9921875 c 1
 394.725 478.4921875 l 1
 394.725 478.4921875 388.692105264 474.4921875 378.35 474.4921875 c 0xb8
 363.350069754 474.4921875 357.350097656 481.666100546 357.350097656 501.9921875 c 2
 357.350097656 501.9921875 357.350097656 595.9921875 357.35 595.9921875 c 2
 357.35 682.197861259 307.0159375 738.9921875 186 738.9921875 c 0
 99.8875000003 738.9921875 40.75 705.9921875 40.75 705.9921875 c 1
 68.75 608.0171875 l 1
 68.75 608.0171875 107.274137932 629.3921875 161.85 629.3921875 c 0
 202.526612903 629.3921875 220.5 611.549042339 220.5 571.1671875 c 2
EndSplineSet
EndChar

StartChar: ordmasculine
Encoding: 186 186 123
Width: 418
Flags: W
HStem: 367.992 119.55<166.212 252.065> 619.442 119.55<166.212 251.932>
VStem: 23 130.7<499.075 609.766> 264.3 130.7<499.075 609.766>
LayerCount: 2
Fore
SplineSet
153.7 554.9921875 m 0
 153.7 513.975295609 170.29 487.5421875 209 487.5421875 c 0
 248.5 487.5421875 264.3 513.975295609 264.3 554.9921875 c 0
 264.3 593.117539612 247.71 619.4421875 209 619.4421875 c 0
 170.29 619.4421875 153.7 593.117539612 153.7 554.9921875 c 0
23 555.9921875 m 0
 23 667.025895365 94 738.9921875 209 738.9921875 c 0
 325 738.9921875 395 667.025895365 395 555.9921875 c 0
 395 441.959400615 325 367.9921875 209 367.9921875 c 0
 94 367.9921875 23 441.959400615 23 555.9921875 c 0
EndSplineSet
EndChar

StartChar: arrowleft
Encoding: 8592 8592 124
Width: 550
Flags: W
HStem: 284.39 148.5<262.824 537.749> 294.39 128.5<144.999 419.924>
LayerCount: 2
Fore
SplineSet
537.749023438 284.389648438 m 1x80
 144.999023438 294.389648438 l 1
 144.999023438 422.889648438 l 1x40
 537.749023438 432.889648438 l 1
 537.749023438 284.389648438 l 1x80
178.561523438 358.638671875 m 1
 354.598632812 211.8671875 l 1
 245.510742188 102.779296875 l 1
 12.2509765625 358.638671875 l 1
 245.510742188 614.5 l 1
 354.598632812 505.41015625 l 1
 178.561523438 358.638671875 l 1
EndSplineSet
EndChar

StartChar: product
Encoding: 8719 8719 128
Width: 719
Flags: W
HStem: 566.633 164.375<239.75 479.25>
VStem: 49.75 190<-179.994 566.633> 479.25 190<-179.994 566.633>
LayerCount: 2
Fore
SplineSet
669.25 731.0078125 m 1
 669.25 -179.994140625 l 1
 479.25 -179.994140625 l 1
 479.25 566.6328125 l 1
 239.75 566.6328125 l 1
 239.75 -179.994140625 l 1
 49.75 -179.994140625 l 1
 49.75 731.0078125 l 1
 669.25 731.0078125 l 1
EndSplineSet
EndChar

StartChar: summation
Encoding: 8721 8721 129
Width: 634
Flags: W
HStem: -179.994 164.9<265.525 609.25> 566.108 164.9<285.525 609.25>
LayerCount: 2
Back
SplineSet
264 585.0078125 m 5
 394 410 l 5
 394 319 l 5
 244 146 l 5
 544 146 l 5
 544 0 l 5
 55 0 l 5
 55 161 l 5
 235 358 l 5
 55 589 l 5
 55 731.0078125 l 5
 544 731.0078125 l 5
 544 585.0078125 l 5
 264 585.0078125 l 5
EndSplineSet
Fore
SplineSet
285.525 566.1078125 m 1
 434.525 330 l 1
 434.525 239 l 1
 434.525 239 265.525 -15.094140625 265.525 -15.094140625 c 1
 265.525 -15.094140625 609.25 -15.094140625 609.25 -15.094140625 c 1
 609.25 -15.094140625 609.25 -179.994140625 609.25 -179.994140625 c 1
 49.75 -179.994140625 l 1
 49.75 -179.994140625 49.75 -0.094140625 49.75 -0.094140625 c 1
 49.75 -0.094140625 254 278 254 278 c 1
 49.75 570.1 l 1
 49.75 731.0078125 l 1
 609.25 731.0078125 l 1
 609.25 566.1078125 l 1
 285.525 566.1078125 l 1
EndSplineSet
EndChar

StartChar: approxequal
Encoding: 8776 8776 130
Width: 450
VWidth: 999
Flags: W
HStem: 161.5 151<237.69 354.377> 210.5 150<94.8902 211.542> 361.5 151<237.69 354.377> 410.5 150<94.8902 211.542>
LayerCount: 2
Fore
SplineSet
438 250 m 1x80
 438 250 386.065429688 161.5 306 161.5 c 0x80
 228.461914062 161.5 202.615234375 210.5 146 210.5 c 0
 112.047851562 210.5 84.3500976562 179.125 84.3500976562 179.125 c 1
 12 295.25 l 1
 12 295.25 69.3447265625 360.5 144 360.5 c 0x40
 219.556640625 360.5 251.241699219 312.5 302.424804688 312.5 c 0
 339.868164062 312.5 359.024902344 339.350097656 359.024902344 339.350097656 c 1
 438 250 l 1x80
438 450 m 1
 438 450 386.065429688 361.5 306 361.5 c 0x20
 228.461914062 361.5 202.615234375 410.5 146 410.5 c 0
 112.047851562 410.5 84.3500976562 379.125 84.3500976562 379.125 c 1
 12 495.25 l 1
 12 495.25 69.3447265625 560.5 144 560.5 c 0x10
 219.556640625 560.5 251.241699219 512.5 302.424804688 512.5 c 0x20
 339.868164062 512.5 359.024902344 539.350097656 359.024902344 539.350097656 c 1
 438 450 l 1
EndSplineSet
EndChar

StartChar: perthousand
Encoding: 8240 8240 131
Width: 1263
Flags: W
HStem: -9.99805 129.905<674.652 766.397 988.858 1080.6> 0 21G<190.75 342.151> 262.447 129.904<674.196 766.867 988.403 1081.07> 336.643 129.904<184.876 278.759> 609.087 129.905<184.408 279.249> 711.008 20G<613.849 765.25>
VStem: 29.75 139.785<481.784 594.68> 295.535 137.675<482.277 594.202> 520.75 138.785<135.144 248.04> 843.375 68.21<81.3259 302.277> 1096.54 137.675<135.144 248.04>
LayerCount: 2
Fore
SplineSet
974.78515625 191.731445312 m 0xa3e0
 974.78515625 140.205145756 1001.92929688 119.907226562 1035.10546875 119.907226562 c 0
 1068.06796386 119.907226562 1096.53515625 140.205145756 1096.53515625 191.731445312 c 0
 1096.53515625 243.590182186 1068.06796386 262.447265625 1035.10546875 262.447265625 c 0
 1001.92929688 262.447265625 974.78515625 243.590182186 974.78515625 191.731445312 c 0xa3e0
843.375 191.731445312 m 0
 843.375 302.276630673 916.979007935 392.3515625 1045.10546875 392.3515625 c 0
 1171.65311945 392.3515625 1234.20996094 302.276630673 1234.20996094 191.731445312 c 0
 1234.20996094 81.3259204572 1171.65311945 -9.998046875 1045.10546875 -9.998046875 c 0
 916.979007935 -9.998046875 843.375 81.3259204572 843.375 191.731445312 c 0
659.53515625 191.731445312 m 0
 659.53515625 140.204943602 686.678954496 119.907226562 719.85546875 119.907226562 c 0
 752.817907479 119.907226562 781.28515625 140.204943602 781.28515625 191.731445312 c 0
 781.28515625 243.590074203 752.817907479 262.447265625 719.85546875 262.447265625 c 0
 686.678954496 262.447265625 659.53515625 243.590074203 659.53515625 191.731445312 c 0
520.75 191.731445312 m 0
 520.75 302.277073185 583.306836944 392.3515625 709.85546875 392.3515625 c 0
 837.980943482 392.3515625 911.584960938 302.276630673 911.584960938 191.731445312 c 0
 911.584960938 81.3259204572 837.980943482 -9.998046875 709.85546875 -9.998046875 c 0
 583.306836944 -9.998046875 520.75 81.3256036272 520.75 191.731445312 c 0
169.53515625 538.372070312 m 0
 169.53515625 486.845515631 197.410195273 466.546875 231.48046875 466.546875 c 0
 265.851451217 466.546875 295.53515625 486.845515631 295.53515625 538.372070312 c 0
 295.53515625 590.229742616 265.851451217 609.086914062 231.48046875 609.086914062 c 0x1be0
 197.410195273 609.086914062 169.53515625 590.229742616 169.53515625 538.372070312 c 0
29.75 538.372070312 m 0
 29.75 648.917698185 103.35421746 738.9921875 231.48046875 738.9921875 c 0
 359.60571434 738.9921875 433.209960938 648.917698185 433.209960938 538.372070312 c 0
 433.209960938 427.966228627 359.60571434 336.642578125 231.48046875 336.642578125 c 0
 103.35421746 336.642578125 29.75 427.966228627 29.75 538.372070312 c 0
EndSplineSet
Refer: 138 8260 N 1 0 0 1 301 0 2
EndChar

StartChar: uni2031
Encoding: 8241 8241 132
Width: 1573
Flags: W
HStem: -9.99805 129.905<674.652 766.397 987.309 1077.95 1298.86 1390.6> 0 21G<190.75 342.151> 262.447 129.904<674.196 766.867 986.853 1078.42 1298.4 1391.07> 336.643 129.904<184.876 278.759> 609.087 129.905<184.408 279.249> 711.008 20G<613.849 765.25>
VStem: 29.75 139.785<481.784 594.68> 295.535 137.675<482.277 594.202> 520.75 138.785<135.144 248.04> 781.285 190.875<140.205 243.59> 846 65.585<81.3259 302.277> 1093.91 190.875<140.205 243.59> 1153.38 65.585<81.3259 302.277> 1406.54 137.675<135.144 248.04>
LayerCount: 2
Fore
SplineSet
1284.78515625 191.731445312 m 0xa394
 1284.78515625 140.205145756 1311.92929688 119.907226562 1345.10546875 119.907226562 c 0
 1378.06796386 119.907226562 1406.53515625 140.205145756 1406.53515625 191.731445312 c 0
 1406.53515625 243.590182186 1378.06796386 262.447265625 1345.10546875 262.447265625 c 0
 1311.92929688 262.447265625 1284.78515625 243.590182186 1284.78515625 191.731445312 c 0xa394
1153.375 191.731445312 m 0xa38c
 1153.375 302.276630673 1226.97900793 392.3515625 1355.10546875 392.3515625 c 0
 1481.65311945 392.3515625 1544.20996094 302.276630673 1544.20996094 191.731445312 c 0
 1544.20996094 81.3259204572 1481.65311945 -9.998046875 1355.10546875 -9.998046875 c 0
 1226.97900793 -9.998046875 1153.375 81.3259204572 1153.375 191.731445312 c 0xa38c
972.16015625 191.731445312 m 0xa3d4
 972.16015625 140.205145756 999.304296873 119.907226562 1032.48046875 119.907226562 c 0
 1065.44296386 119.907226562 1093.91015625 140.205145756 1093.91015625 191.731445312 c 0
 1093.91015625 243.590182186 1065.44296386 262.447265625 1032.48046875 262.447265625 c 0
 999.304296873 262.447265625 972.16015625 243.590182186 972.16015625 191.731445312 c 0xa3d4
846 191.731445312 m 0xa3ac
 846 302.276630673 907.688476562 392.3515625 1032.48046875 392.3515625 c 0
 1157.27148438 392.3515625 1218.95996094 302.276630673 1218.95996094 191.731445312 c 0
 1218.95996094 81.3259204572 1157.27148438 -9.998046875 1032.48046875 -9.998046875 c 0
 907.688476562 -9.998046875 846 81.3259204572 846 191.731445312 c 0xa3ac
659.53515625 191.731445312 m 0
 659.53515625 140.204943602 686.678954496 119.907226562 719.85546875 119.907226562 c 0
 752.817907479 119.907226562 781.28515625 140.204943602 781.28515625 191.731445312 c 0xa3c4
 781.28515625 243.590074203 752.817907479 262.447265625 719.85546875 262.447265625 c 0
 686.678954496 262.447265625 659.53515625 243.590074203 659.53515625 191.731445312 c 0
520.75 191.731445312 m 0
 520.75 302.277073185 583.306836944 392.3515625 709.85546875 392.3515625 c 0
 837.980943482 392.3515625 911.584960938 302.276630673 911.584960938 191.731445312 c 0xa3a4
 911.584960938 81.3259204572 837.980943482 -9.998046875 709.85546875 -9.998046875 c 0
 583.306836944 -9.998046875 520.75 81.3256036272 520.75 191.731445312 c 0
169.53515625 538.372070312 m 0
 169.53515625 486.845515631 197.410195273 466.546875 231.48046875 466.546875 c 0
 265.851451217 466.546875 295.53515625 486.845515631 295.53515625 538.372070312 c 0
 295.53515625 590.229742616 265.851451217 609.086914062 231.48046875 609.086914062 c 0x1b84
 197.410195273 609.086914062 169.53515625 590.229742616 169.53515625 538.372070312 c 0
29.75 538.372070312 m 0
 29.75 648.917698185 103.35421746 738.9921875 231.48046875 738.9921875 c 0
 359.60571434 738.9921875 433.209960938 648.917698185 433.209960938 538.372070312 c 0
 433.209960938 427.966228627 359.60571434 336.642578125 231.48046875 336.642578125 c 0
 103.35421746 336.642578125 29.75 427.966228627 29.75 538.372070312 c 0
EndSplineSet
Refer: 138 8260 N 1 0 0 1 301 0 2
EndChar

StartChar: uni203D
Encoding: 8253 8253 133
Width: 566
Flags: W
HStem: -10 207.449<170.118 305.882> 288.33 134.218<210.677 330.844> 574.854 164.139<95.5489 368.335>
VStem: 134.887 206.227<25.44 162.009> 160 158<616.639 791.008> 212.423 83.4771<289.75 414.869> 352.346 184.774<441.627 544.931>
LayerCount: 2
Fore
SplineSet
182.1 240.5 m 1xe6
 160 791.0078125 l 1
 318 791.0078125 l 1xea
 295.9 240.5 l 1
 182.1 240.5 l 1xe6
134.88671875 93.724609375 m 0xf2
 134.88671875 156.56219511 175.531461449 197.44921875 237.999023438 197.44921875 c 0
 300.467538556 197.44921875 341.11328125 156.56219511 341.11328125 93.724609375 c 0
 341.11328125 30.8859370867 300.467538556 -10 237.999023438 -10 c 0
 175.531461449 -10 134.88671875 30.8859370867 134.88671875 93.724609375 c 0xf2
212.422851562 289.75 m 1xe6
 208.90625 426.96875 l 1
 208.90625 426.96875 234.063464855 422.548828125 265.6484375 422.548828125 c 0
 324.288202576 422.548828125 352.345703125 448.556302519 352.345703125 497.045507812 c 0
 352.345703125 551.008201265 304.508168642 574.853515625 225.31953125 574.853515625 c 0
 140.661664533 574.853515625 69.023828125 543.458007812 69.023828125 543.458007812 c 1
 20.2412109375 700.561523438 l 1
 20.2412109375 700.561523438 101.0703125 738.9921875 229.89453125 738.9921875 c 0
 414.159540143 738.9921875 537.120117188 664.052955768 537.120117188 498.910742188 c 0
 537.120117188 368.698985349 437.668622288 288.33046875 287.15 288.33046875 c 0
 221.575150699 288.33046875 212.422851562 289.75 212.422851562 289.75 c 1xe6
EndSplineSet
EndChar

StartChar: lira
Encoding: 8356 8356 134
Width: 553
Flags: W
HStem: 0 163.9<230.819 523> 225 86<34.25 424> 355 86<34.25 424> 579.246 160.216<265.701 458.084>
VStem: 41.3765 203.454<452.551 559.716> 116.074 176.032<260.329 354.305>
LayerCount: 2
Fore
SplineSet
523 0 m 1xf4
 19.5 0 l 1
 19.5 135.5 l 1
 19.5 135.5 116.07421875 208.965897716 116.07421875 314.879882812 c 0xf4
 116.07421875 406.978675977 41.3764648438 430.929397113 41.3764648438 547.185546875 c 0
 41.3764648438 671.398486467 150.904729755 739.461914062 302.80859375 739.461914062 c 0
 451.611175894 739.461914062 508.08203125 701.405273438 508.08203125 701.405273438 c 1
 480.4375 547.649414062 l 1
 480.4375 547.649414062 423.207805877 579.24609375 341.93359375 579.24609375 c 0
 281.333056912 579.24609375 244.830078125 561.339670193 244.830078125 510.774414062 c 0xf8
 244.830078125 456.410644531 292.106445312 420.815968034 292.106445312 335.908203125 c 0
 292.106445312 229.323956163 230.819335938 163.9 230.819335938 163.9 c 1
 523 163.9 l 1
 523 0 l 1xf4
424 225 m 1
 34.25 225 l 1
 34.25 311 l 1
 424 311 l 1
 424 225 l 1
424 355 m 1
 34.25 355 l 1
 34.25 441 l 1
 424 441 l 1
 424 355 l 1
EndSplineSet
EndChar

StartChar: uni20B5
Encoding: 8373 8373 135
Width: 623
Flags: W
HStem: -9.99805 79.4678<294.5 454.5> 655 84.1211<294.5 454.5>
VStem: 29.75 200.849<253.492 475.631> 294.5 160<-105 69.4697 655 829.47>
LayerCount: 2
Fore
SplineSet
29.75 364.561523438 m 0
 29.75 591.206054688 158.744422817 739.12109375 385.888671875 739.12109375 c 0
 537.397841668 739.12109375 599.681640625 672.891601562 599.681640625 672.891601562 c 1
 533.10546875 514.138671875 l 1
 533.10546875 514.138671875 488.526231583 565.659179688 398.138671875 565.659179688 c 0
 280.77624207 565.659179688 230.598632812 485.150440211 230.598632812 364.561523438 c 0
 230.598632812 243.972606664 283.771204321 163.463867188 408.138671875 163.463867188 c 0
 501.382601237 163.463867188 550.768554688 209.595703125 550.768554688 209.595703125 c 1
 602.827148438 44.595703125 l 1
 602.827148438 44.595703125 536.561329272 -9.998046875 385.888671875 -9.998046875 c 0
 158.744422817 -9.998046875 29.75 137.916992188 29.75 364.561523438 c 0
294.5 -105 m 1
 294.5 69.4697265625 l 1
 454.5 69.4697265625 l 1
 454.5 -105 l 1
 294.5 -105 l 1
294.5 655 m 1
 294.5 829.469726562 l 1
 454.5 829.469726562 l 1
 454.5 655 l 1
 294.5 655 l 1
EndSplineSet
EndChar

StartChar: uni20B2
Encoding: 8370 8370 136
Width: 739
Flags: W
HStem: -9.99805 79.4678<294.5 454.5> 280.225 154.275<355.5 468.469 645.677 719.25> 280.225 18.8707<468.469 645.677> 655 84.1211<294.5 454.5>
VStem: 29.75 198.349<242.991 482.693> 294.5 160<-105 69.4697 655 829.47> 479.756 177.351<191.543 280.15>
LayerCount: 2
Fore
SplineSet
294.5 -105 m 1x9e
 294.5 69.4697265625 l 1
 454.5 69.4697265625 l 1
 454.5 -105 l 1
 294.5 -105 l 1x9e
294.5 655 m 1
 294.5 829.469726562 l 1
 454.5 829.469726562 l 1
 454.5 655 l 1
 294.5 655 l 1
719.25 280.225 m 1xde
 355.5 280.225 l 1
 355.5 434.5 l 1
 719.25 434.5 l 1
 719.25 280.225 l 1xde
29.75 364.561523438 m 0
 29.75 591.206054688 161.857360177 739.12109375 378.888671875 739.12109375 c 0
 539.078807337 739.12109375 604.931640625 672.891601562 604.931640625 672.891601562 c 1
 533.63046875 515.713671875 l 1
 533.63046875 515.713671875 484.99684679 567.234179688 386.388671875 567.234179688 c 0
 275.505574159 567.234179688 228.098632812 486.0948945 228.098632812 364.561523438 c 0
 228.098632812 243.972606664 266.095325928 163.463867188 369.888671875 163.463867188 c 0
 448.354263489 163.463867188 479.756347656 197.055101765 479.756347656 252.5 c 0
 479.756347656 283.994634448 468.46875 299.095703125 468.46875 299.095703125 c 1
 645.677246094 299.095703125 l 1xbe
 645.677246094 299.095703125 657.107421875 269.24972273 657.107421875 216.5 c 0
 657.107421875 79.6444481321 564.670325917 -9.998046875 369.888671875 -9.998046875 c 0
 153.237180693 -9.998046875 29.75 137.916992188 29.75 364.561523438 c 0
EndSplineSet
EndChar

StartChar: uni20BA
Encoding: 8378 8378 137
Width: 648
Flags: W
HStem: 0 164.375<279.75 381.22> 711.008 20G<89.75 279.75>
VStem: 89.75 190<164.375 731.008>
LayerCount: 2
Fore
SplineSet
425 357.625 m 1
 24.75 242.375 l 1
 24.75 328.375 l 1
 425 443.625 l 1
 425 357.625 l 1
425 487.625 m 1
 24.75 372.375 l 1
 24.75 458.375 l 1
 425 573.625 l 1
 425 487.625 l 1
279.75 164.375 m 1
 300 164.375 l 2
 454.442934783 164.375 457.875 322.625 457.875 322.625 c 1
 626.625 294.95 l 1
 626.625 294.95 617.716192938 -3.72278596838e-14 300 0 c 2
 89.75 0 l 1
 89.75 731.0078125 l 1
 279.75 731.0078125 l 1
 279.75 164.375 l 1
EndSplineSet
EndChar

StartChar: fraction
Encoding: 8260 8260 138
Width: 304
Flags: W
HStem: 0 21G<-110.25 41.1514> 711.008 20G<312.849 464.25>
LayerCount: 2
Fore
SplineSet
-110.25 0 m 1
 324.75 731.0078125 l 1
 464.25 731.0078125 l 1
 29.25 0 l 1
 -110.25 0 l 1
EndSplineSet
EndChar

StartChar: endash
Encoding: 8211 8211 139
Width: 570
Flags: W
HStem: 199.025 160.95<24.75 545.25>
LayerCount: 2
Fore
SplineSet
24.75 199.025 m 1
 24.75 359.975 l 1
 545.25 359.975 l 1
 545.25 199.025 l 1
 24.75 199.025 l 1
EndSplineSet
EndChar

StartChar: emdash
Encoding: 8212 8212 140
Width: 820
Flags: W
HStem: 199.025 160.95<35.25 784.75>
LayerCount: 2
Fore
SplineSet
35.25 199.025 m 1
 35.25 359.975 l 1
 784.75 359.975 l 1
 784.75 199.025 l 1
 35.25 199.025 l 1
EndSplineSet
EndChar

StartChar: Euro
Encoding: 8364 8364 141
Width: 683
Flags: W
HStem: -9.99805 173.462<374.064 569.149> 260 86<24.75 465.457> 390 86<24.75 488.379> 565.659 173.462<371.727 548.618>
LayerCount: 2
Fore
SplineSet
465.45703125 260 m 1
 24.75 260 l 1
 24.75 346 l 1
 480.62109375 346 l 1
 465.45703125 260 l 1
488.37890625 390 m 1
 24.75 390 l 1
 24.75 476 l 1
 503.54296875 476 l 1
 488.37890625 390 l 1
89.75 364.561523438 m 0
 89.75 591.206054688 218.74433685 739.12109375 445.888671875 739.12109375 c 0
 597.397460938 739.12109375 659.681640625 672.891601562 659.681640625 672.891601562 c 1
 593.10546875 514.138671875 l 1
 593.10546875 514.138671875 546.874273561 565.659179688 453.138671875 565.659179688 c 0
 339.278500031 565.659179688 290.598632812 485.150440211 290.598632812 364.561523438 c 0
 290.598632812 243.972606664 342.198572574 163.463867188 462.888671875 163.463867188 c 0
 559.56455324 163.463867188 610.768554688 209.595703125 610.768554688 209.595703125 c 1
 662.827148438 44.595703125 l 1
 662.827148438 44.595703125 596.561523438 -9.998046875 445.888671875 -9.998046875 c 0
 218.74433685 -9.998046875 89.75 137.916992188 89.75 364.561523438 c 0
EndSplineSet
EndChar

StartChar: uni20AD
Encoding: 8365 8365 142
Width: 665
Flags: W
HStem: 0 21G<96.25 286.25 426.599 660.25> 289.75 131.5<35.25 619.25> 711.008 20G<96.25 286.25 424.427 650.25>
VStem: 96.25 190<0 321 391 731.008> 251.25 35<321 391>
LayerCount: 2
Fore
SplineSet
619.25 289.75 m 1xe0
 35.25 289.75 l 1
 35.25 421.25 l 1
 619.25 421.25 l 1
 619.25 289.75 l 1xe0
438.25 0 m 1
 251.25 321 l 1
 251.25 391 l 1xe8
 435.25 731.0078125 l 1
 650.25 731.0078125 l 1
 417.25 372 l 1
 660.25 0 l 1
 438.25 0 l 1
96.25 0 m 1xf0
 96.25 731.0078125 l 1
 286.25 731.0078125 l 1
 286.25 0 l 1
 96.25 0 l 1xf0
EndSplineSet
EndChar

StartChar: uni20B9
Encoding: 8377 8377 143
Width: 574
Flags: W
HStem: 0 21G<310.795 510.25> 247.6 155.577<24.75 241.891> 450 86<24.75 549.25> 566.799 164.208<24.75 253.075>
VStem: 280.179 190.849<399.199 610.313>
LayerCount: 2
Fore
SplineSet
144 247.6 m 2
 24.75 247.6 l 1
 24.75 403.1765625 l 1
 166.888671875 403.286914062 l 2
 231.577982036 403.33661242 280.178710938 417.855943517 280.178710938 484.311523438 c 0
 280.178710938 551.292026051 231.627223206 566.650405101 167.888671875 566.695898438 c 2
 24.75 566.799414062 l 1
 24.75 731.0078125 l 1
 183.888671875 731.0078125 l 2
 334.758480742 731.0078125 471.02734375 669.334960938 471.02734375 504.561523438 c 0
 471.02734375 371.875734629 366.188476562 331.276367188 366.188476562 331.276367188 c 1
 366.188476562 331.276367188 420.338449928 312.061994708 457.058056642 184.61640625 c 2
 510.25 0 l 1
 316.25 0 l 1
 271.25 165 l 2
 250.689293211 240.389258229 230.924295776 247.6 144 247.6 c 2
549.25 450 m 1
 24.75 450 l 1
 24.75 536 l 1
 549.25 536 l 1
 549.25 450 l 1
EndSplineSet
EndChar

StartChar: uni20B4
Encoding: 8372 8372 144
Width: 677
Flags: W
HStem: -10 159.737<261.969 485.925> 255 86<24.75 652.25> 385 86<311.522 652.25> 578.384 160.737<183.079 381.105>
VStem: 59.5 185.707<169.331 248.676> 400.306 191.837<476.671 559.482>
LayerCount: 2
Fore
SplineSet
652.25 255 m 1
 24.75 255 l 1
 24.75 341 l 1
 652.25 341 l 1
 652.25 255 l 1
652.25 385 m 1
 24.75 385 l 1
 24.75 471 l 1
 652.25 471 l 1
 652.25 385 l 1
330.522924805 275.319921875 m 0
 262.332439892 256.57244943 245.206640625 239.533858313 245.206640625 209.25 c 0
 245.206640625 169.981629414 277.497521941 149.736914062 345.323242188 149.736914062 c 0
 461.66009858 149.736914062 556.546875 197.732421875 556.546875 197.732421875 c 1
 593.703125 42.2294921875 l 1
 593.703125 42.2294921875 496.331054688 -10 342.71484375 -10 c 0
 158.102901949 -10 59.5 76.594720294 59.5 215.675 c 0
 59.5 334.477975874 115.410903917 405.906552198 311.522460938 449.006054688 c 0
 382.212735445 464.515145269 400.306054688 490.450960602 400.306054688 517.75 c 0
 400.306054688 555.175465957 370.806222984 578.384179688 305.20625 578.384179688 c 0
 203.738919157 578.384179688 134.8984375 535.863671875 134.8984375 535.863671875 c 1
 92.5244140625 688.891601562 l 1
 92.5244140625 688.891601562 166.066432438 739.12109375 317.286132812 739.12109375 c 0
 488.14241154 739.12109375 592.142578125 651.292654665 592.142578125 514.9 c 0
 592.142578125 395.763427774 529.979589843 330.142163086 330.522924805 275.319921875 c 0
EndSplineSet
EndChar

StartChar: colonmonetary
Encoding: 8353 8353 145
Width: 623
Flags: W
HStem: -9.99805 79.4678<158.744 262.378 323.378 427.628> 565.659 173.462<267.83 426.162> 655 84.1211<261.372 365.622 426.622 530.872>
VStem: 29.75 200.849<253.492 475.631>
LayerCount: 2
Fore
SplineSet
292.614257812 -105 m 1x90
 323.377929688 69.4697265625 l 1
 427.627929688 69.4697265625 l 1
 396.864257812 -105 l 1
 292.614257812 -105 l 1x90
426.622070312 655 m 1xb0
 457.385742188 829.469726562 l 1
 561.635742188 829.469726562 l 1
 530.872070312 655 l 1
 426.622070312 655 l 1xb0
29.75 364.561523438 m 0
 29.75 591.206054688 158.744422817 739.12109375 385.888671875 739.12109375 c 0
 537.397841668 739.12109375 599.681640625 672.891601562 599.681640625 672.891601562 c 1
 533.10546875 514.138671875 l 1
 533.10546875 514.138671875 488.526231583 565.659179688 398.138671875 565.659179688 c 0xd0
 280.77624207 565.659179688 230.598632812 485.150440211 230.598632812 364.561523438 c 0
 230.598632812 243.972606664 282.198849139 163.463867188 402.888671875 163.463867188 c 0
 499.564775614 163.463867188 550.768554688 209.595703125 550.768554688 209.595703125 c 1
 602.827148438 44.595703125 l 1
 602.827148438 44.595703125 536.561329272 -9.998046875 385.888671875 -9.998046875 c 0
 158.744422817 -9.998046875 29.75 137.916992188 29.75 364.561523438 c 0
127.364257812 -105 m 1
 158.127929688 69.4697265625 l 1
 262.377929688 69.4697265625 l 1
 231.614257812 -105 l 1
 127.364257812 -105 l 1
261.372070312 655 m 1xb0
 292.135742188 829.469726562 l 1
 396.385742188 829.469726562 l 1
 365.622070312 655 l 1
 261.372070312 655 l 1xb0
EndSplineSet
EndChar

StartChar: zero.inferior
Encoding: 8320 8320 148
Width: 456
Flags: W
HStem: -358 118.5<177.907 278.093> 24.5 118.5<177.907 278.093>
VStem: 18.625 126.5<-205.524 -10.1448> 310.875 126.5<-205.524 -10.1448>
LayerCount: 2
Fore
SplineSet
145.125 -108 m 0
 145.125 -187.375 169.75 -239.5 228 -239.5 c 0
 286.25 -239.5 310.875 -187.375 310.875 -108 c 0
 310.875 -28.625 286.25 24.5 228 24.5 c 0
 169.75 24.5 145.125 -28.625 145.125 -108 c 0
18.625 -108 m 0
 18.625 44 90.875 143 228 143 c 0
 365.125 143 437.375 44 437.375 -108 c 0
 437.375 -260 365.125 -358 228 -358 c 0
 90.875 -358 18.625 -260 18.625 -108 c 0
EndSplineSet
EndChar

StartChar: one.inferior
Encoding: 8321 8321 149
Width: 276
Flags: W
VStem: 114.25 130.5<-350 5.75>
LayerCount: 2
Fore
SplineSet
244.75 137 m 1
 244.75 -350 l 1
 114.25 -350 l 1
 114.25 5.75 l 1
 32.5 -38.75 l 1
 -1.75 57 l 1
 129.625 137 l 1
 244.75 137 l 1
EndSplineSet
EndChar

StartChar: two.inferior
Encoding: 8322 8322 150
Width: 404
Flags: W
HStem: -350 114.5<180 389.75> 27.375 115.625<98.4336 240.764>
VStem: 250 134.75<-62.7076 16.4586>
LayerCount: 2
Fore
SplineSet
250 -22.25 m 0
 250 8.5 232.75 27.375 182.125 27.375 c 0
 119.875 27.375 75.375 -8.25 75.375 -8.25 c 1
 38.25 101 l 1
 38.25 101 100.125 143 191 143 c 0
 311.5 143 384.75 92.375 384.75 -8.25 c 0
 384.75 -101.75 333.375 -143.75 236.75 -189.25 c 0
 182.875 -214.5 181.25 -233 180 -235.5 c 1
 389.75 -235.5 l 1
 389.75 -350 l 1
 32 -350 l 1
 32 -314 l 2
 32 -204.875 92.625 -142.75 203.125 -80.125 c 0
 236.375 -62 250 -41.875 250 -22.25 c 0
EndSplineSet
EndChar

StartChar: three.inferior
Encoding: 8323 8323 151
Width: 394
Flags: W
HStem: -358 113.25<67.1977 228.64> -153.625 103.25<107.5 221.823> -0.625 21G<50.7197 56.75> 26.75 116.25<68.3293 223.001>
VStem: 226.375 139.125<-43.1566 21.2039> 236.5 139.375<-233.977 -165.267>
LayerCount: 2
Fore
SplineSet
155.625 -50.375 m 2xf4
 209.25 -50.375 226.375 -37.125 226.375 -11 c 0
 226.375 10.75 213.125 26.75 169.25 26.75 c 0
 99.5 26.75 56.75 -0.625 56.75 -0.625 c 1
 24.375 106.75 l 1
 24.375 106.75 79.625 143 175.875 143 c 0
 293.625 143 365.5 95 365.5 5 c 0xf8
 365.5 -76 292.25 -100 292.25 -100 c 1
 292.25 -100 375.875 -123 375.875 -214 c 0
 375.875 -317 295.375 -358 174.25 -358 c 0
 71.625 -358 10 -323 10 -323 c 1
 44.5 -211.375 l 1
 44.5 -211.375 91.875 -244.75 166.25 -244.75 c 0
 215.125 -244.75 236.5 -227.875 236.5 -197.75 c 0
 236.5 -168.25 208.625 -153.625 155.625 -153.625 c 2
 106.5 -153.625 l 1
 107.5 -50.375 l 1
 155.625 -50.375 l 2xf4
EndSplineSet
EndChar

StartChar: four.inferior
Encoding: 8324 8324 152
Width: 439
Flags: W
HStem: -246.875 104.75<152.25 424>
VStem: 231 127.125<-350 -39.25>
LayerCount: 2
Fore
SplineSet
358.125 137 m 1
 358.125 -350 l 1
 231 -350 l 1
 231 -39.25 l 1
 152.25 -142.125 l 1
 424 -142.125 l 1
 424 -246.875 l 1
 37.5 -246.875 l 1
 14.375 -159.5 l 1
 232 137 l 1
 358.125 137 l 1
EndSplineSet
EndChar

StartChar: five.inferior
Encoding: 8325 8325 153
Width: 395
Flags: W
HStem: -357 114.625<66.0413 231.724> -127.25 97.625<153.566 281.95> 27 110<160.75 347>
VStem: 246 131<-227.43 -139.289>
LayerCount: 2
Fore
SplineSet
178 -357 m 0
 69.875 -357 5.625 -319.25 5.625 -319.25 c 1
 39 -207.875 l 1
 39 -207.875 95 -242.375 168 -242.375 c 0
 224.75 -242.375 246 -219.75 246 -183.25 c 0
 246 -148.625 225.125 -127.25 182.625 -127.25 c 0
 136.875 -127.25 121.375 -159.5 121.375 -159.5 c 1
 30.625 -140.5 l 1
 58.5 137 l 1
 347 137 l 1
 347 27 l 1
 160.75 27 l 1
 152.125 -52.625 l 1
 152.125 -52.625 172.125 -29.625 236.125 -29.625 c 0
 327.5 -29.625 377 -87 377 -182.375 c 0
 377 -291 310.125 -357 178 -357 c 0
EndSplineSet
EndChar

StartChar: six.inferior
Encoding: 8326 8326 154
Width: 426
Flags: W
HStem: -358 106.125<164.266 268.806> -133.125 99<162.516 270.465> 0.625 21G<355.25 363.24> 32.625 110.375<176.033 338.58>
VStem: 18.625 132.75<-239.503 -50.631> 282.125 125.625<-238.605 -145.393>
LayerCount: 2
Fore
SplineSet
151.375 -192 m 0
 151.375 -226.5 170.625 -251.875 216.25 -251.875 c 0
 262.875 -251.875 282.125 -226.5 282.125 -192 c 0
 282.125 -157.5 262.875 -133.125 216.25 -133.125 c 0
 170.625 -133.125 151.375 -157.5 151.375 -192 c 0
139 -70 m 1
 139 -70 164.125 -34.125 242.125 -34.125 c 0
 343.75 -34.125 407.75 -97.75 407.75 -191 c 0
 407.75 -298 337.125 -358 221 -358 c 0
 94.5 -358 18.625 -285 18.625 -107 c 0
 18.625 54 100.75 143 247.375 143 c 0
 345.75 143 395.75 102 395.75 102 c 1
 355.25 0.625 l 1
 355.25 0.625 317.25 32.625 248.625 32.625 c 0
 178.875 32.625 143 -3.375 139 -70 c 1
EndSplineSet
EndChar

StartChar: seven.inferior
Encoding: 8327 8327 155
Width: 402
Flags: W
HStem: 23.75 113.25<22.625 226.375>
VStem: 101.25 130.5<-350 -213.731>
LayerCount: 2
Fore
SplineSet
231.75 -350 m 1
 101.25 -350 l 1
 107.427737254 -144.375 226.375 23.75 226.375 23.75 c 1
 22.625 23.75 l 1
 22.625 137 l 1
 380.375 137 l 1
 380.375 66.375 l 1
 380.375 66.375 233.697342995 -113 231.75 -350 c 1
EndSplineSet
EndChar

StartChar: eight.inferior
Encoding: 8328 8328 156
Width: 441
Flags: W
HStem: -358 103.5<160.269 281.231> -144 97.25<186.125 258> -111 44.375<104.875 338.625> 41.625 101.375<171.373 271.898>
VStem: 18.625 128<-240.231 -159.301> 42.625 121.5<-38.2777 32.1273> 280.375 121.5<-37.9681 31.8236> 294.875 128<-240.231 -159.301>
LayerCount: 2
Fore
SplineSet
220.75 -46.75 m 0xd6
 258 -46.75 280.375 -28.625 280.375 -2.875 c 0
 280.375 23.25 258.375 41.625 220.75 41.625 c 0
 185.125 41.625 164.125 23.25 164.125 -2.875 c 0
 164.125 -28.625 186.125 -46.75 220.75 -46.75 c 0xd6
220.75 143 m 0
 333.625 143 401.875 93 401.875 12 c 0
 401.875 -68 338.625 -111 220.75 -111 c 0xb6
 104.875 -111 42.625 -68 42.625 12 c 0
 42.625 93 109.875 143 220.75 143 c 0
220.75 -254.5 m 0
 266 -254.5 294.875 -233.375 294.875 -198.25 c 0
 294.875 -166.125 266 -144 220.75 -144 c 0
 175.5 -144 146.625 -166.125 146.625 -198.25 c 0xd9
 146.625 -233.375 175.5 -254.5 220.75 -254.5 c 0
220.75 -66.625 m 0xb9
 351.25 -66.625 422.875 -118.875 422.875 -212 c 0
 422.875 -301 343.625 -358 220.75 -358 c 0
 97.875 -358 18.625 -301 18.625 -212 c 0
 18.625 -118.875 90.25 -66.625 220.75 -66.625 c 0xb9
EndSplineSet
EndChar

StartChar: nine.inferior
Encoding: 8329 8329 157
Width: 426
Flags: W
HStem: -358 107.875<82.5075 247.18> -184.75 99.625<156.449 261.994> 33.625 109.375<154.541 262.129>
VStem: 18.625 124.5<-71.4173 20.1756> 273.5 133.875<-164.369 20.2472>
LayerCount: 2
Fore
SplineSet
273.5 -25.25 m 0
 273.5 9.25 254.625 33.625 209 33.625 c 0
 162.75 33.625 143.125 9.25 143.125 -25.25 c 0
 143.125 -59.75 162.75 -85.125 209 -85.125 c 0
 254.625 -85.125 273.5 -59.75 273.5 -25.25 c 0
280.375 -147.125 m 1
 280.375 -147.125 254.75 -184.75 175.5 -184.75 c 0
 79.5 -184.75 18.625 -119.125 18.625 -23.625 c 0
 18.625 83.375 89.875 143 206 143 c 0
 332.5 143 407.375 70 407.375 -108 c 0
 407.375 -269 328.125 -358 184 -358 c 0
 82.875 -358 31 -317 31 -317 c 1
 60.75 -215.25 l 1
 60.75 -215.25 102.625 -250.125 178.375 -250.125 c 0
 244.125 -250.125 276.375 -213.75 280.375 -147.125 c 1
EndSplineSet
EndChar

StartChar: zero.superior
Encoding: 8304 8304 158
Width: 455
Flags: W
HStem: 342 118.5<178.134 277.754> 724.5 118.5<178.134 277.754>
VStem: 18.625 126.5<494.476 689.855> 310.25 126.5<494.476 689.855>
LayerCount: 2
Fore
SplineSet
145.125 592 m 0
 145.125 512.625 170.375 460.5 228 460.5 c 0
 285.625 460.5 310.25 512.625 310.25 592 c 0
 310.25 671.375 285.625 724.5 228 724.5 c 0
 170.375 724.5 145.125 671.375 145.125 592 c 0
18.625 592 m 0
 18.625 744 91.5 843 228 843 c 0
 364.5 843 436.75 744 436.75 592 c 0
 436.75 440 364.5 342 228 342 c 0
 91.5 342 18.625 440 18.625 592 c 0
EndSplineSet
EndChar

StartChar: one.superior
Encoding: 185 185 159
Width: 276
Flags: W
VStem: 114.25 130.5<350 705.75>
LayerCount: 2
Fore
SplineSet
244.75 837 m 1
 244.75 350 l 1
 114.25 350 l 1
 114.25 705.75 l 1
 32.5 661.25 l 1
 -1.75 757 l 1
 129.625 837 l 1
 244.75 837 l 1
EndSplineSet
EndChar

StartChar: two.superior
Encoding: 178 178 160
Width: 404
Flags: W
HStem: 350 115.75<180 389.75> 727.375 115.625<96.9676 240.764>
VStem: 250 134.75<637.785 716.679>
LayerCount: 2
Fore
SplineSet
250 677.75 m 0
 250 708.5 232.75 727.375 182.125 727.375 c 0
 119.875 727.375 75.375 692.625 75.375 692.625 c 1
 38.25 801 l 1
 38.25 801 100.125 843 191 843 c 0
 311.5 843 384.75 792.625 384.75 692.25 c 0
 384.75 599.625 333.375 557.875 236.75 512 c 0
 182.875 486.375 181.25 468.25 180 465.75 c 1
 389.75 465.75 l 1
 389.75 350 l 1
 32 350 l 1
 32 386 l 2
 32 495.125 92.625 557.25 203.125 619.875 c 0
 236.375 638 250 658.125 250 677.75 c 0
EndSplineSet
EndChar

StartChar: three.superior
Encoding: 179 179 161
Width: 394
Flags: W
HStem: 342 113.25<67.1977 228.64> 546.375 103.25<107.5 221.823> 726.75 116.25<68.3293 223.001>
VStem: 226.375 139.125<656.869 721.204> 236.5 139.375<466.208 534.8>
LayerCount: 2
Fore
SplineSet
155.625 649.625 m 2xe8
 209.25 649.625 226.375 662.875 226.375 689 c 0
 226.375 710.75 213.125 726.75 169.25 726.75 c 0
 99.5 726.75 56.75 699 56.75 699 c 1
 24.375 806.375 l 1
 24.375 806.375 79.625 843 175.875 843 c 0
 293.625 843 365.5 795 365.5 705 c 0xf0
 365.5 624 292.25 600.375 292.25 600.375 c 1
 292.25 600.375 375.875 576.75 375.875 486.375 c 0
 375.875 383.375 295.375 342 174.25 342 c 0
 71.625 342 10 376.375 10 376.375 c 1
 44.5 488.625 l 1
 44.5 488.625 91.875 455.25 166.25 455.25 c 0
 215.125 455.25 236.5 472.125 236.5 502.25 c 0
 236.5 531.75 208.625 546.375 155.625 546.375 c 2
 106.5 546.375 l 1
 107.5 649.625 l 1
 155.625 649.625 l 2xe8
EndSplineSet
EndChar

StartChar: four.superior
Encoding: 8308 8308 162
Width: 439
Flags: W
HStem: 453.125 104.75<152.25 424>
VStem: 231 127.125<350 658.125>
LayerCount: 2
Fore
SplineSet
358.125 837 m 1
 358.125 350 l 1
 231 350 l 1
 231 658.125 l 1
 152.25 557.875 l 1
 424 557.875 l 1
 424 453.125 l 1
 37.5 453.125 l 1
 14.375 540.5 l 1
 232 837 l 1
 358.125 837 l 1
EndSplineSet
EndChar

StartChar: five.superior
Encoding: 8309 8309 163
Width: 395
Flags: W
HStem: 343 114.625<66.0413 231.724> 572.75 97.625<153.566 281.95> 727 110<160.75 347>
VStem: 246 131<472.57 560.711>
LayerCount: 2
Fore
SplineSet
178 343 m 0
 69.875 343 5.625 380.75 5.625 380.75 c 1
 39 492.125 l 1
 39 492.125 95 457.625 168 457.625 c 0
 224.75 457.625 246 480.25 246 516.75 c 0
 246 551.375 225.125 572.75 182.625 572.75 c 0
 136.875 572.75 121.375 540.5 121.375 540.5 c 1
 30.625 559.5 l 1
 58.5 837 l 1
 347 837 l 1
 347 727 l 1
 160.75 727 l 1
 152.125 647.375 l 1
 152.125 647.375 172.125 670.375 236.125 670.375 c 0
 327.5 670.375 377 613 377 517.625 c 0
 377 409 310.125 343 178 343 c 0
EndSplineSet
EndChar

StartChar: six.superior
Encoding: 8310 8310 164
Width: 426
Flags: W
HStem: 342 106.125<164.266 268.806> 566.875 99<162.516 270.465> 732.625 110.375<176.033 338.58>
VStem: 18.625 132.75<460.497 649.369> 282.125 125.625<461.395 554.607>
LayerCount: 2
Fore
SplineSet
151.375 508 m 0
 151.375 473.5 170.625 448.125 216.25 448.125 c 0
 262.875 448.125 282.125 473.5 282.125 508 c 0
 282.125 542.5 262.875 566.875 216.25 566.875 c 0
 170.625 566.875 151.375 542.5 151.375 508 c 0
139 629.625 m 1
 139 629.625 164.125 665.875 242.125 665.875 c 0
 343.75 665.875 407.75 602.25 407.75 509 c 0
 407.75 402 337.125 342 221 342 c 0
 94.5 342 18.625 415 18.625 593 c 0
 18.625 754 100.75 843 247.375 843 c 0
 345.75 843 395.75 802.375 395.75 802.375 c 1
 355.25 700.625 l 1
 355.25 700.625 317.25 732.625 248.625 732.625 c 0
 178.875 732.625 143 696.625 139 629.625 c 1
EndSplineSet
EndChar

StartChar: seven.superior
Encoding: 8311 8311 165
Width: 402
Flags: W
HStem: 723.75 113.25<22.625 226.375>
VStem: 101.25 130.5<350 486.269>
LayerCount: 2
Fore
SplineSet
231.75 350 m 1
 101.25 350 l 1
 107.427737254 555.625 226.375 723.75 226.375 723.75 c 1
 22.625 723.75 l 1
 22.625 837 l 1
 380.375 837 l 1
 380.375 766.375 l 1
 380.375 766.375 233.697342995 587 231.75 350 c 1
EndSplineSet
EndChar

StartChar: eight.superior
Encoding: 8312 8312 166
Width: 441
Flags: W
HStem: 342 103.5<160.269 281.231> 556 97.25<186.125 258> 589 44.375<104.875 338.625> 741.625 101.375<171.373 271.898>
VStem: 18.625 128<459.769 540.699> 42.625 121.5<661.722 732.127> 280.375 121.5<662.032 731.824> 294.875 128<459.769 540.699>
LayerCount: 2
Fore
SplineSet
220.75 653.25 m 0xd6
 258 653.25 280.375 671.375 280.375 697.125 c 0
 280.375 723.25 258.375 741.625 220.75 741.625 c 0
 185.125 741.625 164.125 723.25 164.125 697.125 c 0
 164.125 671.375 186.125 653.25 220.75 653.25 c 0xd6
220.75 843 m 0
 333.625 843 401.875 793 401.875 712 c 0
 401.875 632 338.625 589 220.75 589 c 0xb6
 104.875 589 42.625 632 42.625 712 c 0
 42.625 793 109.875 843 220.75 843 c 0
220.75 445.5 m 0
 266 445.5 294.875 466.625 294.875 501.75 c 0
 294.875 533.875 266 556 220.75 556 c 0
 175.5 556 146.625 533.875 146.625 501.75 c 0xd9
 146.625 466.625 175.5 445.5 220.75 445.5 c 0
220.75 633.375 m 0xb9
 351.25 633.375 422.875 581.125 422.875 488 c 0
 422.875 399 343.625 342 220.75 342 c 0
 97.875 342 18.625 399 18.625 488 c 0
 18.625 581.125 90.25 633.375 220.75 633.375 c 0xb9
EndSplineSet
EndChar

StartChar: nine.superior
Encoding: 8313 8313 167
Width: 426
Flags: W
HStem: 342 107.875<82.5075 247.18> 515.25 99.625<156.449 261.994> 733.625 109.375<154.541 262.129>
VStem: 18.625 124.5<628.583 720.176> 273.5 133.875<535.631 720.247>
LayerCount: 2
Fore
SplineSet
273.5 674.75 m 0
 273.5 709.25 254.625 733.625 209 733.625 c 0
 162.75 733.625 143.125 709.25 143.125 674.75 c 0
 143.125 640.25 162.75 614.875 209 614.875 c 0
 254.625 614.875 273.5 640.25 273.5 674.75 c 0
280.375 552.25 m 1
 280.375 552.25 254.75 515.25 175.5 515.25 c 0
 79.5 515.25 18.625 580.875 18.625 676.375 c 0
 18.625 783.375 89.875 843 206 843 c 0
 332.5 843 407.375 770 407.375 592 c 0
 407.375 431 328.125 342 184 342 c 0
 82.875 342 31 382.375 31 382.375 c 1
 60.75 484.75 l 1
 60.75 484.75 102.625 449.875 178.375 449.875 c 0
 244.125 449.875 276.375 485.625 280.375 552.25 c 1
EndSplineSet
EndChar

StartChar: circumflex
Encoding: 710 710 168
Width: 362
Flags: W
HStem: 516 215.008
LayerCount: 2
Fore
SplineSet
271 516 m 1
 181 596.932617188 l 1
 91 516 l 1
 -9.5 546 l 1
 100.5 731.0078125 l 1
 261.5 731.0078125 l 1
 371.5 546 l 1
 271 516 l 1
EndSplineSet
EndChar

StartChar: caron
Encoding: 711 711 169
Width: 362
Flags: W
HStem: 526 215.008
LayerCount: 2
Fore
SplineSet
91 741.0078125 m 1
 181 660.075195312 l 1
 271 741.0078125 l 1
 371.5 711.0078125 l 1
 261.5 526 l 1
 100.5 526 l 1
 -9.5 711.0078125 l 1
 91 741.0078125 l 1
EndSplineSet
EndChar

StartChar: breve
Encoding: 728 728 170
Width: 322
VWidth: 999
Flags: W
HStem: 559.287 126.587<89.8839 232.936> 715 20G<49.9868 64.4434 258.377 272.833>
VStem: 5 312.82
LayerCount: 2
Fore
SplineSet
161.41015625 559.286523438 m 0
 51.853515625 559.286523438 5 652.762695312 5 652.762695312 c 1
 64.443359375 735 l 1
 64.443359375 735 85.8754505277 685.874023438 161.41015625 685.874023438 c 0
 236.944861972 685.874023438 258.376953125 735 258.376953125 735 c 1
 317.8203125 652.762695312 l 1
 317.8203125 652.762695312 270.966796875 559.286523438 161.41015625 559.286523438 c 0
EndSplineSet
EndChar

StartChar: dotaccent
Encoding: 729 729 171
Width: 248
Flags: W
HStem: 562.043 176.949<63.5554 185.444>
VStem: 36.6367 175.727<589.149 711.886>
LayerCount: 2
Fore
SplineSet
36.63671875 650.517578125 m 0
 36.63671875 704.116926937 71.2697988119 738.9921875 124.499023438 738.9921875 c 0
 177.729226374 738.9921875 212.36328125 704.116926937 212.36328125 650.517578125 c 0
 212.36328125 596.917260959 177.729226374 562.04296875 124.499023438 562.04296875 c 0
 71.269798812 562.04296875 36.63671875 596.917260959 36.63671875 650.517578125 c 0
EndSplineSet
EndChar

StartChar: tilde
Encoding: 732 732 172
Width: 371
VWidth: 999
Flags: W
HStem: 555.387 121.337<193.551 316.389> 594.806 120.468<56.4784 177.715>
LayerCount: 2
Fore
SplineSet
366.400390625 620.524658202 m 1x80
 366.400390625 620.524658202 319.216643264 555.386962891 246.475585938 555.386962891 c 0x80
 179.114257812 555.386962891 165.34765625 594.806298829 116.163085938 594.806298829 c 0
 78.813450837 594.806298829 48.34375 567.36821289 48.34375 567.36821289 c 1
 5 668.399658202 l 1
 5 668.399658202 57.099105875 715.274658202 124.92578125 715.274658202 c 0x40
 191.217773438 715.274658202 210.330078125 676.724462891 255.23828125 676.724462891 c 0
 297.455956006 676.724462891 319.05703125 701.21196289 319.05703125 701.21196289 c 1
 366.400390625 620.524658202 l 1x80
EndSplineSet
EndChar

StartChar: hungarumlaut
Encoding: 733 733 173
Width: 412
Flags: W
HStem: 505.5 235.508
LayerCount: 2
Fore
SplineSet
299.4 505.5 m 1
 182.6 525.5 l 1
 254.5 741.0078125 l 1
 421.5 711.0078125 l 1
 299.4 505.5 l 1
109.4 505.5 m 1
 -7.4 525.5 l 1
 64.5 741.0078125 l 1
 231.5 711.0078125 l 1
 109.4 505.5 l 1
EndSplineSet
EndChar

StartChar: multiply
Encoding: 215 215 174
Width: 450
Flags: W
LayerCount: 2
Fore
SplineSet
423.040039062 453.819335938 m 1
 129.180664062 159.959960938 l 1
 26.9599609375 262.180664062 l 1
 320.819335938 556.040039062 l 1
 423.040039062 453.819335938 l 1
320.819335938 159.959960938 m 1
 26.9599609375 453.819335938 l 1
 129.180664062 556.040039062 l 1
 423.040039062 262.180664062 l 1
 320.819335938 159.959960938 l 1
EndSplineSet
EndChar

StartChar: divide
Encoding: 247 247 175
Width: 450
Flags: W
HStem: 85.1211 188.804<161.538 288.461> 292.125 131.75<25 425> 442.075 188.804<161.538 288.461>
VStem: 131.148 187.703<115.689 243.356 472.643 600.31>
CounterMasks: 1 e0
LayerCount: 2
Fore
SplineSet
425 292.125 m 1
 25 292.125 l 1
 25 423.875 l 1
 425 423.875 l 1
 425 292.125 l 1
131.1484375 179.522460938 m 0
 131.1484375 236.712595369 168.141738841 273.924804688 224.999023438 273.924804688 c 0
 281.85725856 273.924804688 318.8515625 236.712595369 318.8515625 179.522460938 c 0
 318.8515625 122.332252467 281.85725856 85.12109375 224.999023438 85.12109375 c 0
 168.141738841 85.12109375 131.1484375 122.332252467 131.1484375 179.522460938 c 0
131.1484375 536.477539062 m 0
 131.1484375 593.666648756 168.141738841 630.87890625 224.999023438 630.87890625 c 0
 281.85725856 630.87890625 318.8515625 593.666648756 318.8515625 536.477539062 c 0
 318.8515625 479.286305857 281.85725856 442.075195312 224.999023438 442.075195312 c 0
 168.141738841 442.075195312 131.1484375 479.286305857 131.1484375 536.477539062 c 0
EndSplineSet
EndChar

StartChar: AE
Encoding: 198 198 176
Width: 1024
Flags: W
HStem: 0 164.375<684.5 999.25> 139.5 154.9<237.25 590> 284.125 161.75<626 939.25> 284.125 10.2749<590 626> 566.633 164.375<684.5 999.25>
VStem: 494.5 66.5<611.75 731.008> 590 94.5<294.4 445.875> 590 36<284.125 294.4>
LayerCount: 2
Fore
SplineSet
939.25 284.125 m 1x2e
 590 284.125 l 1x1d
 590 445.875 l 1
 939.25 445.875 l 1
 939.25 284.125 l 1x2e
684.5 566.6328125 m 1x8e
 684.5 164.375 l 1
 999.25 164.375 l 1
 999.25 0 l 1
 494.5 0 l 1
 494.5 731.0078125 l 1
 999.25 731.0078125 l 1
 999.25 566.6328125 l 1
 684.5 566.6328125 l 1x8e
626 139.5 m 1x4d
 167.25 139.5 l 1
 237.25 294.399902344 l 1x4d
 626 294.399902344 l 1x1d
 626 139.5 l 1x4d
561 731.0078125 m 1
 561 611.75 l 1
 222.25 0 l 1
 -0.25 0 l 1x8c
 449 731.0078125 l 1
 561 731.0078125 l 1
EndSplineSet
EndChar

StartChar: ae
Encoding: 230 230 177
Width: 872
Flags: W
HStem: -9.99805 129.237<222.738 321.568> -9.99805 149.687<564.609 763.317> 201.75 104.025<459.575 670.725> 365.211 145.8<150.512 322.871> 373.559 137.375<550.183 651.092>
VStem: 37.875 179.324<126.084 196.652> 345.829 16<213.234 309.934> 459.575 65.4484<201.75 305.775>
LayerCount: 2
Fore
SplineSet
345.828710938 223.311523438 m 1xa7
 450.25 155.75 l 1
 429.850721826 51.2931370356 361.124496025 -9.998046875 229.463671875 -9.998046875 c 0
 91.9068406925 -9.998046875 37.875 60.5 37.875 141 c 0
 37.875 286.71747631 152.033940818 309.797851562 361.828710938 309.93359375 c 1
 361.67734375 213.234179688 l 1
 246.807879469 213.157383438 217.198730469 198.032613217 217.198730469 162.280761719 c 0
 217.198730469 134.742400825 237.603259915 119.238769531 270.963867188 119.238769531 c 0
 310.205577137 119.238769531 345.828710938 143.253973242 345.828710938 223.311523438 c 1xa7
479.003710938 203.75 m 1
 345.828710938 165 l 1
 345.828710938 291.535742188 l 2
 345.828710937 343.02051175 306.386858982 365.210742188 253.053710938 365.210742188 c 0
 175.521699829 365.210742188 120.128710938 328.685742188 120.128710938 328.685742188 c 1
 70.8287109375 467.010742188 l 1
 70.8287109375 467.010742188 136.541254863 511.010742188 268.491796875 511.010742188 c 0x37
 386.938602603 511.010742188 479.003710937 430.782474174 479.003710938 309.510742188 c 2
 479.003710938 203.75 l 1
EndSplineSet
Refer: 43 101 N 1 0 0 1 321 0 2
EndChar

StartChar: Eth
Encoding: 208 208 178
Width: 789
Flags: W
HStem: 0 168.727<306.75 475.934> 286.6 147.8<30 440.5> 562.275 168.733<306.75 474.304>
VStem: 111.75 195<168.727 562.275> 564.179 195.849<257.138 472.265>
LayerCount: 2
Fore
SplineSet
440.5 286.600097656 m 1
 30 286.600097656 l 1
 30 434.399902344 l 1
 440.5 434.399902344 l 1
 440.5 286.600097656 l 1
EndSplineSet
Refer: 5 68 N 1 0 0 1 62 0 2
EndChar

StartChar: eth
Encoding: 240 240 179
Width: 588
Flags: W
HStem: -9.99805 160.837<236.917 355.722> 365.309 145.624<240.367 342.727>
VStem: 32.8213 175.849<181.075 334.854> 384.25 179.849<181.961 440> 384.25 62.8486<281.562 327.496>
LayerCount: 2
Fore
SplineSet
151.877929688 612.708007812 m 1xe0
 488.791210938 711.130078125 l 1
 512.970898438 626.517773438 l 1
 176.056640625 528.094726562 l 1
 151.877929688 612.708007812 l 1xe0
384.25 251.561523438 m 0xf0
 384.25 492.114924089 322.530452291 554.368288697 166.43359375 689.298828125 c 1
 332.327148438 771.274414062 l 1
 332.327148438 771.274414062 564.098632812 601 564.098632812 279 c 0xf0
 564.098632812 93.8330078125 462.384836889 -9.998046875 296.959960938 -9.998046875 c 0
 132.765786038 -9.998046875 32.8212890625 94.0830078126 32.8212890625 253.561523438 c 0
 32.8212890625 409.295898438 116.424948812 510.93359375 262 510.93359375 c 0
 370.317471044 510.93359375 447.098632812 423.747070312 447.098632812 281.561523438 c 1xe8
 384.25 273.561523438 l 1
 384.25 327.496433605 354.167004146 365.309179688 297.798632812 365.309179688 c 0
 235.36309612 365.309179688 208.669921875 320.571207586 208.669921875 253.561523438 c 0
 208.669921875 191.963881458 235.112099488 150.838867188 296.959960938 150.838867188 c 0
 359.887083958 150.838867188 384.25 200.617940462 384.25 251.561523438 c 0xf0
EndSplineSet
EndChar

StartChar: Thorn
Encoding: 222 222 180
Width: 650
Flags: W
HStem: 0 21G<49.75 239.75> 154 151.252<169.25 419.815> 445.749 155.258<170.25 420.062> 711.008 20G<49.75 239.75>
VStem: 49.75 190<0 154 305.252 445.749 601.008 731.008> 170.25 69.5<154 305.252 445.749 601.008> 440.179 180.849<324.053 426.225>
LayerCount: 2
Fore
SplineSet
49.75 0 m 1xfa
 49.75 731.0078125 l 1
 239.75 731.0078125 l 1
 239.75 0 l 1
 49.75 0 l 1xfa
169.25 154 m 1
 169.25 305.2515625 l 1
 345.138671875 305.361914062 l 2
 399.549206049 305.438181542 440.178710938 317.804765752 440.178710938 374.561523438 c 0
 440.178710938 432.355448051 399.543198334 445.626963474 345.138671875 445.645898438 c 2
 170.25 445.749414062 l 1
 170.25 601.0078125 l 1xf6
 364.138671875 601.0078125 l 2
 499.30048035 601.0078125 621.02734375 539.335495382 621.02734375 374.561523438 c 0
 621.02734375 213.240207598 498.509109269 154 364.138671875 154 c 2
 169.25 154 l 1
EndSplineSet
EndChar

StartChar: thorn
Encoding: 254 254 181
Width: 602
Flags: W
HStem: -9.99805 148.537<250.838 363.487> 363.209 147.724<262.583 365.436> 731.002 20G<49.75 229.75>
VStem: 49.75 180<-180 751.002> 141.901 87.8486<66.4395 183.562> 166.901 62.8486<283.562 425.747> 398.33 175.849<174.292 330.022>
LayerCount: 2
Fore
SplineSet
49.75 -180 m 1xf2
 49.75 751.001953125 l 1
 229.75 751.001953125 l 1
 229.75 -180 l 1
 49.75 -180 l 1xf2
229.75 213.561523438 m 1
 229.75 177.0108164 251.310305374 138.538867188 301.740039062 138.538867188 c 0
 369.401546004 138.538867188 398.330078125 184.58752319 398.330078125 253.561523438 c 0
 398.330078125 319.311938789 369.435651011 363.209179688 301.851367188 363.209179688 c 0
 251.344288801 363.209179688 229.75 331.322641951 229.75 283.561523438 c 1xf2
 166.901367188 283.561523438 l 1xe6
 166.901367188 425.747070312 239.08217363 510.93359375 350.25 510.93359375 c 0
 492.490234375 510.93359375 574.178710938 409.295898438 574.178710938 253.561523438 c 0
 574.178710938 94.0830078126 488.70703125 -9.998046875 348.290039062 -9.998046875 c 0
 219.994780021 -9.998046875 141.901367188 66.4394531249 141.901367188 183.561523438 c 1xea
 229.75 213.561523438 l 1
EndSplineSet
EndChar

StartChar: kgreenlandic
Encoding: 312 312 182
Width: 555
Flags: W
HStem: 0 21G<44.5 224.5 327.153 560.5> 205.75 100.5<134.75 218.75> 481.011 20G<44.5 224.5 323.803 550.5>
VStem: 44.5 180<0 205.75 306.25 501.011> 134.75 89.75<205.75 306.25>
LayerCount: 2
Fore
SplineSet
218.75 306.25 m 1xe8
 218.75 205.75 l 1
 134.75 205.75 l 1
 134.75 306.25 l 1
 218.75 306.25 l 1xe8
338.825195312 0 m 1
 218.75 205.75 l 1
 218.75 306.25 l 1
 335.825195312 501.010742188 l 1
 550.5 501.010742188 l 1
 371.25 265.674804688 l 1
 560.5 0 l 1
 338.825195312 0 l 1
44.5 0 m 1xf0
 44.5 501.010742188 l 1
 224.5 501.010742188 l 1
 224.5 0 l 1
 44.5 0 l 1xf0
EndSplineSet
EndChar

StartChar: Eng
Encoding: 330 330 183
Width: 719
Flags: W
HStem: -189.994 145.75<303.837 485.777> 0 21G<49.75 225.55> 711.008 20G<49.75 250.58 493.45 669.25>
VStem: 49.75 175.8<0 408.255> 493.45 175.8<335.35 731.008>
LayerCount: 2
Fore
SplineSet
49.75 0 m 1
 49.75 731.0078125 l 1
 237.65 731.0078125 l 1
 493.45 335.349609375 l 1
 493.45 731.0078125 l 1
 669.25 731.0078125 l 1
 669.25 -3 l 2
 669.25 -125.529296875 606.672413793 -189.994140625 455.75 -189.994140625 c 0
 352.193736684 -189.994140625 291.25 -169.994140625 291.25 -169.994140625 c 1
 305.25 -29.244140625 l 1
 305.25 -29.244140625 350.776646541 -44.244140625 414.5 -44.244140625 c 0
 462.00410682 -44.244140625 484.919256197 -32.4920856729 491.925561367 -16.4869212657 c 1
 225.55 408.254882812 l 1
 225.55 0 l 1
 49.75 0 l 1
EndSplineSet
Substitution2: "'ss06' Style Set 6 lookup 7-1" Eng.ss06
EndChar

StartChar: eng
Encoding: 331 331 184
Width: 595
Flags: W
HStem: -189.994 148.975<205.572 347.733> 0 21G<49.75 229.75> 361.909 149.024<258.508 419.583> 481.011 20G<49.75 229.75>
VStem: 49.75 180<0 501.011> 366.027 180<-23.67 347.742>
LayerCount: 2
Fore
SplineSet
49.75 0 m 1xdc
 49.75 501.010742188 l 1
 229.75 501.010742188 l 1
 229.75 0 l 1
 49.75 0 l 1xdc
229.75 284 m 1
 159.5 293.561523438 l 1
 180.808319052 444 231.335002153 510.93359375 357.25 510.93359375 c 0
 481.916135504 510.93359375 546.02734375 444.084682028 546.02734375 304.561523438 c 2
 546.02734375 36.75 l 2
 546.02734375 -99.7238243214 483.669766963 -189.994140625 333.27734375 -189.994140625 c 0
 250.222761418 -189.994140625 192.77734375 -175.044140625 192.77734375 -175.044140625 c 1
 206.77734375 -30.544140625 l 1
 206.77734375 -30.544140625 243.834492798 -41.019140625 295.70234375 -41.019140625 c 0
 345.214573876 -41.019140625 366.02734375 -13.0146225527 366.02734375 51.955859375 c 2
 366.02734375 287.561523438 l 2
 366.02734375 334.508466763 346.044424294 361.909179688 299 361.909179688 c 0xec
 250.489970169 361.909179688 229.75 330.718513585 229.75 284 c 1
EndSplineSet
EndChar

StartChar: OE
Encoding: 338 338 185
Width: 991
Flags: W
HStem: 0 164.375<661.75 971.25> 0 170.937<301.127 534.245> 284.125 161.75<567.25 911.25> 559.546 171.462<308.209 534.245> 566.633 164.375<661.75 971.25>
VStem: 24.5 190.849<257.741 471.516> 567.25 94.5<284.125 445.875>
LayerCount: 2
Fore
SplineSet
537.77734375 170.826660156 m 1x76
 537.77734375 170.826660156 537.77734375 0 532.77734375 0 c 1
 398.388671875 0 l 2
 202.819335938 0 24.5 97.9169921876 24.5 364.561523438 c 0
 24.5 631.206054688 201.66796875 731.0078125 398.388671875 731.0078125 c 2
 532.77734375 731.0078125 l 1
 537.77734375 731.0078125 537.77734375 559.649414062 537.77734375 559.649414062 c 1
 423.388671875 559.545898438 l 2
 304.28613315 559.424235974 215.348632812 523.089476736 215.348632812 364.561523438 c 0
 215.348632812 205.753355149 304.28613315 171.065954597 423.388671875 170.937011719 c 2
 537.77734375 170.826660156 l 1x76
EndSplineSet
Refer: 10 69 N 1 0 0 1 417 0 2
EndChar

StartChar: oe
Encoding: 339 339 186
Width: 920
Flags: W
HStem: -9.99805 156.112<235.567 353.112 604.626 829.898> 199.75 98.375<507.575 721.875> 354.634 156.299<234.827 353.903> 366.859 144.074<598.528 700.973>
VStem: 31.85 175.849<175.212 325.44> 398.75 174.274<138.267 367.305> 507.575 50.3523<203.284 295.896>
LayerCount: 2
Fore
SplineSet
207.698632812 253.561523438 m 0xe8
 207.698632812 189.129980469 233.512451172 146.113867188 293.888671875 146.113867188 c 0
 355.666308593 146.113867188 382.078710938 189.129980469 382.078710938 253.561523438 c 0
 382.078710938 314.16977539 355.699462891 354.634179688 294 354.634179688 c 0
 233.545654297 354.634179688 207.698632812 314.16977539 207.698632812 253.561523438 c 0xe8
31.85 253.561523438 m 0
 31.85 409.295898438 131.000537109 510.93359375 293.888671875 510.93359375 c 0
 458.019970703 510.93359375 557.92734375 409.295898438 557.92734375 253.561523438 c 0xea
 557.92734375 94.0830078125 458.019970703 -9.998046875 293.888671875 -9.998046875 c 0
 131.000537109 -9.998046875 31.85 94.0830078125 31.85 253.561523438 c 0
398.75 253.561523438 m 0xdc
 398.75 409.295898438 496.424658203 510.93359375 656.888671875 510.93359375 c 0
 842.529248048 510.93359375 900.715820312 373.323632812 900.715820312 257.9109375 c 0
 900.715820312 222.004394531 896.25 199.75 896.25 199.75 c 1
 507.575 199.75 l 1
 507.575 298.125 l 1xda
 721.875 298.125 l 1
 721.875 298.125 721.213916015 308.738964844 716.750390625 322.05 c 0
 711.108496094 338.738232422 696.557421875 366.859179688 649 366.859179688 c 0
 595.778515624 366.859179688 573.023632812 325.313720703 573.023632812 263.086523438 c 0
 573.023632812 182.451171875 605.810351563 139.688867188 689.325 139.688867188 c 0
 776.60625 139.688867188 826.343554688 167.820703125 826.343554688 167.820703125 c 1
 855.827148438 17.070703125 l 1
 855.827148438 17.070703125 796.295898438 -9.998046875 692.888671875 -9.998046875 c 0
 489.682763672 -9.998046875 398.75 94.0830078125 398.75 253.561523438 c 0xdc
EndSplineSet
EndChar

StartChar: longs
Encoding: 383 383 187
Width: 269
Flags: W
HStem: 0 21G<44.5 224.5> 621.611 139.4<237.619 369.638>
VStem: 44.5 180<0 608.131>
LayerCount: 2
Fore
SplineSet
224.5 546.510742188 m 2
 224.5 0 l 1
 44.5 0 l 1
 44.5 559.510742188 l 2
 44.5 680.792552049 105.318788171 761.010742188 252 761.010742188 c 0
 328.84765625 761.010742188 382 745.010742188 382 745.010742188 c 1
 368 610.610742188 l 1
 368 610.610742188 334.662109375 621.610742188 288 621.610742188 c 0
 243.292902766 621.610742188 224.5 598.989921341 224.5 546.510742188 c 2
EndSplineSet
EndChar

StartChar: uni018F
Encoding: 399 399 188
Width: 765
Flags: W
HStem: -9.99805 167.362<299.413 464.306> 294.823 145.05<238.008 587.358> 564.084 175.037<176.189 444.417>
VStem: 543.51 45.8486<294.823 439.873>
LayerCount: 2
Back
SplineSet
35 364.561523438 m 0
 35 591.206054688 163.541887394 739.12109375 389.888671875 739.12109375 c 0
 653.541980974 739.12109375 740.108398438 551.971330386 740.108398438 365.891601562 c 0
 740.108398438 303.039520695 732 284 732 284 c 1
 162 284 l 1
 160 424 l 1
 562 424 l 1
 562 424 560.13712938 586.659179688 391 586.659179688 c 0
 261.796380576 586.659179688 205.848632812 497.743164062 205.848632812 364.561523438 c 4
 205.848632812 231.379882812 273.845797251 142.463867188 432.888671875 142.463867188 c 0
 580.720714467 142.463867188 659.018554688 179.595703125 659.018554688 179.595703125 c 1
 682.827148438 32.595703125 l 1
 682.827148438 32.595703125 604.343305548 -9.998046875 425.888671875 -9.998046875 c 0
 176.581210181 -9.998046875 35 137.916992188 35 364.561523438 c 0
EndSplineSet
Fore
SplineSet
740.358398438 364.561523438 m 0
 740.358398438 137.916992187 609.914943138 -9.998046875 380.219726562 -9.998046875 c 0
 112.614099055 -9.998046875 24.75 182.416768037 24.75 373.731445312 c 0
 24.75 415.360906729 29.7083984375 439.873046875 29.7083984375 439.873046875 c 1
 587.358398438 439.873046875 l 1
 589.358398438 294.823242188 l 1
 238.008300781 294.823242188 l 1
 238.008300781 294.823242188 240.576470347 270.387511641 246.567687123 251.729492691 c 0
 259.839446549 210.953541277 290.06831972 157.363769531 383.054199219 157.363769531 c 0
 496.355282249 157.363769531 543.509765625 240.314661651 543.509765625 364.561523438 c 0
 543.509765625 484.205985924 481.727104883 564.084179688 337.219726562 564.084179688 c 0
 192.81986292 564.084179688 116.33984375 518.55234375 116.33984375 518.55234375 c 1
 82.03125 688.12734375 l 1
 82.03125 688.12734375 162.118745953 739.12109375 344.219726562 739.12109375 c 0
 596.875620349 739.12109375 740.358398438 591.206054687 740.358398438 364.561523438 c 0
EndSplineSet
EndChar

StartChar: florin
Encoding: 402 402 190
Width: 398
Flags: W
HStem: -190.011 148.975<-65.2591 67.2734> 354.625 146.386<3.5 392.5> 621.611 139.4<277.619 409.638>
VStem: 84.5 180<-23.6831 608.131>
LayerCount: 2
Fore
SplineSet
3.5 501.010742188 m 1
 392.5 501.010742188 l 1
 392.5 354.625 l 1
 3.5 354.625 l 1
 3.5 501.010742188 l 1
84.5 41.4392578125 m 2
 84.5 559.510742188 l 2
 84.5 680.792552049 145.318788171 761.010742188 292 761.010742188 c 0
 368.84765625 761.010742188 422 745.010742188 422 745.010742188 c 1
 408 610.610742188 l 1
 408 610.610742188 374.662109375 621.610742188 328 621.610742188 c 0
 283.292902766 621.610742188 264.5 598.989921341 264.5 546.510742188 c 2
 264.5 36.7392578125 l 2
 264.5 -99.740600008 202.14224138 -190.010742188 51.75 -190.010742188 c 0
 -25.0976681593 -190.010742188 -78.25 -175.060742188 -78.25 -175.060742188 c 1
 -64.25 -30.5607421875 l 1
 -64.25 -30.5607421875 -31.5687436617 -41.0357421875 14.175 -41.0357421875 c 0
 63.6875085449 -41.0357421875 84.5 -16.1938747176 84.5 41.4392578125 c 2
EndSplineSet
EndChar

StartChar: uni01B7
Encoding: 439 439 191
Width: 584
Flags: W
HStem: -9.99805 163.562<115.57 327.966> 566.1 164.9<40 292.8>
VStem: 358.477 201.684<182.397 284.08>
LayerCount: 2
Fore
SplineSet
382.924804688 428 m 1
 382.924804688 428 560.161132812 422.603084203 560.161132812 221.570800781 c 0
 560.161132812 54.7621095285 436.172530309 -9.998046875 250 -9.998046875 c 0
 102.934570312 -9.998046875 15.451171875 40.9091796875 15.451171875 40.9091796875 c 1
 61.7244140625 201.737695312 l 1
 61.7244140625 201.737695312 130.254960863 153.564453125 237.75 153.564453125 c 0
 321.264133906 153.564453125 358.477050781 180.332825711 358.477050781 234.200195312 c 0
 358.477050781 285.499428838 320.569506229 312.557295062 247.888671875 312.837402344 c 2
 158.75 313.100097656 l 1
 158.75 398 l 1
 292.799804688 566.100097656 l 1
 40 566.1 l 1
 40 731 l 1
 542.5 731 l 1
 542.5 625 l 1
 382.924804688 428 l 1
EndSplineSet
EndChar

StartChar: uni0292
Encoding: 658 658 192
Width: 524
Flags: W
HStem: -189.994 149.787<84.3281 287.16> 346.111 154.9<44 243.4>
VStem: 318.202 181.959<-11.8389 83.9636>
LayerCount: 2
Fore
SplineSet
330.95 215.1 m 1
 330.95 215.1 500.161132812 214.830936838 500.161132812 17.6748046875 c 0
 500.161132812 -130.60239263 384.167639263 -189.994140625 210 -189.994140625 c 0
 94.2852768714 -189.994140625 25.451171875 -159.086914062 25.451171875 -159.086914062 c 1
 25.451171875 -159.086914062 63.0244140625 -8.8833984375 63.0244140625 -8.8833984375 c 1
 63.0244140625 -8.8833984375 116.400621113 -40.206640625 200.125 -40.206640625 c 0
 281.806037697 -40.206640625 318.202148438 -12.1786344118 318.202148438 38.35390625 c 0
 318.202148438 85.5289245564 277.773457219 108.291093724 200.263671875 108.491210938 c 2
 118.75 108.75390625 l 1
 118.75 190.00390625 l 1
 243.399902344 346.110839844 l 1
 44 346.110742188 l 1
 44 501.010742188 l 1
 484 501.010742188 l 1
 484 405.010742188 l 1
 330.95 215.1 l 1
EndSplineSet
EndChar

StartChar: Oslash
Encoding: 216 216 193
Width: 797
Flags: W
HStem: -9.99805 170.837<306.954 490.823> 568.284 170.837<306.954 490.823>
VStem: 29.75 191.374<252.757 476.366> 576.654 191.374<252.757 476.366>
LayerCount: 2
Fore
SplineSet
146.5 -91.4697265625 m 1
 536.5 801.403320312 l 1
 645.5 801.403320312 l 1
 255.5 -91.4697265625 l 1
 146.5 -91.4697265625 l 1
EndSplineSet
Refer: 1 79 N 1 0 0 1 0 0 2
EndChar

StartChar: oslash
Encoding: 248 248 194
Width: 589
Flags: W
HStem: -9.99805 156.112<235.567 353.112> 354.634 156.299<234.827 353.903>
VStem: 31.85 175.849<175.212 325.441> 382.079 175.849<176.081 324.622>
LayerCount: 2
Fore
SplineSet
52.75 -91.4697265625 m 1
 423.75 581.403320312 l 1
 526.25 581.403320312 l 1
 155.25 -91.4697265625 l 1
 52.75 -91.4697265625 l 1
EndSplineSet
Refer: 29 111 N 1 0 0 1 0 0 2
EndChar

StartChar: ring
Encoding: 730 730 197
Width: 355
Flags: W
HStem: 480.07 99.7715<145.919 210.971> 661.043 99.959<143.488 211.459>
VStem: 27.375 113.453<583.344 657.53> 214.949 113.453<583.514 657.375>
LayerCount: 2
Fore
SplineSet
140.828125 622.396484375 m 0
 140.828125 596.878599382 151.660438368 579.841796875 176.99609375 579.841796875 c 0
 203.582411506 579.841796875 214.94921875 596.878599382 214.94921875 622.396484375 c 0
 214.94921875 645.570982533 203.612107604 661.04296875 177.094726562 661.04296875 c 0
 151.690132867 661.04296875 140.828125 645.570982533 140.828125 622.396484375 c 0
27.375 622.629882812 m 0
 27.375 706.358572334 83.9477838636 761.001953125 176.888671875 761.001953125 c 0
 271.072738138 761.001953125 328.40234375 706.358572334 328.40234375 622.629882812 c 0
 328.40234375 536.367848721 271.072738138 480.0703125 176.888671875 480.0703125 c 0
 83.9477838636 480.0703125 27.375 536.367848721 27.375 622.629882812 c 0
EndSplineSet
EndChar

StartChar: ogonek
Encoding: 731 731 198
Width: 307
VWidth: 999
Flags: W
HStem: -255 102.5<156.044 262.214>
VStem: 24.75 125.5<-145.765 -46.049>
LayerCount: 2
Fore
SplineSet
24.75 -130 m 0
 24.75 -30.5220125786 112.75 39 112.75 39 c 1
 233.25 39 l 1
 233.25 39 150.25 -29.3503184713 150.25 -108 c 0
 150.25 -139.993243782 169.367091587 -152.5 203 -152.5 c 0
 241.620592949 -152.5 259 -138.5 259 -138.5 c 1
 277 -232 l 1
 277 -232 244.426287616 -255 179 -255 c 0
 84.0182089576 -255 24.75 -210.528428819 24.75 -130 c 0
EndSplineSet
EndChar

StartChar: minute
Encoding: 8242 8242 203
Width: 235
Flags: W
HStem: 456 275.008<72.6 121.35>
VStem: -7.4 248.75
LayerCount: 2
Fore
SplineSet
-7.4 456 m 1
 72.6 731.0078125 l 1
 241.35 731.0078125 l 1
 121.35 456 l 1
 -7.4 456 l 1
EndSplineSet
EndChar

StartChar: bullet
Encoding: 8226 8226 206
Width: 325
Flags: W
HStem: 219.5 287.449<82.0862 243.139>
VStem: 19.5 286.227<282.354 444.095>
LayerCount: 2
Fore
SplineSet
19.5 363.224609375 m 0
 19.5 450.294664573 75.9119172649 506.94921875 162.612304688 506.94921875 c 0
 249.313555974 506.94921875 305.7265625 450.294664573 305.7265625 363.224609375 c 0
 305.7265625 276.153048607 249.313555974 219.5 162.612304688 219.5 c 0
 75.9119172649 219.5 19.5 276.153048607 19.5 363.224609375 c 0
EndSplineSet
EndChar

StartChar: dagger
Encoding: 8224 8224 207
Width: 530
Flags: W
HStem: 349.511 162<30 500>
LayerCount: 2
Fore
SplineSet
165 -171.469726562 m 1
 200.25 427 l 1
 175 759.469726562 l 1
 355 759.469726562 l 1
 329.75 426 l 1
 365 -171.469726562 l 1
 165 -171.469726562 l 1
30 349.510742188 m 1
 30 511.510742188 l 1
 500 511.510742188 l 1
 500 349.510742188 l 1
 30 349.510742188 l 1
EndSplineSet
EndChar

StartChar: daggerdbl
Encoding: 8225 8225 208
Width: 530
Flags: W
HStem: 59.5107 162<30 500> 399.511 162<30 500>
LayerCount: 2
Fore
SplineSet
30 59.5107421875 m 1
 30 221.510742188 l 1
 500 221.510742188 l 1
 500 59.5107421875 l 1
 30 59.5107421875 l 1
175 -171.469726562 m 1
 200.25 137 l 1
 175 317 l 1
 200.25 477 l 1
 175 759.469726562 l 1
 355 759.469726562 l 1
 329.75 476 l 1
 355 318 l 1
 329.75 136 l 1
 355 -171.469726562 l 1
 175 -171.469726562 l 1
30 399.510742188 m 1
 30 561.510742188 l 1
 500 561.510742188 l 1
 500 399.510742188 l 1
 30 399.510742188 l 1
EndSplineSet
EndChar

StartChar: uni2116
Encoding: 8470 8470 209
Width: 1126
Flags: W
HStem: 0 21G<49.75 225.55 468.819 669.25> 233.75 104.25<741.15 1064.85> 378.061 127.026<864.51 950.54> 611.778 127.214<863.91 953.613> 711.008 20G<49.75 250.58 493.45 669.25>
VStem: 49.75 175.8<0 408.255> 493.45 175.8<335.35 731.008> 722.011 132.912<514.466 604.402> 961.077 132.912<514.802 604.096>
LayerCount: 2
Fore
SplineSet
741.15 338 m 1xe780
 1064.85 338 l 1
 1064.85 233.75 l 1
 741.15 233.75 l 1
 741.15 338 l 1xe780
854.9234375 560.844726562 m 0
 854.9234375 527.409598017 870.489667188 505.086914062 906.897460938 505.086914062 c 0
 944.850140984 505.086914062 961.0765625 527.409598017 961.0765625 560.844726562 c 0
 961.0765625 591.387232397 944.887215748 611.778320312 907.020507812 611.778320312 c 0xf780
 870.526740904 611.778320312 854.9234375 591.387232397 854.9234375 560.844726562 c 0
722.011328125 560.620117188 m 0
 722.011328125 668.552734375 792.0070952 738.9921875 907 738.9921875 c 0
 1023.23606797 738.9921875 1093.98867188 668.552734375 1093.98867188 560.620117188 c 0
 1093.98867188 450.154296875 1023.23606797 378.060546875 907 378.060546875 c 0
 792.0070952 378.060546875 722.011328125 450.154296875 722.011328125 560.620117188 c 0
EndSplineSet
Refer: 11 78 N 1 0 0 1 0 0 2
EndChar

StartChar: uni20BF
Encoding: 8383 8383 210
Width: 640
Flags: W
HStem: -105 174.47<104 264 345 505> 0 159.835<244.875 396.177> 292.556 145.896<171.75 377.455> 571.274 159.733<244.875 374.716> 655 174.47<104 264 345 505>
VStem: 104 160<-105 69.4697 655 829.47> 171.75 73.125<292.556 438.452> 345 160<-105 69.4697 655 829.47> 394.054 197.974<455.31 553.576> 417.054 197.974<178.532 275.6>
LayerCount: 2
Fore
SplineSet
345 -105 m 1xa1
 345 69.4697265625 l 1
 505 69.4697265625 l 1
 505 -105 l 1
 345 -105 l 1xa1
345 655 m 1x29
 345 829.469726562 l 1
 505 829.469726562 l 1
 505 655 l 1
 345 655 l 1x29
104 -105 m 1xa4
 104 69.4697265625 l 1
 264 69.4697265625 l 1
 264 -105 l 1
 104 -105 l 1xa4
104 655 m 1x2c
 104 829.469726562 l 1
 264 829.469726562 l 1
 264 655 l 1
 104 655 l 1x2c
EndSplineSet
Refer: 19 66 N 1 0 0 1 0 0 2
EndChar

StartChar: uni20A6
Encoding: 8358 8358 211
Width: 874
Flags: W
HStem: 0 21G<149.95 325.75 534.357 731.05> 259 86<24.75 223.5 650.5 849.25> 389 86<24.75 223.5 650.5 849.25> 711.008 20G<149.95 346.995 555.25 731.05>
VStem: 149.95 175.8<0 259 345 389> 149.95 73.55<259 345 389 475> 555.25 175.8<345 389 475 731.008> 650.5 80.55<259 345 389 475>
LayerCount: 2
Fore
SplineSet
849.25 259 m 1xf1
 650.5 259 l 1
 650.5 345 l 1
 849.25 345 l 1
 849.25 259 l 1xf1
849.25 389 m 1
 650.5 389 l 1
 650.5 475 l 1
 849.25 475 l 1
 849.25 389 l 1
223.5 259 m 1xf4
 24.75 259 l 1
 24.75 345 l 1
 223.5 345 l 1
 223.5 259 l 1xf4
223.5 389 m 1
 24.75 389 l 1
 24.75 475 l 1
 223.5 475 l 1
 223.5 389 l 1
149.95 0 m 1xf9
 149.95 731.0078125 l 1
 335.75 731.0078125 l 1
 555.25 340.599609375 l 1
 555.25 731.0078125 l 1
 731.05 731.0078125 l 1xf6
 731.05 0 l 1
 545.25 0 l 1
 325.75 403.004882812 l 1
 325.75 0 l 1
 149.95 0 l 1xf9
EndSplineSet
EndChar

StartChar: uni20BD
Encoding: 8381 8381 212
Width: 703
Flags: W
HStem: 0 21G<125.75 318.25> 158.352 86<30 544> 283.102 133.75<30 456.454> 566.274 164.733<318.25 461.707>
VStem: 125.75 192.5<0 566.274> 480.554 193.474<437.8 545.998>
LayerCount: 2
Fore
SplineSet
544 158.3515625 m 1
 30 158.3515625 l 1
 30 244.3515625 l 1
 544 244.3515625 l 1
 544 158.3515625 l 1
30 283.1015625 m 1
 30 416.8515625 l 1
 382.763671875 416.961914062 l 2
 438.748443167 417.045342758 480.553710938 430.631579399 480.553710938 492.986523438 c 0
 480.553710938 552.487745846 438.748443167 566.096239954 382.763671875 566.170898438 c 2
 318.25 566.274414062 l 1
 318.25 0 l 1
 125.75 0 l 1
 125.75 731.0078125 l 1
 390.138671875 731.0078125 l 2
 572.752929688 731.0078125 674.02734375 660.699807111 674.02734375 492.986523438 c 0
 674.02734375 357.222634404 582.647460938 283.1015625 428.25 283.1015625 c 2
 30 283.1015625 l 1
EndSplineSet
EndChar

StartChar: dong
Encoding: 8363 8363 213
Width: 645
Flags: W
HStem: 0 86<30 594> 150.002 133.524<235.933 339.031> 456.597 131.337<234.564 346.983> 624.25 81<290.5 620.25> 731.002 20G<370.25 550.25>
VStem: 35.3213 175.849<308.155 434.49> 370.25 180<355.374 751.002> 370.25 67.8486<387.374 504.496>
LayerCount: 2
Fore
SplineSet
594 0 m 1xfc
 30 0 l 1
 30 86 l 1
 594 86 l 1
 594 0 l 1xfc
620.25 624.25 m 1
 290.5 624.25 l 1
 290.5 705.25 l 1
 620.25 705.25 l 1
 620.25 624.25 l 1
550.25 160 m 1xfe
 370.25 160 l 1xfd
 370.25 751.001953125 l 1
 550.25 751.001953125 l 1
 550.25 160 l 1xfe
370.25 385.374023438 m 1xfe
 370.25 420.073480674 349.817547445 456.596679688 291.709960938 456.596679688 c 0
 238.389820087 456.596679688 211.169921875 422.979071147 211.169921875 372.624023438 c 0
 211.169921875 319.196164792 238.35524252 283.526367188 291.598632812 283.526367188 c 0
 349.783982237 283.526367188 370.25 312.290600482 370.25 355.374023438 c 1xfe
 433.098632812 367.374023438 l 1
 433.098632812 237.6953125 368.580173158 150.001953125 244.5 150.001953125 c 0
 101.371608433 150.001953125 35.3212890625 244.113933377 35.3212890625 372.624023438 c 0
 35.3212890625 498.771734079 108.007623974 587.93359375 249.459960938 587.93359375 c 0
 378.264842676 587.93359375 438.098632812 504.49609375 438.098632812 387.374023438 c 1xfd
 370.25 385.374023438 l 1xfe
EndSplineSet
EndChar

StartChar: uni1E9E
Encoding: 7838 7838 220
Width: 743
Flags: W
HStem: -10 152.024<337.612 502.611> 0 21G<49.75 244.75> 571.108 159.9<286.102 450.5>
VStem: 49.75 195<0 529.503> 531.1 192.15<171.012 285.764>
LayerCount: 2
Fore
SplineSet
49.75 453.85 m 2x78
 49.75 648.840384437 139.486328125 731.0078125 351.25 731.0078125 c 2
 680.75 731.0078125 l 1
 680.75 641.0078125 l 1
 543.649902344 425.25 l 1
 609.646972656 425.25 723.25 388.071497584 723.25 222.725 c 0
 723.25 65.5335526316 628.265243903 -10 472 -10 c 0
 351.202566058 -10 295.5 26 295.5 26 c 1
 328.575195312 167.674804688 l 1
 328.575195312 167.674804688 375.18533617 142.024023438 433.715625 142.024023438 c 0xb8
 493.026154283 142.024023438 531.1 170.885097383 531.1 228.825 c 0
 531.1 287.657216495 493.240425533 314 404 314 c 2
 336.5 314 l 1
 336.5 384.5 l 1
 450.5 571.107910156 l 1
 366.25 571.107910156 l 2
 270.35625296 571.107910156 244.75 533.825683594 244.75 431.857910156 c 2
 244.75 0 l 1
 49.75 0 l 1
 49.75 453.85 l 2x78
EndSplineSet
EndChar

StartChar: germandbls
Encoding: 223 223 221
Width: 725
Flags: W
HStem: -9.99805 135.479<339.486 509.796> 0 21G<49.75 229.75> 489.909 20G<407.143 468.424> 605.536 155.475<280.015 448.665>
VStem: 49.75 180<0 555.713> 482 187.793<509.5 571.232>
LayerCount: 2
Fore
SplineSet
450.771484375 183.493164062 m 0xbc
 322.888040262 216.013724538 287.529101562 268.146144205 287.529101562 351.95 c 0
 287.529101562 450.347470063 354.237034642 509.908691406 460.049804688 509.908691406 c 0
 476.797404615 509.908691406 482 509.5 482 509.5 c 1
 479.903741151 571.736534212 443.021055275 605.535644531 367.649902344 605.535644531 c 0
 271.366251499 605.535644531 229.75 558.954487906 229.75 467.010742188 c 2
 229.75 0 l 1
 49.75 0 l 1x7c
 49.75 480.010742188 l 2
 49.75 651.613415948 128.825006223 761.010742188 361 761.010742188 c 0
 620.174023535 761.010742188 669.79296875 638.704623548 669.79296875 479.5 c 0
 669.79296875 408.135584636 647.745117188 352.469238281 647.745117188 352.469238281 c 1
 647.745117188 352.469238281 597.63253769 376.354492188 523.768066406 376.354492188 c 0
 488.843228937 376.354492188 473.13671875 367.192736276 473.13671875 352.418457031 c 0
 473.13671875 337.78686753 482.578058274 328.776198894 514.586914062 320.486816406 c 0
 662.719709829 280.830901703 695.939453125 235.063836955 695.939453125 146.45234375 c 0
 695.939453125 50.0337563775 619.663795067 -9.998046875 476.856445312 -9.998046875 c 0
 353.770496579 -9.998046875 275.75 28.6625 275.75 28.6625 c 1
 303.814453125 162.511328125 l 1
 303.814453125 162.511328125 372.121925896 125.481445312 455.868164062 125.481445312 c 0
 493.011684298 125.481445312 510.6953125 133.749580419 510.6953125 149.787109375 c 0
 510.6953125 165.2368959 500.138109767 171.176072597 450.771484375 183.493164062 c 0xbc
EndSplineSet
EndChar

StartChar: uni2113
Encoding: 8467 8467 222
Width: 619
Flags: W
HStem: -10 153.205<306.713 476.915> 609.872 151.13<322.644 396.588>
VStem: 77.75 190.229<140.97 500.237> 404.644 168.496<493.024 604.731>
LayerCount: 2
Fore
SplineSet
77.75 279.599609375 m 0
 77.75 596.561536076 178.400720384 761.001953125 367.925390625 761.001953125 c 0
 515.026121209 761.001953125 573.139648438 664.933874408 573.139648438 575.33203125 c 0
 573.139648438 226.452827207 13.75 166 13.75 166 c 1
 -0.25 300.175 l 1
 -0.25 300.175 404.643554688 371.278483731 404.643554688 560.126953125 c 0
 404.643554688 591.392376271 389.172200484 609.872070312 359.425390625 609.872070312 c 0
 294.981582323 609.872070312 267.979492188 482.01632236 267.979492188 295.375 c 0
 267.979492188 196.582857284 285.853125305 143.204882812 376.275 143.204882812 c 0
 457.135711938 143.204882812 513.083007812 183.499804688 513.083007812 183.499804688 c 1
 563 42 l 1
 563 42 502.068063888 -10 367.400390625 -10 c 0
 180.300158559 -10 77.75 85.3579176124 77.75 279.599609375 c 0
EndSplineSet
EndChar

StartChar: uni20B8
Encoding: 8376 8376 223
Width: 614
Flags: W
HStem: 0 21G<212 402> 357.125 153.875<24.75 212 402 589.25> 357.125 123.875<212 402> 577.125 153.875<24.75 589.25>
VStem: 212 190<0 481>
LayerCount: 2
Fore
SplineSet
589.25 577.125 m 1x98
 24.75 577.125 l 1
 24.75 731 l 1
 589.25 731 l 1
 589.25 577.125 l 1x98
589.25 357.125 m 1xd8
 24.75 357.125 l 1
 24.75 511 l 1
 589.25 511 l 1
 589.25 357.125 l 1xd8
212 0 m 1
 212 481 l 1
 402 481 l 1xb8
 402 0 l 1
 212 0 l 1
EndSplineSet
EndChar

StartChar: uni20BC
Encoding: 8380 8380 224
Width: 839
Flags: W
HStem: 0 21G<49.75 239.75 324.5 514.5 596.027 786.027> 408.044 173.462<288.374 632.142> 711.008 20G<324.5 514.5>
VStem: 49.75 190<0 336.088> 324.5 190<0 731.008> 596.027 190<0 336.088>
LayerCount: 2
Fore
SplineSet
417.888671875 581.505859375 m 0
 692.818199496 581.505859375 786.02734375 449.189128766 786.02734375 246.446289062 c 2
 786.02734375 0 l 1
 596.02734375 0 l 1
 596.02734375 216.446289062 l 2
 596.02734375 331.33816507 571.466394133 408.043945312 417.888671875 408.043945312 c 0
 264.310949617 408.043945312 239.75 331.33816507 239.75 216.446289062 c 2
 239.75 0 l 1
 49.75 0 l 1
 49.75 246.446289062 l 2
 49.75 449.189128766 142.959144255 581.505859375 417.888671875 581.505859375 c 0
324.5 0 m 1
 324.5 731.0078125 l 1
 514.5 731.0078125 l 1
 514.5 0 l 1
 324.5 0 l 1
EndSplineSet
EndChar

StartChar: Ohorn
Encoding: 416 416 225
Width: 797
Flags: W
HStem: -9.99805 170.837<306.954 490.823> 568.284 170.837<306.954 490.823>
VStem: 29.75 191.374<252.757 476.366> 576.654 191.374<252.757 476.366> 577.91 147.26<672.574 813.507>
LayerCount: 2
Fore
SplineSet
547.830078125 825.799804688 m 1xe8
 703.009765625 825.799804688 l 1
 703.009765625 825.799804688 725.169921875 795.200195312 725.169921875 738.9921875 c 0
 725.169921875 645 642.849609375 592.639648438 642.849609375 592.639648438 c 1
 532.91015625 641.360351562 l 1
 532.91015625 641.360351562 577.91015625 688 577.91015625 733.729492188 c 0
 577.91015625 790.55078125 547.830078125 825.799804688 547.830078125 825.799804688 c 1xe8
EndSplineSet
Refer: 1 79 N 1 0 0 1 0 0 2
EndChar

StartChar: ohorn
Encoding: 417 417 226
Width: 589
Flags: W
HStem: -9.99805 156.112<235.567 353.112> 354.634 156.299<234.827 353.903>
VStem: 31.85 175.849<175.212 325.441> 382.079 175.849<176.081 324.622> 403.91 141.26<462.574 603.507>
LayerCount: 2
Fore
SplineSet
373.830078125 615.799804688 m 1xe8
 523.009765625 615.799804688 l 1
 523.009765625 615.799804688 545.169921875 585.200195312 545.169921875 528.9921875 c 0
 545.169921875 435 462.849609375 382.639648438 462.849609375 382.639648438 c 1
 358.91015625 431.360351562 l 1
 358.91015625 431.360351562 403.91015625 478 403.91015625 523.729492188 c 0
 403.91015625 580.55078125 373.830078125 615.799804688 373.830078125 615.799804688 c 1xe8
EndSplineSet
Refer: 29 111 N 1 0 0 1 0 0 2
EndChar

StartChar: Uhorn
Encoding: 431 431 227
Width: 777
Flags: W
HStem: -9.99805 170.837<284.57 431.208> 661 164.8<633.25 717.392> 711.008 20G<49.75 244.75 471.027 666.027>
VStem: 49.75 195<198.431 731.008> 471.027 195<198.431 731.008> 601.75 150.5<737.954 815.378>
LayerCount: 2
Fore
SplineSet
567.830078125 825.799804688 m 1xd4
 723.009765625 825.799804688 l 1
 723.009765625 825.799804688 752.25 800 752.25 752 c 0
 752.25 692 704.25 661 633.25 661 c 1xd4
 528.75 731.0078125 l 1xb4
 562.75 731.0078125 601.75 732.480474404 601.75 770 c 0
 601.75 804 567.830078125 825.799804688 567.830078125 825.799804688 c 1xd4
EndSplineSet
Refer: 6 85 N 1 0 0 1 0 0 2
EndChar

StartChar: uhorn
Encoding: 432 432 228
Width: 660
Flags: W
HStem: -9.92285 144.024<169.496 326.67> 0 21G<366.027 546.027> 481.011 20G<49.75 229.75 366.027 546.027>
VStem: 49.75 180<153.269 501.011> 366.027 180<202.449 501.011> 484.75 150.5<509.138 596.83>
LayerCount: 2
Fore
SplineSet
442.509765625 615.799804688 m 1x34
 597.689453125 615.799804688 l 1
 597.689453125 615.799804688 635.25 584.757147576 635.25 527.002929688 c 0
 635.25 463.706226391 587.25 431.002929688 516.25 431.002929688 c 1
 411.75 501.010742188 l 1
 445.75 501.010742188 484.75 502.67223835 484.75 545.002929688 c 0
 484.75 588.140961505 442.509765625 615.799804688 442.509765625 615.799804688 c 1x34
EndSplineSet
Refer: 50 117 N 1 0 0 1 0 0 2
EndChar

StartChar: integral
Encoding: 8747 8747 229
Width: 448
Flags: W
HStem: -190.011 157.375<-70.7053 71.4384> 611.636 149.375<326.308 469.705>
LayerCount: 2
Fore
SplineSet
84.5 31.9892578125 m 2
 134.5 570.010742188 l 2
 145.753896853 684.979719828 195.318788171 761.010742188 342 761.010742188 c 0
 425.054582332 761.010742188 482.5 745.010742188 482.5 745.010742188 c 1
 468.5 600.635742188 l 1
 468.5 600.635742188 432.099190674 611.635742188 381.15 611.635742188 c 0
 334.225149123 611.635742188 318.105720645 595.665616828 314.5 557.010742188 c 2
 264.5 20.9892578125 l 2
 252.032277001 -105.906604899 203.681034483 -190.010742188 57 -190.010742188 c 0
 -26.054595203 -190.010742188 -83.5 -174.010742188 -83.5 -174.010742188 c 1
 -69.5 -21.6357421875 l 1
 -69.5 -21.6357421875 -33.0995187613 -32.6357421875 17.85 -32.6357421875 c 0
 64.775114746 -32.6357421875 80.2614556923 -13.6193001883 84.5 31.9892578125 c 2
EndSplineSet
EndChar

StartChar: dotlessi
Encoding: 305 305 231
Width: 269
Flags: W
HStem: 0 21G<44.5 224.5> 481.011 20G<44.5 224.5>
VStem: 44.5 180<0 501.011>
LayerCount: 2
Fore
SplineSet
44.5 0 m 1
 44.5 501.010742188 l 1
 224.5 501.010742188 l 1
 224.5 0 l 1
 44.5 0 l 1
EndSplineSet
EndChar

StartChar: uni0237
Encoding: 567 567 232
Width: 269
Flags: W
HStem: -190 148.975<-89.9413 27.2734> 481.011 20G<44.5 224.5>
VStem: 44.5 180<-23.6724 501.011>
LayerCount: 2
Fore
SplineSet
44.5 41.45 m 2
 44.5 501.010742188 l 1
 224.5 501.010742188 l 1
 224.5 36.75 l 2
 224.5 -99.7298578199 162.14224138 -190 11.75 -190 c 0
 -53.7183019126 -190 -99 -175.049804688 -99 -175.049804688 c 1
 -89 -30.55 l 1
 -89 -30.55 -62.6737217829 -41.025 -25.825 -41.025 c 0
 23.6875085449 -41.025 44.5 -16.1831325301 44.5 41.45 c 2
EndSplineSet
EndChar

StartChar: uni20B3
Encoding: 8371 8371 233
Width: 824
Flags: W
HStem: 0 21G<62.25 273.741 551.153 761.75> 139 86<24.75 799.25> 269 86<54.75 769.25> 711.008 20G<315.137 528.803>
LayerCount: 2
Fore
SplineSet
522.25 731.0078125 m 1
 761.75 0 l 1
 556.5 0 l 1
 423.143554688 498.813476562 l 1
 267.5 0 l 1
 62.25 0 l 1
 322.25 731.0078125 l 1
 522.25 731.0078125 l 1
769.25 269 m 1
 54.75 269 l 1
 54.75 355 l 1
 769.25 355 l 1
 769.25 269 l 1
799.25 139 m 1
 24.75 139 l 1
 24.75 225 l 1
 799.25 225 l 1
 799.25 139 l 1
EndSplineSet
EndChar

StartChar: hookabovecomb
Encoding: 777 777 234
Width: 0
Flags: W
HStem: 468 113.399<46.9326 146.234> 635.829 103.164<18.085 144.596>
VStem: 0 285.129
LayerCount: 2
Fore
SplineSet
164.145507812 515.903320312 m 1
 165.637695312 468 l 1
 45.181640625 468 l 1
 46.9150390625 585.818847656 l 1
 46.9150390625 585.818847656 70.9194862441 581.398925781 101.057128906 581.398925781 c 0
 131.796232769 581.398925781 146.504394531 590.203852644 146.504394531 606.620605469 c 0
 146.504394531 626.877259012 126.664489401 635.828515625 97.5533203125 635.828515625 c 0
 52.3191350745 635.828515625 22.6826171875 616.558007812 22.6826171875 616.558007812 c 1
 0 715.311523438 l 1
 0 715.311523438 43.0188431643 738.9921875 116.903320312 738.9921875 c 0
 215.493813629 738.9921875 285.12890625 702.469863218 285.12890625 613.010742188 c 0
 285.12890625 546.58249332 239.395242651 514.630371094 188.257324219 514.630371094 c 0
 172.507422171 514.630371094 164.145507812 515.903320312 164.145507812 515.903320312 c 1
EndSplineSet
EndChar

StartChar: uni20B1
Encoding: 8369 8369 235
Width: 844
Flags: W
HStem: 0 21G<145.75 338.25> 224 160.727<260 492.317> 339 86<24.75 234 610 819.25> 469 86<24.75 234 610 819.25> 566.274 164.733<338.25 491.75>
VStem: 145.75 88.25<339 425 469 555> 260 78.25<224 384.727> 610 107.027<339 425 469 555>
LayerCount: 2
Fore
SplineSet
819.25 339 m 1xbf
 610 339 l 1
 610 425 l 1
 819.25 425 l 1
 819.25 339 l 1xbf
819.25 469 m 1
 610 469 l 1
 610 555 l 1
 819.25 555 l 1
 819.25 469 l 1
234 339 m 1
 24.75 339 l 1
 24.75 425 l 1
 234 425 l 1
 234 339 l 1
234 469 m 1
 24.75 469 l 1
 24.75 555 l 1
 234 555 l 1
 234 469 l 1
260 224 m 1xdf
 260 384.7265625 l 1
 403.538574219 384.836914062 l 2
 471.116605343 384.975879624 521.578613281 400.970386744 521.578613281 474.561523438 c 0
 521.578613281 549.042945165 471.116611079 566.050148924 403.538574219 566.170898438 c 2
 338.25 566.274414062 l 1
 338.25 0 l 1
 145.75 0 l 1
 145.75 731.0078125 l 1
 430.138671875 731.0078125 l 2
 581.084960938 731.0078125 717.02734375 661.165039062 717.02734375 474.561523438 c 0
 717.02734375 291.297851562 580.201171875 224 430.138671875 224 c 2
 260 224 l 1xdf
EndSplineSet
EndChar

StartChar: uni20A9
Encoding: 8361 8361 236
Width: 1114
Flags: W
HStem: 0 21G<234.734 501.643 621.95 888.43> 259 86<44.75 269.25 844.75 1069.25> 389 86<24.75 269.25 844.75 1089.25> 711.008 20G<109.75 307.681 821.25 1019.25>
LayerCount: 2
Fore
SplineSet
1069.25 259 m 1
 844.75 259 l 1
 844.75 345 l 1
 1069.25 345 l 1
 1069.25 259 l 1
1089.25 389 m 1
 844.75 389 l 1
 844.75 475 l 1
 1089.25 475 l 1
 1089.25 389 l 1
269.25 259 m 1
 44.75 259 l 1
 44.75 345 l 1
 269.25 345 l 1
 269.25 259 l 1
269.25 389 m 1
 24.75 389 l 1
 24.75 475 l 1
 269.25 475 l 1
 269.25 389 l 1
238.25 0 m 1
 109.75 731.0078125 l 1
 304.75 731.0078125 l 1
 380.856445312 211.694335938 l 1
 479.75 671.0078125 l 1
 654.5 671.0078125 l 1
 746.356445312 211.694335938 l 1
 824.25 731.0078125 l 1
 1019.25 731.0078125 l 1
 884.75 0 l 1
 625 0 l 1
 567.125 379.521484375 l 1
 498 0 l 1
 238.25 0 l 1
EndSplineSet
EndChar

StartChar: franc
Encoding: 8355 8355 237
Width: 584
Flags: W
HStem: 0 21G<89.75 279.75> 103.75 121.5<30 384> 303.45 169.1<185.25 494> 566.633 164.375<279.75 554>
VStem: 89.75 190<0 303.45 472.55 566.633> 185.25 94.5<303.45 472.55>
LayerCount: 2
Fore
SplineSet
384 103.75 m 1xf0
 30 103.75 l 1
 30 225.25 l 1
 384 225.25 l 1
 384 103.75 l 1xf0
494 303.45 m 1
 185.25 303.45 l 1
 185.25 472.55 l 1xf4
 494 472.55 l 1
 494 303.45 l 1
279.75 566.6328125 m 1xf8
 279.75 0 l 1
 89.75 0 l 1
 89.75 731.0078125 l 1
 554 731.0078125 l 1
 554 566.6328125 l 1
 279.75 566.6328125 l 1xf8
EndSplineSet
EndChar

StartChar: peseta
Encoding: 8359 8359 238
Width: 844
Flags: W
HStem: 0 21G<145.75 335.75> 224 160.727<260 492.317> 429 86<30 814> 566.274 164.733<335.75 492.593>
VStem: 145.75 190<0 224 384.727 566.274> 260 75.75<224 384.727> 524.079 192.949<346.134 599.564>
LayerCount: 2
Fore
SplineSet
814 429 m 1xf2
 629 429 l 1
 585 429 l 1
 265 429 l 1
 209 429 l 1
 30 429 l 1
 30 515 l 1
 211 515 l 1
 267 515 l 1
 583 515 l 1
 627 515 l 1
 814 515 l 1
 814 429 l 1xf2
260 224 m 1xf6
 260 384.7265625 l 1xf6
 406.038671875 384.836914062 l 2
 473.616774869 384.882532428 524.078710938 400.970386744 524.078710938 474.561523438 c 0
 524.078710938 549.042945165 473.616748994 566.08315181 406.038671875 566.170898438 c 2
 335.75 566.274414062 l 1
 335.75 0 l 1
 145.75 0 l 1
 145.75 731.0078125 l 1xfa
 430.138671875 731.0078125 l 2
 581.084960938 731.0078125 717.02734375 661.165039062 717.02734375 474.561523438 c 0
 717.02734375 291.297851562 580.201171875 224 430.138671875 224 c 2
 260 224 l 1xf6
EndSplineSet
EndChar

StartChar: uni20BE
Encoding: 8382 8382 239
Width: 781
Flags: W
HStem: 0 164.375<459 744> 57.877 106.498<175.396 411.139> 719.121 20G<299.128 520.275>
VStem: 49.75 195.849<271.002 487.091> 309 86<388 812> 439 86<388 812>
LayerCount: 2
Fore
SplineSet
525 812 m 1x3c
 525 388 l 1
 439 388 l 1
 439 812 l 1
 525 812 l 1x3c
395 812 m 1
 395 388 l 1
 309 388 l 1
 309 812 l 1
 395 812 l 1
744 0 m 1xbc
 24.75 0 l 1xbc
 24.75 164.375 l 1x7c
 744 164.375 l 1
 744 0 l 1xbc
411.138671875 57.876953125 m 1x7c
 175.395900264 57.876953125 49.75 190.834840666 49.75 394.561523438 c 0
 49.75 603.05352116 182.366362399 739.12109375 415.888671875 739.12109375 c 0
 624.660834259 739.12109375 766.262566187 601.723940289 761.931640625 410.891601562 c 1
 583.65546875 393.138671875 l 1
 588.027364952 503.825663394 535.455281795 568.284179688 422.888671875 568.284179688 c 0
 298.696045674 568.284179688 245.598632812 494.731842722 245.598632812 384.561523438 c 0
 245.598632812 252.526319088 304.051164493 164.375 459 164.375 c 1xbc
 411.138671875 57.876953125 l 1x7c
EndSplineSet
EndChar

StartChar: uni030F
Encoding: 783 783 251
Width: 0
Flags: W
HStem: 516 225.008
LayerCount: 2
Fore
SplineSet
111.6 516 m 1
 -10.5 711.0078125 l 1
 156.5 741.0078125 l 1
 228.4 536 l 1
 111.6 516 l 1
301.6 516 m 1
 179.5 711.0078125 l 1
 346.5 741.0078125 l 1
 418.4 536 l 1
 301.6 516 l 1
EndSplineSet
EndChar

StartChar: uni0326
Encoding: 806 806 254
Width: 0
Flags: W
HStem: -277.75 278.199
VStem: -10.5 175.727<-147.116 -31.5636>
LayerCount: 2
Fore
SplineSet
-10.5 -88.482421875 m 0
 -10.5 -34.6065982301 23.3897510638 0.44921875 75.4755859375 0.44921875 c 0
 129.848523823 0.44921875 165.2265625 -38.3175996486 165.2265625 -108.482421875 c 0
 165.2265625 -203.271557645 78.11328125 -277.75 78.11328125 -277.75 c 1
 16.86328125 -229.5 l 1
 16.86328125 -229.5 51.4208984375 -203.03125 66.86328125 -176.5 c 1
 19.6044619295 -171.965880713 -10.5 -138.308924233 -10.5 -88.482421875 c 0
EndSplineSet
EndChar

StartChar: uni031B
Encoding: 795 795 258
Width: 0
Flags: W
HStem: 497.848 233.16
VStem: 34.5 157.76<577.782 718.715>
LayerCount: 2
Fore
SplineSet
4.419921875 731.0078125 m 1
 170.099609375 731.0078125 l 1
 170.099609375 731.0078125 192.259765625 700.408203124 192.259765625 644.200195312 c 0
 192.259765625 550.208007812 109.939453125 497.84765625 109.939453125 497.84765625 c 1
 -10.5 546.568359375 l 1
 -10.5 546.568359375 34.5 593.208007812 34.5 638.9375 c 0
 34.5 695.758789062 4.419921875 731.0078125 4.419921875 731.0078125 c 1
EndSplineSet
EndChar

StartChar: dcaron
Encoding: 271 271 406
Width: 763
Flags: W
HStem: -9.99805 147.725<243.491 342.007> 0 21G<377.25 557.25> 362.396 148.537<243.595 358.74> 731 20G<630.093 793.25> 731.002 20G<377.25 557.25>
VStem: 32.8213 181.099<167.663 330.299> 377.25 62.8486<75.1885 217.374> 377.25 73.0986<317.374 434.496> 377.25 180<217.374 751.002>
LayerCount: 2
Fore
SplineSet
635.75 751 m 25x34
 793.25 751 l 25
 698.25 553 l 25
 579.75 553 l 25
 635.75 751 l 25x34
EndSplineSet
Refer: 44 100 N 1 0 0 1 0 0 2
EndChar

StartChar: tcaron
Encoding: 357 357 407
Width: 463
Flags: W
HStem: -10 145.875<273.665 371.3> 354.1 146.911<8.75 387.25> 731 20G<340.093 503.25>
VStem: 84.5 180<146.17 649.961>
LayerCount: 2
Fore
SplineSet
345.75 751 m 25
 503.25 751 l 25
 408.25 553 l 25
 289.75 553 l 25
 345.75 751 l 25
EndSplineSet
Refer: 41 116 N 1 0 0 1 0 0 2
EndChar

StartChar: dcroat
Encoding: 273 273 409
Width: 622
Flags: W
HStem: -9.99805 147.725<243.491 342.007> 0 21G<377.25 557.25> 362.396 148.537<243.595 358.74> 547.125 126.75<277.75 622.25> 731.002 20G<377.25 557.25>
VStem: 32.8213 181.099<167.663 330.299> 377.25 62.8486<75.1885 217.374> 377.25 73.0986<317.374 434.496> 377.25 180<217.374 751.002>
LayerCount: 2
Fore
SplineSet
622.25 547.125 m 1x3c
 277.75 547.125 l 1
 277.75 673.875 l 1
 622.25 673.875 l 1
 622.25 547.125 l 1x3c
EndSplineSet
Refer: 44 100 N 1 0 0 1 0 0 2
EndChar

StartChar: Tbar
Encoding: 358 358 410
Width: 614
Flags: W
HStem: 0 21G<209.5 404.5> 229.5 162<99.75 514.25> 566.625 134.375<209.5 404.5> 566.625 164.375<24.75 209.5 404.5 589.25>
VStem: 209.5 195<0 701>
LayerCount: 2
Fore
SplineSet
514.25 229.5 m 1xc8
 99.75 229.5 l 1
 99.75 391.5 l 1
 514.25 391.5 l 1
 514.25 229.5 l 1xc8
EndSplineSet
Refer: 17 84 N 1 0 0 1 0 0 2
EndChar

StartChar: tbar
Encoding: 359 359 411
Width: 412
Flags: W
HStem: -10 145.875<273.665 371.3> 205.625 111.75<29 353> 354.1 146.911<8.75 387.25>
VStem: 84.5 180<146.17 649.961>
LayerCount: 2
Fore
SplineSet
353 205.625 m 1
 29 205.625 l 1
 29 317.375 l 1
 353 317.375 l 1
 353 205.625 l 1
EndSplineSet
Refer: 41 116 N 1 0 0 1 0 0 2
EndChar

StartChar: Hbar
Encoding: 294 294 412
Width: 859
Flags: W
HStem: 0 21G<119.75 314.75 544.25 739.25> 274.5 167<215.25 628.75> 500.511 142<24.75 834.25> 711.008 20G<119.75 314.75 544.25 739.25>
VStem: 119.75 195<0 274.5 441.5 731.008> 215.25 99.5<274.5 441.5> 544.25 84.5<274.5 441.5> 544.25 195<0 274.5 441.5 731.008>
LayerCount: 2
Fore
SplineSet
834.25 500.510742188 m 1xf0
 24.75 497.5 l 1
 24.75 639.5 l 1
 834.25 642.510742188 l 1
 834.25 500.510742188 l 1xf0
EndSplineSet
Refer: 2 72 N 1 0 0 1 70 0 2
EndChar

StartChar: hbar
Encoding: 295 295 413
Width: 637
Flags: W
HStem: 0 21G<91.75 271.75 408.027 588.027> 366.909 144.024<311.107 468.281> 547.125 126.75<30 369> 731.002 20G<91.75 271.75>
VStem: 91.75 180<0 751.002> 408.027 180<0 347.742>
LayerCount: 2
Fore
SplineSet
369 547.125 m 1
 30 547.125 l 1
 30 673.875 l 1
 369 673.875 l 1
 369 547.125 l 1
EndSplineSet
Refer: 36 104 N 1 0 0 1 42 0 2
EndChar

StartChar: uogonek
Encoding: 371 371 423
Width: 595
Flags: W
HStem: -274 102.5<452.044 558.214> -9.92285 144.024<169.496 326.67> 0 21G<366.027 546.027> 481.011 20G<49.75 229.75 366.027 546.027>
VStem: 49.75 180<153.269 501.011> 320.75 125.5<-164.765 -65.0491> 366.027 180<202.449 501.011>
LayerCount: 2
Fore
SplineSet
320.75 -149 m 0x9c
 320.75 -49.5224609375 408.75 20 408.75 20 c 1
 529.25 20 l 1
 529.25 20 446.25 -48.3505859375 446.25 -127 c 0
 446.25 -158.993066406 465.36743164 -171.5 499 -171.5 c 0
 537.620117188 -171.5 555 -157.5 555 -157.5 c 1
 573 -251 l 1
 573 -251 540.426757812 -274 475 -274 c 0
 380.017919922 -274 320.75 -229.528320312 320.75 -149 c 0x9c
EndSplineSet
Refer: 50 117 N 1 0 0 1 0 0 3
EndChar

